<?xml version="1.0" standalone="no"?>
<!DOCTYPE svg PUBLIC "-//W3C//DTD SVG 1.1//EN" "http://www.w3.org/Graphics/SVG/1.1/DTD/svg11.dtd" >
<svg xmlns="http://www.w3.org/2000/svg">
<metadata></metadata>
<defs>
<font id="black_coffee_shadowbold" horiz-adv-x="759" >
<font-face units-per-em="2048" ascent="1565" descent="-483" />
<missing-glyph horiz-adv-x="525" />
<glyph horiz-adv-x="0" />
<glyph horiz-adv-x="682" />
<glyph horiz-adv-x="0" />
<glyph unicode="&#x9;" horiz-adv-x="600" />
<glyph unicode=" "  horiz-adv-x="525" />
<glyph unicode="&#x09;" horiz-adv-x="525" />
<glyph unicode="&#xa0;" horiz-adv-x="525" />
<glyph unicode="!" horiz-adv-x="372" d="M5.5 1317.5q-1.5 59.5 4.5 88.5t20.5 36.5t42.5 12.5h52h34q4 0 6.5 -10.5t2.5 -55.5t-2.5 -135.5t-6.5 -250.5v-122.5v-119v-102v-72.5q0 -46 -1 -71t-6 -36.5t-14.5 -13t-27.5 -1.5q-28 4 -43.5 9t-23.5 24.5t-11.5 59.5t-7.5 114q0 36 -2 92.5t-4.5 122t-4 134 t-1.5 128.5q-5 109 -6.5 168.5zM12 183q0 36 3.5 56.5t21.5 29.5q18 27 31.5 27t41.5 -27q27 -18 32 -34t5 -52q0 -55 -13 -76.5t-49 -21.5q-46 0 -59.5 21.5t-13.5 76.5zM33.5 33.5q2.5 3.5 39.5 3.5q64 9 87 34.5t23 172.5q4 0 12 -14.5t16 -35.5t14.5 -43.5t6.5 -40.5 q0 -55 -26.5 -82.5t-71.5 -27.5q-28 0 -47.5 1.5t-37.5 10.5q-18 18 -15.5 21.5zM61 428h37q32 -5 49.5 -0.5t26.5 46.5t12.5 136.5t8.5 269.5q0 78 1.5 155t4 142.5t5 113t2.5 66.5q9 36 12 54.5t12 18.5q4 0 6.5 -104t2.5 -248t-2.5 -298t-6.5 -254q-5 -51 -8.5 -78.5 t-10.5 -40t-19.5 -14.5t-34.5 -2q-46 -9 -72 5t-26 32z" />
<glyph unicode="&#x22;" horiz-adv-x="521" d="M19 1419q2 3 10.5 4t14.5 4q9 0 24.5 2.5t27.5 7.5q12 4 34 3q20 -10 23 -76t-9 -165q-7 -68 -15.5 -99.5t-11.5 -28.5q-9 3 -35 30.5t-38 44.5q-6 8 -9.5 27.5t-5.5 67.5q1 34 -2.5 71t-5.5 53q-7 45 -2 54zM23 1102q-5 12 0.5 13.5t16.5 -7.5q2 -6 13 -17.5t20 -25.5 q24 -22 30.5 -24.5t21.5 6.5q15 2 20.5 9.5t13.5 34.5q5 22 9.5 54t7.5 67t5.5 69t2.5 60q1 24 1 59q1 -2 3.5 -15.5t5.5 -32t5 -38.5t3 -35q-1 -28 -5 -69.5t-9 -82t-10.5 -73t-9.5 -41.5q-6 -12 -21 -17.5t-27 0.5q-6 3 -21 16t-31 30t-29 34t-16 26zM287 1421q2 3 10.5 4 t14.5 4q9 0 24.5 2.5t27.5 7.5q12 4 34 3q20 -10 23 -76t-9 -165q-7 -68 -15.5 -99.5t-11.5 -28.5q-9 3 -35 30.5t-38 44.5q-6 8 -9.5 27.5t-5.5 67.5q1 34 -2.5 71t-5.5 53q-7 45 -2 54zM291 1104q-5 12 0.5 13.5t16.5 -7.5q2 -6 13 -17.5t20 -25.5q24 -22 30.5 -24.5 t21.5 6.5q15 2 20.5 9.5t13.5 34.5q5 22 9.5 54t7.5 67t5.5 69t2.5 60q1 24 1 59q1 -2 3.5 -15.5t5.5 -32t5 -38.5t3 -35q-1 -28 -5 -69.5t-9 -82t-10.5 -73t-9.5 -41.5q-6 -12 -21 -17.5t-27 0.5q-6 3 -21 16t-31 30t-29 34t-16 26z" />
<glyph unicode="#" d="M-11.5 545q-12.5 16 6.5 67q9 19 25 23t55 4q29 0 80 13q0 9 1.5 47t11.5 98q0 49 -1.5 76t-6.5 39t-15.5 15t-29.5 3q-30 -10 -42 -1.5t-12 28.5q-30 60 -18 70t72 10q24 4 37.5 8.5t21 16.5t11 37t9.5 70q4 94 8 147t13 77t25.5 24.5t46.5 -8.5q14 -6 21.5 -10.5 t10 -19.5t0.5 -45.5t-6 -84.5q0 -70 -6.5 -117t-6.5 -56q0 -10 17 -11.5t37 -1.5q19 -6 30 -5t19 21.5t14.5 66.5t16.5 131q9 99 14 128.5t25 29.5q9 0 24.5 -6.5t29 -14t22 -13t4.5 -5.5q0 -10 -2 -56t-11 -106q-10 -70 -11.5 -116t-1.5 -55h39q9 0 15.5 -14t-2.5 -53 q0 -39 -3.5 -45.5t-22.5 -6.5q-15 0 -26 -7t-18.5 -27t-13 -56t-9.5 -96q-6 -36 -7.5 -54.5t3.5 -27.5t18.5 -10t39.5 -1q39 9 45.5 4t6.5 -44t-7.5 -55t-57.5 -25q-20 0 -31.5 -2t-17.5 -11.5t-10 -31t-8 -60.5q0 -20 -2.5 -48.5t-5 -60t-4 -62.5t-1.5 -55q-6 -40 -10 -62 t-10 -31.5t-17 -11t-30 -1.5q-26 0 -39.5 1.5t-18.5 12.5t-3.5 35.5t7.5 69.5q0 60 7.5 121.5t7.5 91.5q9 69 5 80.5t-33 11.5q-20 0 -31 -4t-18.5 -28t-13.5 -75t-15 -145q0 -70 -13 -172q-10 -10 -29 -11.5t-38 -1.5q-20 4 -31 8.5t-14.5 16.5t-2 37t7.5 70q0 50 8.5 105 t18.5 94v80q-52 14 -81 14q-60 9 -72.5 25zM9 479h27h39q9 0 11 -8.5t2 -17.5q0 -10 -4 -18.5t-23 -8.5q-20 0 -36 16.5t-16 36.5zM88 877h15q9 0 10.5 -3.5t1.5 -22.5q0 -10 -1.5 -15t-10.5 15q-10 0 -12.5 8t-2.5 18zM130 45.5q8 8.5 38 8.5q60 0 76.5 17t16.5 77 q9 50 11 50.5t2 -38.5q0 -30 8 -56.5t18 -35.5q9 -20 7.5 -32t-20.5 -21q-10 -10 -30.5 -12.5t-43 -0.5t-42.5 9t-29 17q-20 9 -12 17.5zM274 784q0 -56 0.5 -85.5t3.5 -41.5t11.5 -11.5t23.5 6.5q19 0 41 13q4 0 8.5 41.5t8 92.5t6.5 95t3 50q-10 9 -24 7t-43 -21 q-10 0 -17.5 -4.5t-12.5 -19.5t-7 -44t-2 -78zM326 816.5v21.5v26v-39q0 -10 0 -8.5zM340.5 45.5q9.5 8.5 39.5 8.5q34 0 55 5.5t33 30.5t18.5 76t12.5 141q4 74 7.5 114.5t9 59t14 22t23.5 3.5q50 9 71.5 24.5t21.5 54.5v38v29q19 9 35.5 -16t16.5 -64q0 -60 -26 -89.5 t-65 -29.5q-30 0 -37.5 -7t-16.5 -46q0 -30 -6.5 -91t-6.5 -121t-9.5 -110t-18.5 -50q-6 -10 -29.5 -15t-52 -5t-54.5 5t-35 15q-10 9 -0.5 17.5zM349 1117.5q-5 12.5 5 51.5q0 19 6.5 60.5t6.5 71.5q0 39 13 80q4 0 2.5 -40.5t-6.5 -89t-11.5 -90.5t-10.5 -46q0 -10 -5 2.5 zM525 714.5q-8 6.5 2 16.5q0 9 6.5 36.5t6.5 57.5q9 39 14 58.5t25 19.5q19 0 43 27t24 66q0 29 1.5 39.5t11.5 1.5q9 -10 14 -35t5 -52.5t-5 -52t-14 -33.5q-10 -10 -21.5 -11.5t-30.5 -1.5q-10 0 -14.5 -14t-13.5 -53q0 -39 -3.5 -52.5t-22.5 -13.5q-20 -10 -28 -3.5z M572 1154q0 25 5 67t15 108q20 99 39 39q9 -20 9 -54.5t-9 -103.5q-6 -45 -9 -69.5t-6.5 -35t-9 -10t-14.5 6.5q-10 4 -15 15.5t-5 36.5z" />
<glyph unicode="$" horiz-adv-x="649" d="M5 1094q0 84 28 145t84 89q18 13 27.5 22t14.5 22t6 34t1 59q4 36 7.5 56t10 29t19.5 11t37 2q27 0 42 -2t23 -12.5t11.5 -32.5t9.5 -64q0 -38 1 -58.5t7.5 -30.5t22 -14t43.5 -8q74 -19 75 -37q0 -9 -8.5 -31.5t-19 -44.5t-21 -37.5t-14.5 -9.5q-10 0 -28 0.5t-45 10.5 q-84 27 -119.5 10.5t-53.5 -71.5q-9 -28 -10.5 -51t11 -49t42 -58t80.5 -77q51 -51 84.5 -91t56.5 -78.5t38.5 -80t30.5 -96.5q18 -84 16.5 -155t-28.5 -117q-28 -47 -69 -73t-68 -26q-10 0 -17 -23t-7 -87q0 -42 -1 -64.5t-7 -33t-18.5 -12.5t-35.5 -2q-28 0 -43.5 2 t-23.5 12.5t-11.5 33t-7.5 64.5q0 36 -1.5 56t-6.5 30t-14.5 14t-27.5 10q-47 18 -74 39t-36 49q-10 27 -8.5 44t19.5 54q9 18 23.5 38t14.5 11q9 0 26 -9.5t35 -27.5q18 -19 44 -32.5t54 -19.5t54.5 -3t45.5 18q18 9 21 24.5t3 62.5q0 36 -3 78t-21 70q-9 27 -20.5 50 t-31 50t-51 62t-82.5 86q-42 36 -68.5 67.5t-41.5 62.5t-20.5 65t-5.5 76zM63 150q0 1 28 -8q18 0 50 -11q12 -4 12 -13q0 -18 -17.5 -16.5t-44.5 29.5q-28 18 -28 19zM196 1089q0 23 4.5 41.5t13.5 24.5q9 9 32.5 9t79.5 -9q36 -10 69 -10.5t43 -0.5q9 0 24 22.5t25 50.5 q27 55 50.5 70.5t23.5 -20.5q4 -9 -5 -35.5t-23 -56t-28 -53.5t-18 -28q-10 0 -42.5 1t-68.5 11q-38 9 -58.5 13t-32.5 3t-18 -8t-15 -20q-10 -10 -16 -27t4 -35q0 -37 -4 -40t-22 15q-9 13 -13.5 36t-4.5 46zM200.5 -76.5q7.5 9.5 63.5 9.5q27 0 56.5 2t29.5 11 q9 0 17.5 30.5t8.5 67.5q0 64 3 82.5t21 28.5q36 9 66 37t58 75q9 27 16.5 61t7.5 99q0 42 -3 75.5t-10 66t-18.5 66.5t-29.5 76q-18 55 -4.5 36.5t41.5 -73.5q55 -121 64 -247t-27 -210q-18 -47 -52.5 -81t-70.5 -43q-18 0 -23.5 -18.5t-14.5 -92.5q0 -36 -2 -56.5 t-10.5 -29.5t-25.5 -11t-49 -2q-56 -9 -78.5 -2.5t-31.5 15.5q-10 18 -2.5 27.5zM350 1465q0 55 8 69t18 5q18 -10 21 -30.5t3 -56.5q0 -47 -3 -54.5t-21 -7.5q-10 0 -18 9.5t-8 65.5z" />
<glyph unicode="%" horiz-adv-x="1170" d="M0 1045q0 85 2.5 122.5t20.5 71.5q17 17 33.5 43.5t34.5 35.5q25 21 59 25.5t68 -6t64 -35.5t48 -63q12 -18 19 -32.5t10 -32.5t4 -43t1 -63q0 -43 -1 -71t-4 -47t-10 -33.5t-19 -30.5q-26 -69 -68.5 -97t-102.5 -28q-51 0 -81 20t-55 71q-18 25 -20.5 62t-2.5 131z M91 716q-51 36 0 22q33 -18 80.5 -16t90.5 28q68 33 103 103t44 181q3 25 3 45.5t-4 44.5t-12.5 53.5t-20.5 72.5q0 8 2.5 7t20.5 -18q25 -26 41 -74t16 -108q0 -30 -20.5 -89.5t-47.5 -120t-53 -109t-38 -56.5q-18 -5 -45.5 -5t-57.5 4t-58 13t-44 22zM119.5 983 q-0.5 -23 2 -37t6.5 -21.5t9 -15.5q17 -26 23.5 -27.5t32.5 16.5q25 17 35.5 50.5t10.5 119.5q0 51 -3 79t-20 46q-34 51 -62.5 11t-28.5 -159q-5 -39 -5.5 -62zM120 142q-1 14 12 39.5t39 68.5q21 38 38.5 75.5t36.5 82.5t42 100t53 128q25 60 42 106.5t26 64.5 q21 42 51.5 107.5t63.5 137t65.5 139.5t58.5 116q25 68 48 108t32 40q3 0 21.5 -8t41 -17.5t43.5 -19t30 -12.5q0 -9 -30 -78.5t-72 -171.5q-26 -48 -49 -91t-40 -76t-36 -72q-15 -43 -23 -68q-9 -26 -30 -71.5t-38 -87.5q-18 -43 -33.5 -86t-23.5 -51q-9 -18 -23.5 -53 t-22.5 -60q-22 -51 -50 -111t-54.5 -110.5t-47.5 -82t-29 -26.5q-47 2 -80 11q-30 3 -45.5 9t-16.5 20zM137 56q-9 17 4 18.5t64 -6.5q30 -9 46 -13.5t25 -3.5t15.5 8t15.5 20q16 21 40.5 63.5t52.5 96.5t57 116t55 122q16 51 52.5 140t84.5 198.5t103.5 231t111.5 237.5 q33 76 53 88.5t38 -20.5q0 -9 -3 -19.5t-12 -31t-24.5 -54t-40.5 -88.5q-18 -39 -36.5 -80t-35.5 -80t-31 -71t-22 -53q-26 -43 -48.5 -81.5t-30.5 -55.5q-18 -18 -33.5 -53t-23.5 -60q-9 -34 -23 -80t-22 -79q-9 -34 -23.5 -71t-22.5 -54q-18 -48 -45.5 -104t-55 -105 t-50.5 -83.5t-31 -37.5q-13 -5 -45.5 -2t-66.5 10.5t-61.5 17.5t-30.5 19zM171 1034v69v45q8 25 15 -3t7 -88q0 -43 -1.5 -69t-9.5 -34q-9 -18 -10 -3.5t-1 83.5zM636.5 349q0.5 28 0.5 71q0 162 36.5 250t122.5 114q42 17 67.5 17t68.5 -17q30 -18 47.5 -37t27 -49 t13 -74.5t3.5 -112.5q0 -51 -0.5 -85t-3 -58t-7 -40.5t-12.5 -32.5q-34 -77 -81 -111t-123 -25q-43 0 -77.5 18t-59.5 61q-9 16 -14 30.5t-7 33.5t-1.5 47zM720 110q4 3 64 3q25 -5 41.5 -5t30.5 3t28.5 9.5t36.5 15.5q33 25 57 52t41.5 62t29 81.5t20.5 111.5q3 21 1.5 56 t-6 73.5t-10 74t-8.5 57.5q-5 21 -2 24.5t10.5 -5.5t17.5 -26t19 -38q8 -26 14 -71t-2 -156q0 -65 -1 -101t-4 -57t-10 -35t-19 -35q-69 -136 -205 -136q-43 -9 -66 -2.5t-48 24.5q-34 17 -30 20zM757 450.5q0 -36.5 3 -69.5t9 -59t15 -38q14 -16 46 0q33 17 50.5 61 t17.5 155q8 60 4 99t-4 48q-18 25 -36 25t-43 -25q-26 -26 -37.5 -45.5t-19.5 -79.5q-5 -35 -5 -71.5zM802 400.5q0 38.5 3 79t9.5 75t15.5 47.5q8 17 23 23q3 -5 1.5 -48.5t-6 -96t-10 -98t-8.5 -53.5q-9 -18 -12 -16t-11 28q-5 21 -5 59.5z" />
<glyph unicode="&#x26;" horiz-adv-x="1009" d="M25 297q-19 64 16.5 172t119.5 247q18 32 27 50t12 30.5t-1 24t-13 30.5q-10 27 -21 68.5t-19 86.5t-11.5 89t1.5 77q0 111 29.5 175.5t94.5 83.5q23 9 59 11.5t72.5 0t68 -8.5t46.5 -15q46 -37 66.5 -91t20.5 -156q0 -42 -1 -69.5t-4.5 -48.5t-11 -38.5t-20.5 -40.5 q-9 -28 -32.5 -62.5t-41.5 -61.5q-19 -19 -30 -40t-20 -21q-5 -10 6.5 -37t31.5 -60t43.5 -64t42.5 -49q18 -19 25.5 -5t35.5 79q9 36 23 76.5t14 59.5q9 27 18.5 44t18.5 17q4 0 24 -8t43.5 -17t43.5 -16.5t25 -7.5q0 -5 -7 -30.5t-17.5 -64t-23.5 -85t-26 -91.5 q-19 -47 -34.5 -80.5t-15.5 -42.5t25 -43.5t62 -80.5q36 -37 61 -69.5t25 -41.5q0 -5 -18 -19t-41.5 -28t-45.5 -23t-31 -4q-43 34 -61 62q-28 36 -44.5 55t-30.5 23.5t-30 -3.5t-43 -26q-120 -56 -219 -66.5t-163 17.5q-47 18 -81 58.5t-43 77.5zM112.5 130q4.5 0 60.5 -18 q36 -9 66 -11t58 -2q27 4 67.5 14.5t79.5 23t70.5 26t41.5 23.5q27 18 34.5 16t26.5 -29q9 -19 1.5 -26.5t-62.5 -34.5q-56 -28 -116.5 -42t-117.5 -14t-105.5 14t-80.5 42q-28 18 -23.5 18zM180 364q1 -9 8 -15t22 -15q27 -28 67.5 -28t105.5 28q41 13 62.5 22t26 21t-6 33 t-33.5 59q-28 36 -54 70t-44 53q-18 38 -37 37q0 4 -12.5 -17.5t-28.5 -54t-32.5 -67.5t-25.5 -58q-10 -28 -14.5 -43.5t-3.5 -24.5zM232 382.5q0 33.5 28 98.5q18 36 29 55t20 19q16 -15 25 -24q4 -15 -4 -43.5t-20.5 -57.5t-26.5 -50.5t-23 -21.5q-28 -9 -28 24.5z M309 1147q0 -93 9 -149.5t28 -47.5q30 46 49 74q18 46 27.5 73.5t9.5 74.5q0 46 -3 68t-21 31q-19 18 -28.5 19.5t-45.5 -7.5q-10 -5 -15 -10t-7.5 -17.5t-2.5 -38v-70.5zM346 1049v41.5v69.5q0 55 3 70.5t22 15.5q18 0 19.5 -14t-7.5 -60q0 -28 -6 -60.5t-6 -50.5 q-9 -28 -12.5 -29.5t-12.5 17.5zM488 775q3 17 31 64q46 55 80 137t43 147q4 23 2.5 58.5t-7.5 70.5t-14.5 61.5t-17.5 31.5v24t7.5 1.5t17.5 -25t20.5 -41t15.5 -46.5q36 -120 9 -246.5t-119 -246.5q-28 -37 -28 -50t28 -49q18 -28 16 -28t-29 28q-9 18 -24.5 36.5 t-24.5 37.5q-9 18 -6 35zM748.5 38.5q4.5 4.5 41.5 23.5q74 46 97 71t14 53q0 27 2.5 27t21.5 -27q18 -24 24.5 -39.5t2 -29.5t-20.5 -29t-43 -38q-47 -37 -82 -40.5t-53 15.5q-9 9 -4.5 13.5zM751.5 407.5q-3.5 14.5 1.5 24.5q9 13 29 65t41 111t37 109t16 60q0 9 3 9 t22 -9q9 0 16.5 -14t7.5 -23q0 -10 -18 -64t-40 -117t-41.5 -119t-23.5 -69q-10 -10 -20.5 -5.5t-18.5 16t-11.5 26zM811.5 326q-6.5 8 2.5 8l25 -25q9 -19 15 -22t-3 -3q-15 6 -24 25q-9 9 -15.5 17z" />
<glyph unicode="'" horiz-adv-x="261" d="M19 1419q2 3 10.5 4t14.5 4q9 0 24.5 2.5t27.5 7.5q12 4 34 3q20 -10 23 -76t-9 -165q-7 -68 -15.5 -99.5t-11.5 -28.5q-9 3 -35 30.5t-38 44.5q-6 8 -9.5 27.5t-5.5 67.5q1 34 -2.5 71t-5.5 53q-7 45 -2 54zM23 1102q-5 12 0.5 13.5t16.5 -7.5q2 -6 13 -17.5t20 -25.5 q24 -22 30.5 -24.5t21.5 6.5q15 2 20.5 9.5t13.5 34.5q5 22 9.5 54t7.5 67t5.5 69t2.5 60q1 24 1 59q1 -2 3.5 -15.5t5.5 -32t5 -38.5t3 -35q-1 -28 -5 -69.5t-9 -82t-10.5 -73t-9.5 -41.5q-6 -12 -21 -17.5t-27 0.5q-6 3 -21 16t-31 30t-29 34t-16 26z" />
<glyph unicode="(" horiz-adv-x="421" d="M4.5 801.5q0.5 88.5 9.5 163.5q8 34 26 113.5t39 172t41.5 181t34.5 142.5q9 27 18 43t18 16q2 -1 58 -36q27 -18 42.5 -34t15.5 -25t-14.5 -55.5t-31.5 -107.5q-45 -176 -70 -325.5t-25 -272.5q0 -75 7.5 -158t22 -160t34 -142t42.5 -104q13 -18 20 -29t7 -20.5t-7 -22 t-20 -33.5q-18 -27 -33.5 -43t-24.5 -16t-27 23t-39 58t-41.5 76t-33.5 77q-23 74 -38.5 162t-23 178t-7 178.5zM207 776q2 86 16.5 188t41 226t66.5 278q9 44 17.5 63t17.5 19q27 -9 25 -53t-37 -158q-45 -172 -69.5 -302t-30 -242t8 -219t44.5 -234q9 -45 23.5 -90.5 t23.5 -72.5q9 -18 16 -40t7 -31q0 -5 -12 -27.5t-27 -49t-30.5 -48.5t-23.5 -27q-5 0 -16.5 2.5t-23.5 5.5t-21 7t-9 8q0 9 7 16t16 7q4 0 20.5 22t34.5 51t30.5 56t8.5 36q0 9 -1 23t-10 23q-9 17 -24 63t-30 104.5t-29.5 120.5t-22.5 111q-9 78 -7 164z" />
<glyph unicode=")" horiz-adv-x="460" d="M25 92q0 7 2.5 32.5t19.5 75.5q16 45 32 97.5t29 106t23 102.5t14 86q7 33 9.5 126.5t2.5 200.5q3 105 2 170.5t-9.5 114.5t-25.5 94t-45 111q-17 49 -29.5 85.5t-12.5 44.5q-8 7 5 16.5t37 17.5q16 7 37 14.5t29 7.5q7 0 24.5 -27t41.5 -93q33 -74 50 -125.5t25 -108 t9.5 -130.5t1.5 -192q0 -131 -4 -227t-16 -180.5t-36 -170t-64 -195.5q-17 -50 -42 -120q-4 -4 -18.5 2.5t-32.5 18t-34.5 24t-24.5 21.5zM47 16q-13 15 22 0q33 -24 56.5 -26t31.5 14q8 8 24.5 47t36 94.5t38.5 119.5t31 121t20.5 96t14.5 79.5t10.5 92.5t8.5 134 q7 204 -0.5 337.5t-31.5 207.5q-12 33 -27.5 69.5t-30.5 68t-26 54t-14 26.5v22q0 24 13.5 3.5t30.5 -69.5q45 -107 70 -173t37 -127t13 -135t-2 -196q0 -127 -3.5 -220.5t-14.5 -177.5t-32.5 -169t-57.5 -195q-33 -98 -52.5 -142t-35.5 -44q-9 0 -27 11t-38.5 25.5 t-38.5 28.5t-26 23z" />
<glyph unicode="*" horiz-adv-x="538" d="M19 1163q0 4 8.5 12.5t22.5 17.5q23 18 33 22t71 9q0 4 -15.5 37t-33.5 61q-5 9 -13 23.5t-12 19.5q-9 18 -4 30.5t29 36.5q9 9 24 18q4 0 20 -20.5t35 -52.5q39 -75 49 -67q9 37 18 61q4 23 19 55q9 4 38.5 -5.5t34.5 -18.5q4 -9 -1.5 -42.5t-28.5 -92.5 q-9 -33 -6 -37.5t36 0.5q34 4 51.5 6t26 -1t10 -12t4.5 -24q1 -39 -6 -49q0 -5 -19 -8.5t-42 -3.5q-28 -5 -47.5 -9.5t-19.5 -8.5q1 -8 49 -98q18 -28 24 -46t6 -22q-9 -14 -30 -37.5t-25 -23.5q-3 2 -14 19t-26 40.5t-29 49t-23 44.5q-9 18 -14.5 14.5t-28.5 -44.5 q-37 -65 -47 -81.5t-14 -16.5q-5 0 -13.5 8t-16.5 20t-13.5 23t-5.5 16q0 4 0.5 12t5.5 13q4 6 13 21t18 31t16.5 29t7.5 16q0 4 -4 8.5t-8 4.5q-46 13 -78 25.5t-32 17.5zM31 1107q0 4 2.5 7.5t16.5 -0.5q4 0 15.5 -4.5t20.5 -8.5q9 -5 9.5 -7t-3.5 -11q-5 -9 -8.5 -9 t-21.5 9q-9 9 -20 14t-11 10zM121 879q0 3 14 8q13 0 22 12t33 49q13 23 31 55q0 2 4 -6t10 -18t11 -19.5t5 -11.5q0 -3 -9 -17t-20 -30.5t-20.5 -31.5t-11.5 -19q-14 -9 -30 -5t-25 18q-14 13 -14 16zM182 1439q-1 2 8 -7t23 -27t14 -22q0 -9 -10.5 -1t-19.5 32 q-14 23 -15 25zM331 844q-18 28 0 19q4 0 16 11.5t25.5 26.5t24.5 30.5t14 22.5q1 11 -7 31q0 4 -10.5 23t-19.5 38q-14 18 -24 50q0 2 10.5 5t25.5 6t32 5t29 2q8 15 13 24q4 9 7 20t-1 35q-9 57 18 19q9 -5 11.5 -18.5t7.5 -36.5q2 -28 1 -44.5t-10 -25.5t-27 -13.5 t-50 -8.5q-14 0 -31 -6q17 -41 31 -68q13 -24 21.5 -46.5t8.5 -26.5q0 -5 -8.5 -20.5t-21.5 -28.5q-19 -28 -28 -32.5t-27 -4.5q-9 0 -18 1.5t-13 10.5zM350 1267q-2 1 6 30q4 9 8.5 28.5t9.5 33.5q4 13 12 36q7 -6 12 -6q29 -9 13 -73q-9 -33 -14 -39t-23 -10 q-9 0 -16.5 -2.5t-7.5 2.5z" />
<glyph unicode="+" horiz-adv-x="693" d="M10 496q0 7 3 19q0 11 5 27t11 34q5 11 9.5 17.5t15.5 9.5t31.5 4t59.5 1q34 -3 52.5 -2.5t27.5 16t10.5 52t1.5 104.5q0 69 4 121t4 58h22.5h40.5q23 0 35.5 -3t18.5 -20t9 -53.5t6 -102.5q0 -68 1 -104.5t10 -53t27.5 -18.5t54.5 -2q34 3 53 3.5t28 -5.5t10.5 -20 t1.5 -40q0 -47 -3 -55.5t-20 -14.5q-6 0 -24.5 -4t-29.5 -4h-32.5h-37.5q-18 -3 -27.5 -7.5t-13 -19.5t-2.5 -46.5t4 -88.5q0 -62 -1 -95.5t-5.5 -51t-13.5 -24.5t-26 -15l-44 -11t-26 -5q-12 -6 -18 45t-6 180q0 48 -2 75t-11 41t-29.5 19.5t-57.5 11.5q-50 5 -76.5 8.5 t-38.5 8t-12 11.5zM21 445h31q11 0 36 -5t49 -11q40 -6 55 -9t15 -14q0 -6 -8 -7q-6 0 -27.5 0.5t-50.5 6.5q-47 6 -73.5 13.5t-26.5 25.5zM268 50q0 6 16.5 12.5t46.5 18.5q23 6 46.5 15.5t23.5 15.5q6 6 6.5 42t0.5 112q-6 81 -3 115.5t3 40.5q6 0 32 3.5t61 3.5 q37 3 58.5 7t32.5 15t14 31t3 56q0 34 1.5 44t7.5 10q17 -6 23 -26.5t0 -66.5q0 -36 -1.5 -55t-10.5 -28t-31.5 -11.5t-65.5 -5.5q-30 -6 -53.5 -8t-23.5 -8q-6 0 -7 -46t-1 -109q0 -70 -1 -112.5t-7 -42.5q-3 -6 -22.5 -14.5t-43 -16.5t-45 -14t-29.5 -9q-12 0 -21.5 9.5 t-9.5 21.5zM408 695.5v90.5q0 69 8 155q12 2 23 -8q3 -6 5.5 -14t5 -23.5t4 -43.5t1.5 -74q0 -56 -1 -86t-3.5 -43.5t-7 -15.5t-12.5 -2q-9 0 -14 2t-7 16.5t-2 46z" />
<glyph unicode="," horiz-adv-x="272" d="M0.5 -12q-0.5 8 6.5 39q2 11 7.5 33.5t10.5 42.5q4 19 8 40.5t7 33.5l5 22.5t6 25.5q2 9 4 16t5 7q-1 5 50 6q19 0 35 -1.5t19 -1.5q4 -1 3 -11q0 -5 -7 -42t-20 -92q-30 -119 -33 -136q-7 -26 -10 -35t-7 -9q-5 -2 -32 13.5t-48 33.5q-9 7 -9.5 15zM13 -68q-1 8 3 6 q0 -2 8.5 -8t20.5 -13q9 -6 18.5 -12t14.5 -9q32 -7 47 39q19 75 33 142q4 18 9.5 44.5t10.5 46.5q6 19 10.5 36.5t4.5 20.5q1 10 3 15q4 6 17 -5t16 -22q0 -7 -1 -12t-4 -18t-9.5 -39.5t-18.5 -75.5q-3 -9 -9 -39.5t-15 -61.5q-7 -30 -12.5 -55t-7.5 -30q-3 -6 -12 -13 t-18 -5q-6 0 -24 9t-36.5 21t-33.5 23t-15 15z" />
<glyph unicode="-" d="M5 665q0 22 3.5 34.5t26 18.5t72 8t140.5 5q97 0 179 2t100 2h28.5h22.5q6 0 12.5 -0.5t6.5 -3.5q3 -3 6 -20t6 -38t5 -38.5t2 -20.5q-7 -8 -14 -9q-15 -4 -108 -7t-199.5 -4t-193.5 -1t-90 3q-4 3 -4.5 18.5t-0.5 50.5zM16 542.5q-3 5.5 10.5 8.5t48.5 3.5t102 3.5 h107.5h93.5t88.5 1t92.5 4q48 3 58 6.5t21 17.5q13 13 15 19.5t-1 31.5q0 18 -2.5 33.5t-2.5 26.5q-4 18 -3 21t8 3q13 -4 25.5 -19t16.5 -33q3 -32 5 -71.5t-1 -49.5q-6 -13 -12 -20t-24.5 -10t-56.5 -4.5t-107 -2.5h-80.5h-85.5h-80.5h-65.5q-54 0 -83.5 -0.5t-44.5 0.5 t-20 4t-10 9q-9 12 -12 17.5z" />
<glyph unicode="." horiz-adv-x="294" d="M11 195q0 34 5.5 53t22.5 33q25 22 57.5 11t46.5 -41q9 -17 13.5 -30.5t4.5 -43.5q0 -39 -4.5 -47t-13.5 -17t-19.5 -13.5t-32.5 -4.5q-53 0 -66.5 19t-13.5 81zM39 49q-19 29 6 12q16 -5 45.5 -4t52.5 10q25 9 38.5 32t13.5 66q4 25 0.5 42.5t-7.5 31.5q-5 16 -3.5 18.5 t10.5 -1.5q9 -5 17.5 -18.5t17.5 -26.5q9 -23 9.5 -36.5t0.5 -43.5q0 -65 -21.5 -90.5t-82.5 -25.5q-39 0 -63.5 10t-33.5 24z" />
<glyph unicode="/" horiz-adv-x="643" d="M7.5 112.5q-4.5 7.5 4.5 43.5q0 18 13.5 51t22.5 69q9 27 24.5 92t24.5 137q18 72 42 159t42 141q36 126 69 240.5t51 240.5q18 54 36 145q0 9 24 16.5t60 7.5q63 0 72 -4.5t0 -31.5q0 -18 -7.5 -59t-16.5 -86q-18 -126 -49.5 -245t-58.5 -200q-45 -108 -72 -217.5 t-36 -190.5q-9 -45 -25.5 -104t-34.5 -113q-14 -45 -22 -69.5t-14.5 -36t-14.5 -13t-21 -1.5q-18 0 -41 6t-32 6q-36 9 -40.5 16.5zM19.5 49.5q10.5 7.5 64.5 -1.5q36 0 62 1.5t35 10.5q9 4 25 47.5t33 102t31 120.5t19 103q9 40 18.5 78t21.5 82t28.5 98t39.5 126 q18 49 39 124.5t40 156t33.5 154.5t19.5 119q0 27 12 60q37 0 37 -36t-15 -121.5t-37.5 -188t-50 -207.5t-54.5 -181q-9 -23 -20 -59t-22.5 -78t-22 -84.5t-19.5 -78.5q-14 -72 -29 -138.5t-30 -118t-27.5 -85.5t-21.5 -43q-9 -5 -36 -7t-57 -1t-58.5 6t-41.5 14 q-27 18 -16.5 25.5z" />
<glyph unicode="0" horiz-adv-x="773" d="M12 557.5q-5 116.5 0 275.5q9 289 62 429t175 168q32 9 70 7t74 -14t67 -32.5t50 -47.5q27 -38 44.5 -76t28 -96t16 -147t10.5 -228q4 -159 0.5 -268t-16 -184t-36.5 -123t-60 -84q-19 -15 -31 -23t-27 -11t-38 -3.5t-65 -0.5t-67.5 0.5t-43.5 3.5t-31.5 11t-31.5 23 q-47 32 -78 85t-49 136t-23 199.5zM171.5 83.5q-6.5 3.5 2.5 3.5t32.5 -8t42.5 -17q111 -47 207 5.5t153 193.5q13 27 20.5 47.5t11 61.5t5 115.5t1.5 210.5q0 139 -3.5 233.5t-10.5 160.5t-19 109.5t-30 81.5q-9 37 -9 41.5t9 -4.5q32 -42 53.5 -91t34 -122.5t18.5 -180.5 t6 -265q0 -145 -3.5 -233t-12.5 -144t-26.5 -92t-44.5 -78q-38 -57 -92 -83t-119 -17q-75 0 -120 11t-91 39q-9 18 -15.5 21.5zM178 629.5q1 -79.5 6 -146t15 -98.5q9 -57 37 -92.5t75 -44.5q37 -9 60.5 3.5t51.5 59.5q9 23 13.5 40.5t7.5 47t3.5 78t0.5 132.5q4 93 2 179.5 t-8 161.5t-14.5 134t-17.5 97q0 18 -15.5 42t-33.5 33q-28 27 -50.5 27t-49.5 -27q-19 -19 -31.5 -44.5t-20.5 -63t-13 -90t-9 -126.5q-5 -61 -7.5 -142t-1.5 -160.5zM224 573.5v147.5q0 111 2 190t8 135t15.5 93.5t24.5 66.5q18 37 26 40t36 -15q27 -19 27 -25.5t-27 -24.5 q-19 -9 -30 -38.5t-20 -85.5q-10 -33 -15 -64.5t-7.5 -74.5t-2.5 -104.5v-154.5q0 -150 2 -227.5t11 -95.5q9 -19 9 -26.5t-9 1.5q-29 34 -38 62q-5 18 -7.5 41.5t-3.5 62t-1 97z" />
<glyph unicode="1" horiz-adv-x="479" d="M31 1316.5q4 18.5 29 43t70 60.5q9 9 48 24q13 4 33 -3.5t39 -19.5t33 -26t14 -23q4 -9 6.5 -64t3.5 -141t1.5 -196.5t0.5 -230.5q0 -171 -0.5 -287.5t-1.5 -189t-3.5 -106t-6.5 -37.5q-9 -9 -29.5 -12t-43 -0.5t-42 9t-28.5 15.5v152.5v163.5v196q4 102 6.5 195.5 t2.5 166t-2.5 119.5t-6.5 56q0 9 -16 25.5t-43 34.5q-36 22 -52 39.5t-12 36zM71 1205h12v-24q-12 15 -12 24zM176.5 57q4.5 3 49.5 3t61 9t34 27q13 9 20 23.5t9.5 76t0.5 190.5t-6 366v251.5v204.5v188q18 -30 36 -48q4 -14 6.5 -34t3.5 -83t1.5 -185.5t0.5 -341.5v-238.5 v-199v-138.5v-56q-5 -23 -29 -36.5t-55.5 -18t-64 0t-54.5 18.5q-18 18 -13.5 21z" />
<glyph unicode="2" horiz-adv-x="837" d="M5 202q0 29 16 53q39 63 87 120t104 113q238 239 255 574q8 72 2.5 99.5t-13.5 59.5q-24 63 -66.5 75.5t-145.5 -11.5q-72 -16 -97.5 -7t-40.5 49q-16 48 -0.5 64t95.5 32q39 12 83 18t85 6.5t75 -3t55 -10.5q31 -16 66 -57.5t51 -80.5q12 -40 15.5 -102.5t0.5 -132.5 t-13 -140t-25 -125q-24 -69 -49.5 -124.5t-56 -106.5t-69.5 -100t-90 -104q-40 -40 -85 -96q0 -9 50 -14t162 4q87 0 134.5 -1.5t68.5 -10t22 -25.5t-2 -48q0 -28 -5 -43.5t-34 -22.5t-91.5 -8t-177.5 -1q-108 -5 -172 -4.5t-100 6.5t-51 18.5t-27 33.5q-16 24 -16 53z M52.5 59q2.5 2 42.5 -6q19 -5 108 -5.5t191 1.5t187.5 6t97.5 9q24 8 34 42t19 74q0 39 3 43t19 -11q8 -16 14.5 -45.5t6.5 -60.5q-5 -36 -15.5 -57.5t-44 -32.5t-99.5 -13.5t-181 -2.5q-104 0 -167.5 0.5t-101.5 4t-57.5 12.5t-34.5 25q-24 15 -21.5 17zM132 1238 q0 2 16 -6q15 0 38 0.5t47 9.5q72 15 116.5 15t53.5 -15q8 -16 -5.5 -21.5t-68.5 -20.5q-80 -16 -118.5 -9.5t-62.5 30.5q-16 15 -16 17zM319.5 301q-1.5 4 30.5 28q75 71 136 162.5t103.5 193.5t66 212t23.5 218q0 27 -4 60.5t-9 64t-10.5 54.5t-8.5 33q-9 8 -11 15.5 t-10 16.5q0 15 2.5 15t18.5 -15q39 -56 61 -130.5t14 -177.5q0 -200 -65.5 -380t-200.5 -331q-16 -16 -25.5 -25t-18.5 -13t-20.5 -4.5t-30.5 -0.5q-40 0 -41.5 4z" />
<glyph unicode="3" horiz-adv-x="720" d="M9.5 207.5q-3.5 7.5 0.5 18t17.5 26.5t38.5 46q24 33 33 34t34 -23q16 -9 39.5 -22.5t48.5 -21.5q49 -17 90.5 -4.5t74.5 70.5q12 20 18.5 33t9.5 31t4 45.5t1 77.5q0 212 -66 276q-9 8 -43 28.5t-67 37.5q-42 24 -70.5 40.5t-28.5 25.5q-9 8 -10 30t-1 47q0 49 5.5 59 t38.5 19q74 24 105.5 42t48.5 35q8 24 -0.5 54.5t-32.5 55.5q-9 8 -21 13.5t-45 -2.5q-46 -5 -73 -6t-45 5t-30.5 21.5t-28.5 45.5q-9 24 7 38t82 39q99 24 167.5 9t118.5 -64q33 -42 49.5 -84.5t16.5 -91.5q0 -42 -21 -90t-45 -64q-17 -17 -13 -39.5t46 -71.5 q49 -58 76.5 -135t44.5 -184q12 -112 -7.5 -208.5t-62.5 -165.5t-107 -105.5t-142 -27.5q-25 0 -62 8.5t-73 22t-66 29t-42 28.5q-9 12 -12.5 19.5zM44 133q13 -3 22 -11q24 -13 57 -27t65 -25.5t59 -18.5t40 -7q16 0 41 7t52 18.5t52 25.5t42 27q33 33 65 81t57 106 q3 16 7 32t7 37t5.5 52t2.5 77q0 115 -17 205t-50 148q-17 33 -18.5 41t7.5 -8q24 -21 47.5 -68t41.5 -108t27 -130t6 -135q0 -79 -17 -150t-48 -128t-76 -96.5t-102 -55.5q-50 -17 -81.5 -17t-72.5 17q-25 3 -63 18t-73.5 33t-60 34.5t-24.5 25.5zM119 1222q3 4 36 13 q57 8 94.5 1t37.5 -23q8 -9 -1.5 -11.5t-42.5 -10.5q-42 -9 -68 -7.5t-42 18.5q-17 16 -14 20zM172.5 855.5q1.5 1.5 26.5 -6.5q41 -17 76.5 -39t44.5 -38q8 -9 -7 -4.5t-39 16t-49 26.5t-37 28q-17 16 -15.5 17.5zM468 1001.5q3 15.5 28 57.5q24 33 28.5 57.5t4.5 74.5 q0 49 -7 78t-15 54q-17 24 -15.5 24t26.5 -24q24 -33 38.5 -75t17.5 -85.5t-5.5 -85t-28.5 -74.5q-33 -42 -45.5 -46t-20.5 13q-9 16 -6 31.5z" />
<glyph unicode="4" horiz-adv-x="784" d="M11.5 660.5q2.5 28.5 15 72t36.5 115.5q18 51 64.5 147t96.5 192t91.5 171t51.5 85q4 4 19 4t34 -3.5t39 -10t35 -15.5q9 -10 13.5 -21t7.5 -44t3.5 -100t0.5 -190q0 -133 1 -204t8 -104t22.5 -41.5t44.5 -17.5q28 -10 33 -19.5t5 -56.5q0 -48 -4 -63.5t-22 -24.5 q-10 0 -19.5 -6.5t-18.5 -6.5q-10 -6 -15 -15t-7.5 -27.5t-2.5 -51v-83.5q-6 -86 -8 -132t-8.5 -66.5t-22.5 -21.5t-49 5q-29 0 -44.5 2.5t-24.5 20.5t-12.5 56.5t-7.5 110.5q-6 75 -10.5 116t-19 61.5t-43 26t-79.5 11.5q-53 0 -82 0.5t-45.5 3.5t-26 11t-23.5 23 q-15 23 -22 42.5t-4.5 48zM63 494q0 9 1.5 11t11.5 2q18 -10 54.5 -11.5t84.5 -1.5q66 0 83.5 -8t17.5 -17q0 -19 -11 -22.5t-77 -3.5q-76 9 -116 20.5t-49 30.5zM203 722q4 -10 22.5 -14.5t41 -4.5t44 4.5t31.5 14.5q9 0 17 44t8 120q0 57 -13 152q-10 4 -37 -41.5 t-54 -103.5t-46.5 -110t-13.5 -61zM259 769.5q0 9.5 19 66.5q28 57 33 57t5 -57v-76q-20 -10 -38 0q-19 0 -19 9.5zM392 64h64q38 0 53.5 9.5t34.5 28.5q9 9 13.5 18t7.5 29.5t3.5 56.5t0.5 98q0 66 0.5 102t5 54t15 23t30.5 11q28 9 39.5 33t11.5 81q0 47 14 56.5t24 -18.5 q9 -15 13.5 -39t5.5 -49t-1 -46.5t-6 -30.5q-10 -10 -25.5 -19.5t-24.5 -18.5q-20 -6 -30.5 -11t-15 -23t-5 -53.5t-0.5 -101.5q0 -67 -0.5 -106t-3.5 -60t-7.5 -31t-13.5 -19q-20 -15 -54 -20t-67 -1.5t-57.5 15.5t-24.5 32zM569 1177v228q16 -29 26 -38q9 -20 13.5 -121 t4.5 -214t-4.5 -202t-13.5 -83q-10 0 -18 110.5t-8 319.5z" />
<glyph unicode="5" horiz-adv-x="727" d="M15.5 205q-9.5 32 8.5 50q9 9 31 13.5t46 4.5t44 -4.5t25 -13.5q9 0 30 -4.5t67 4.5q54 4 87.5 15t51.5 37t24.5 71.5t6.5 118.5q9 136 -21.5 226t-75.5 126q-9 9 -33.5 16.5t-51.5 7.5q-55 0 -97.5 24.5t-60.5 60.5q-9 18 -10 75.5t3.5 124.5t13 127.5t17.5 84.5 q4 18 10 27.5t19.5 15.5t38 9.5t66.5 8.5q27 9 64 13.5t72.5 4.5t62 -4.5t31.5 -13.5q9 -5 13.5 -23.5t4.5 -39.5t-4.5 -41t-13.5 -29t-35 -17t-62 -8q-55 0 -83 -0.5t-39.5 -9.5t-11 -31.5t0.5 -67.5q0 -46 1.5 -77.5t10.5 -31.5q0 -9 29 -18t56 -18q81 -27 131.5 -80.5 t86.5 -162.5q9 -24 13.5 -44.5t7 -48.5t3 -69t0.5 -104q0 -78 -1 -121t-4 -68t-10.5 -40.5t-20.5 -37.5q-36 -73 -93 -106.5t-138 -51.5q-82 -9 -151.5 3t-114.5 58q-36 27 -45.5 59zM81 65q-6 14 40 -4q54 -18 136 -16.5t155 28.5q72 18 126 69.5t81 124.5 q18 54 20.5 140.5t-6.5 177t-28.5 172.5t-46.5 128q-9 18 -12 37q9 -5 23.5 -28t30 -55t31 -68t24.5 -67q9 -36 16.5 -96t7.5 -159q0 -64 -0.5 -103.5t-3 -66t-7 -45t-13.5 -40.5q-27 -64 -83.5 -114t-110.5 -68q-27 0 -74.5 -6t-83.5 -6q-64 0 -99 7.5t-71 16.5 q-46 27 -52 41zM161 834q6 3 70 3q36 -9 61.5 -14t34.5 -23q18 -9 12 -10.5t-60 -1.5q-36 0 -57.5 3.5t-39.5 21.5q-27 18 -21 21zM288 1086.5q-6 19.5 3 65.5q0 31 1.5 48t10.5 25.5t28.5 10t56.5 1.5q49 4 78 11.5t45 22.5t23 38.5t12 60.5q0 45 3 50t21 -13 q18 -27 19.5 -53.5t-7.5 -80.5q-9 -28 -19.5 -44.5t-28 -25.5t-43.5 -12t-66 -3q-33 0 -50.5 -1t-26.5 -5.5t-13 -14t-8 -27.5q0 -36 -7.5 -54.5t-16.5 -18.5t-15 19.5z" />
<glyph unicode="6" horiz-adv-x="710" d="M18.5 546.5q2.5 97.5 16.5 227.5q4 73 10.5 129t16 101t23 84t31.5 78q43 86 109.5 152.5t144.5 101.5q34 17 92 35q9 0 22 -16t13 -42q8 -31 9.5 -50t-6.5 -32t-25.5 -23t-47.5 -22q-18 -9 -47.5 -30.5t-55.5 -38.5q-69 -78 -99.5 -167.5t-39.5 -236.5q-9 -87 -7.5 -106 t19.5 -10q9 0 37 7t55 16q69 9 121 -1.5t87 -44.5q47 -39 65 -106t9 -140.5t-42.5 -144t-89.5 -117.5q-78 -69 -172 -63t-163 75q-31 39 -50.5 90.5t-28.5 124t-6.5 170zM146 72q1 3 62 -14q43 -18 63 -19.5t64 7.5q78 26 144 93.5t110 172.5q8 21 12.5 57t5.5 75t-0.5 75 t-5.5 58q-9 9 -12 35q0 9 8.5 -1.5t26.5 -44.5q17 -27 20 -60t3 -102q0 -39 -1 -65t-4 -45.5t-10.5 -36.5t-19.5 -38q-52 -113 -122.5 -166t-165.5 -53q-44 0 -68.5 8.5t-58.5 26.5q-52 34 -51 37zM167 488.5q-3 -10.5 6 -61.5q4 -66 24 -108.5t48 -58.5t61 -4t64 56 q25 30 38 66.5t14 69.5t-9.5 59.5t-31.5 35.5h-23q-9 0 -26 -1.5t-43 -10.5q-27 0 -51 -7t-41 -16q-27 -9 -30 -19.5zM203.5 468.5q4.5 7.5 39.5 16.5q17 9 45.5 10t46.5 1q34 0 44.5 -1t1.5 -10q0 -9 -10 -17.5t-36 -17.5q-61 -9 -75.5 -25t-5.5 -67q0 -44 -1 -55.5 t-10 -2.5q-9 17 -17.5 37.5t-17.5 89.5q-9 34 -4.5 41.5zM212 743q-1 16 8 77q9 164 69 265t173 162q51 26 70.5 56.5t10.5 82.5v57q4 0 11.5 -15.5t15 -37t13.5 -45t6 -40.5q0 -44 -20.5 -65.5t-71.5 -38.5q-44 -27 -95.5 -74.5t-77.5 -98.5q-9 -22 -19.5 -56.5t-19.5 -71 t-14 -71t-5 -55.5q0 -27 -9 -37t-26 -10q-18 0 -19 16z" />
<glyph unicode="7" horiz-adv-x="763" d="M0 1390q0 40 5.5 48t38.5 17h93h167q81 0 125.5 -1.5t69 -5.5t37 -13t29.5 -24q20 -21 31.5 -37t13.5 -37t-6 -49t-28 -72q-90 -228 -147 -378t-81 -198q-21 -42 -42 -92t-39 -95.5t-28.5 -80.5t-10.5 -47q3 -13 -6.5 -50.5t-24 -77t-28.5 -70t-17 -30.5q-9 -5 -30.5 3 t-45 21.5t-43 28t-22.5 23.5q0 8 1 23t10 32q8 16 17 65t26 98q16 73 54 173.5t87 206.5q8 16 23 54t32 87q24 48 45.5 99.5t30.5 84.5q20 48 32.5 78.5t18.5 48.5t6 28t-3 19q-9 8 -52.5 9.5t-132.5 1.5q-62 0 -95.5 0.5t-50.5 3.5t-23.5 9.5t-14.5 19.5q-9 8 -15.5 29.5 t-6.5 46.5zM40 92q3 0 36 -16q40 -25 58 -25t51 25q16 8 26.5 35t27.5 84q16 48 30.5 94.5t23.5 79.5q8 40 36.5 117.5t94.5 208.5q16 40 37.5 97t38.5 98q16 48 36 93t29 70q40 105 67.5 192t19.5 112q0 8 1 20.5t10 12.5q3 0 10.5 -11.5t14.5 -28t12.5 -35.5t5.5 -34 q0 -25 -21.5 -91.5t-59.5 -164.5t-89.5 -221t-111.5 -261q-25 -54 -40.5 -92.5t-25.5 -71.5t-17 -63.5t-15 -66.5q-33 -139 -61.5 -188.5t-68.5 -49.5q-13 -5 -34 0t-42 15t-39.5 23.5t-26.5 26.5q-17 16 -14 16zM47.5 1228q-4.5 4 7 6.5t42.5 3t88 0.5h152 q24 -17 -7.5 -26.5t-112.5 -17.5q-45 -5 -70 -7t-39.5 0.5t-22.5 9t-20 19.5q-13 8 -17.5 12z" />
<glyph unicode="8" horiz-adv-x="738" d="M30.5 505q-0.5 32 2 57t7 48t9.5 51q27 64 56 115.5t66 79.5q9 18 21 29t3 20q0 9 -15 32t-33 41q-92 91 -112 161.5t26 144.5q9 18 29.5 41.5t47 45t54.5 38.5t52 22q36 18 97.5 18t98.5 -18q36 -18 70 -67.5t52 -103.5q4 -24 6 -39.5t1 -30.5t-5.5 -32.5t-13.5 -44.5 q-9 -28 -24.5 -66t-24.5 -56q-9 -28 -23 -46.5t-14 -27.5t15.5 -33.5t33.5 -51.5q22 -37 34.5 -65.5t19.5 -61t11 -74.5t9 -105q4 -87 0.5 -149t-18.5 -105.5t-43.5 -73t-73.5 -51.5q-37 -28 -66 -32.5t-93 -4.5q-65 0 -92 4.5t-54 32.5q-33 18 -54.5 39.5t-34 54 t-17.5 77.5t-5 110q-5 45 -5.5 77zM122 113q3 0 49 -27q45 -28 114 -28t143 28q64 27 103.5 64t67.5 83q9 18 13.5 32.5t7 39.5t3 67.5t0.5 116.5q0 78 -3.5 129.5t-12.5 91.5t-25.5 76t-43.5 82q-15 18 -21.5 28.5t-6.5 22.5t6.5 28t21.5 44q54 91 58.5 166t-22.5 176 q-9 18 -2.5 16.5t15.5 -28.5q27 -28 40.5 -72t13.5 -95.5t-13.5 -106.5t-40.5 -105q-15 -33 -22 -51t-8 -30t3.5 -20.5t13.5 -21.5q45 -65 65.5 -129t20.5 -164q9 -97 8.5 -168t-12.5 -122t-35 -87t-59 -63q-111 -65 -226.5 -65t-188.5 65q-28 27 -25 27zM181 395.5 q14 -90.5 51 -126.5q18 -18 64 -18t83 18q45 27 57.5 80.5t3.5 164.5q0 100 -17 149t-44 95q-18 27 -35.5 25.5t-62.5 -37.5q-37 -37 -57 -71t-29 -88q-28 -101 -14 -191.5zM188 1178.5q2 -14.5 20 -41.5q45 -55 80.5 -80.5t53.5 -16.5q27 18 50.5 65t23.5 93q9 45 1 56.5 t-26 29.5q-18 9 -49 12q-5 0 -27 -10.5t-47.5 -24t-47 -27.5t-25.5 -23q-9 -18 -7 -32.5zM220 453q0 100 13.5 153.5t59.5 90.5q27 36 39.5 39.5t21.5 -14.5t6 -32.5t-30 -41.5q-37 -37 -55 -95t-18 -149q0 -74 -2 -84.5t-11 -1.5q-18 9 -21 39.5t-3 95.5zM220 1186 q9 9 33 30.5t52 30.5q27 9 35.5 9t26.5 -9t18 -29t-18 -20q-9 0 -26.5 -7.5t-35.5 -16.5q-28 -18 -40 -19.5t-21 7.5q-9 0 -16.5 7.5t-7.5 16.5z" />
<glyph unicode="9" horiz-adv-x="710" d="M35 1167q17 104 62 171.5t123 94.5q43 17 80.5 17t81.5 -17q69 -35 119 -120.5t77 -214.5q4 -48 4 -133.5t-3 -178t-9.5 -175.5t-14.5 -125q-44 -165 -138 -262t-232 -131q-61 -9 -76.5 5.5t-15.5 75.5q0 43 11.5 62t46.5 19q25 4 55.5 20t60 40t54 53t38.5 60 q17 34 33 103.5t26.5 138.5t14 121.5t-4.5 52.5q-9 0 -25 -7t-33 -16q-104 -52 -208 0q-78 43 -116 133.5t-11 212.5zM114.5 39q7.5 10 59.5 19q25 0 58 9.5t66 26t64.5 37.5t53.5 43q51 43 89 109.5t73 144.5q8 34 14 62.5t12 63t10.5 81t9.5 116.5q9 181 -3 296.5 t-55 211.5q-9 34 -23 70q4 0 14 -16t23 -40t27.5 -52.5t28.5 -53.5q8 -31 12.5 -53.5t7 -58.5t3 -95.5t0.5 -162.5q0 -96 -0.5 -154t-3 -96t-7 -63.5t-12.5 -55.5q-52 -182 -144.5 -277.5t-248.5 -138.5q-44 -9 -59.5 -9t-32.5 9q-44 17 -36.5 27zM116 786l69 -23 q30 -9 49 -13.5t34 -4.5t30 4.5t37 13.5q43 9 50.5 6t7.5 -29q0 -27 -10.5 -29.5t-70.5 6.5q-44 0 -68.5 3.5t-58.5 30.5q-27 9 -69 35zM185 1098q0 -52 11.5 -85t46.5 -42q52 -32 139 57q12 17 19 27t9.5 21t0.5 26t-6 42q-9 26 -23 50t-23 42q-27 34 -59 36t-59 -19.5 t-44 -62.5t-12 -92zM222.5 1086.5q-0.5 29.5 5.5 59.5t19 55.5t31 34.5q17 9 28 1.5t29 -24.5q0 -9 -1 -17t-10 -17h-23q-9 -9 -22 -46.5t-13 -80.5q0 -44 -8.5 -45.5t-25.5 33.5q-9 17 -9.5 46.5z" />
<glyph unicode=":" horiz-adv-x="299" d="M0 733q0 34 5.5 53t22.5 33q25 22 57.5 11t46.5 -41q9 -17 13.5 -30.5t4.5 -43.5q0 -39 -4.5 -47t-13.5 -17t-19.5 -13.5t-32.5 -4.5q-53 0 -66.5 19t-13.5 81zM11 195q0 34 5.5 53t22.5 33q25 22 57.5 11t46.5 -41q9 -17 13.5 -30.5t4.5 -43.5q0 -39 -4.5 -47t-13.5 -17 t-19.5 -13.5t-32.5 -4.5q-53 0 -66.5 19t-13.5 81zM28 587q-20 29 6 12q16 -5 45.5 -4t52.5 10q25 9 38.5 32t13.5 66q4 25 0.5 42.5t-7.5 31.5q-5 16 -3.5 18.5t10.5 -1.5q9 -5 17.5 -18.5t17.5 -26.5q9 -23 9.5 -36.5t0.5 -43.5q0 -65 -21.5 -90.5t-82.5 -25.5 q-39 0 -63.5 10t-33.5 24zM39 49q-19 29 6 12q16 -5 45.5 -4t52.5 10q25 9 38.5 32t13.5 66q4 25 0.5 42.5t-7.5 31.5q-5 16 -3.5 18.5t10.5 -1.5q9 -5 17.5 -18.5t17.5 -26.5q9 -23 9.5 -36.5t0.5 -43.5q0 -65 -21.5 -90.5t-82.5 -25.5q-39 0 -63.5 10t-33.5 24z" />
<glyph unicode=";" horiz-adv-x="294" d="M-8 725q0 34 5.5 53t22.5 33q25 22 57.5 11t46.5 -41q9 -17 13.5 -30.5t4.5 -43.5q0 -39 -4.5 -47t-13.5 -17t-19.5 -13.5t-32.5 -4.5q-53 0 -66.5 19t-13.5 81zM0.5 -12q-0.5 8 6.5 39q2 11 7.5 33.5t10.5 42.5q4 19 8 40.5t7 33.5l5 22.5t6 25.5q2 9 4 16t5 7 q-1 5 50 6q19 0 35 -1.5t19 -1.5q4 -1 3 -11q0 -5 -7 -42t-20 -92q-30 -119 -33 -136q-7 -26 -10 -35t-7 -9q-5 -2 -32 13.5t-48 33.5q-9 7 -9.5 15zM13 -68q-1 8 3 6q0 -2 8.5 -8t20.5 -13q9 -6 18.5 -12t14.5 -9q32 -7 47 39q19 75 33 142q4 18 9.5 44.5t10.5 46.5 q6 19 10.5 36.5t4.5 20.5q1 10 3 15q4 6 17 -5t16 -22q0 -7 -1 -12t-4 -18t-9.5 -39.5t-18.5 -75.5q-3 -9 -9 -39.5t-15 -61.5q-7 -30 -12.5 -55t-7.5 -30q-3 -6 -12 -13t-18 -5q-6 0 -24 9t-36.5 21t-33.5 23t-15 15zM20 579q-20 29 6 12q16 -5 45.5 -4t52.5 10 q25 9 38.5 32t13.5 66q4 25 0.5 42.5t-7.5 31.5q-5 16 -3.5 18.5t10.5 -1.5q9 -5 17.5 -18.5t17.5 -26.5q9 -23 9.5 -36.5t0.5 -43.5q0 -65 -21.5 -90.5t-82.5 -25.5q-39 0 -63.5 10t-33.5 24z" />
<glyph unicode="&#x3c;" horiz-adv-x="754" d="M7.5 702q1.5 10 11.5 16q18 17 69 49t108 63.5t106 55.5t62 24q4 0 30.5 9.5t58 21.5t59.5 23.5t37 14.5q20 11 33 3t34 -42q9 -24 21 -61q0 -6 -9.5 -16t-24.5 -15q-57 -24 -119 -47t-98 -28q-18 -9 -50.5 -23t-65 -27t-56.5 -23t-26 -12q-6 0 -6 -3.5t6 -3.5 q2 -3 44 -22.5t100 -44.5t119.5 -51t103.5 -43q30 -12 52.5 -22.5t22.5 -15.5q0 -6 -4.5 -26t-9.5 -43q-16 -35 -20.5 -44.5t-13.5 -9.5q-6 2 -28.5 11t-56 24t-75.5 33t-84 39q-57 23 -109 45.5t-108 46.5q-36 14 -56 22.5t-30.5 17.5t-14.5 22.5t-8 37.5q-6 34 -4.5 44z M54 536q-40 34 33 0q15 -6 44.5 -20t50.5 -19q25 -12 55.5 -26t46.5 -19q142 -63 218.5 -94t86.5 -36q15 0 26.5 22.5t27.5 68.5q9 23 21 61q0 5 3.5 2.5t9.5 -2.5q9 -6 11.5 -15.5t2.5 -14.5q0 -9 -5 -31t-11.5 -46t-13.5 -44t-11 -25q-10 -24 -81 9q-16 5 -42.5 15.5 t-46.5 22.5q-26 5 -71.5 27.5t-90.5 40.5q-46 17 -99 40.5t-78 35.5q-30 11 -56 26t-31 21zM263 688q35 11 61 23q60 22 115.5 43t99.5 38.5t73 30t38 18.5q15 11 15 33.5t-15 51.5q-6 17 -20 38q0 11 12 -2t22 -36q9 -12 18.5 -30.5t15.5 -23.5q19 -58 -14 -68 q-41 -24 -107 -51t-137 -50q-41 -18 -72.5 -29t-36.5 -16q-3 0 -14 3t-23 8t-21.5 10.5t-9.5 8.5z" />
<glyph unicode="=" horiz-adv-x="765" d="M3 810q0 22 3.5 34.5t26 18.5t72 8t140.5 5q97 0 179 2.5t100 2.5h28.5h22.5q6 0 12.5 -1t6.5 -4q3 -3 6 -20t6 -38t5 -38.5t2 -20.5q-7 -9 -14 -9q-15 -4 -108 -7t-199.5 -4t-193.5 -1t-90 3q-4 3 -4.5 18.5t-0.5 50.5zM5 485q0 22 3.5 34.5t26 18.5t72 8t140.5 5 q97 0 179 2t100 2h28.5h22.5q6 0 12.5 -0.5t6.5 -3.5q3 -3 6 -20t6 -38t5 -38.5t2 -20.5q-7 -8 -14 -9q-15 -4 -108 -7t-199.5 -4t-193.5 -1t-90 3q-4 3 -4.5 18.5t-0.5 50.5zM14 688.5q-3 5.5 10.5 8.5t48.5 3.5t102 3.5q59 0 107.5 -0.5t93.5 -0.5t88.5 1t92.5 4 q48 3 58 6.5t21 17.5q13 13 15 19.5t-1 31.5q0 18 -2.5 33.5t-2.5 26.5q-4 18 -3 21t8 3q13 -4 25.5 -19t16.5 -33q3 -32 5.5 -71t-0.5 -49q-6 -13 -12 -20t-25 -10.5t-57 -5t-107 -2.5h-80.5h-85.5h-80.5h-65.5h-83.5t-44.5 1t-20 4t-10 9q-9 12 -12 17.5zM16 362.5 q-3 5.5 10.5 8.5t48.5 3.5t102 3.5h107.5h93.5t88.5 1t92.5 4q48 3 58 6.5t21 17.5q13 13 15 19.5t-1 31.5q0 18 -2.5 33.5t-2.5 26.5q-4 18 -3 21t8 3q13 -4 25.5 -19t16.5 -33q3 -32 5 -71.5t-1 -49.5q-6 -13 -12 -20t-24.5 -10t-56.5 -4.5t-107 -2.5h-80.5h-85.5h-80.5 h-65.5q-54 0 -83.5 -0.5t-44.5 0.5t-20 4t-10 9q-9 12 -12 17.5z" />
<glyph unicode="&#x3e;" horiz-adv-x="771" d="M21 482q4 5 32.5 18t68.5 29.5t85.5 34l84.5 32.5q121 40 155.5 59.5t14.5 25.5q-6 5 -36 16t-60 29q-36 17 -71 29t-44 18q-10 5 -31.5 15t-36.5 16q-16 5 -42 15.5t-46 22.5q-57 23 -63.5 32t9.5 44q5 17 10 36t11 25q5 17 12.5 17t48.5 -17q15 -6 46.5 -20t61.5 -25 q30 -12 57.5 -24t37.5 -23q18 -6 55.5 -21.5t79 -32.5t78 -32t51.5 -20q9 -6 22 -12.5t13 -11.5q4 -3 9 -19.5t8 -36t4 -37t-1 -22.5q0 -6 -61 -45.5t-142 -84.5q-21 -12 -64.5 -30.5t-79.5 -29.5q-41 -12 -85.5 -31.5t-69.5 -30.5q-26 -12 -44.5 -17.5t-23.5 -5.5 q-6 2 -16 20.5t-19.5 39.5t-15.5 38t-3 17zM41 819q0 2 3.5 2.5t18.5 -4.5t43.5 -17t76.5 -34q50 -18 99.5 -41.5t70.5 -28.5q15 -12 28.5 -18.5t13.5 -11.5q-6 -6 -22 -0.5t-61 23.5q-36 17 -77 33t-127 51q-36 17 -51.5 25.5t-15.5 20.5zM80.5 329q1.5 3 27.5 15 q15 5 47 15.5t62 22.5q30 17 64.5 29t50.5 18q15 5 50 22t77.5 39t87.5 46.5t78 45.5q40 28 49.5 47t4.5 60q-6 11 -10 25t-4 20q2 9 14 8q7 -6 14 -25.5t12.5 -42.5t7.5 -45t0 -33q-1 -22 -34 -45q-21 -12 -64.5 -37t-90.5 -51t-87.5 -47t-55.5 -26q-57 -18 -119.5 -41 t-92.5 -34q-36 -18 -53.5 -18t-26.5 18q-10 11 -8.5 14z" />
<glyph unicode="?" horiz-adv-x="676" d="M7 1234.5q-4 23.5 23 67.5q17 43 46 70.5t82 45.5q34 12 77.5 12.5t85.5 -10.5t79.5 -32t59.5 -51q30 -44 44.5 -104.5t14 -125t-18 -126.5t-51.5 -110q-31 -53 -48 -84t-26 -58t-12.5 -60t-7.5 -89q0 -53 -1.5 -81.5t-7.5 -41.5t-20 -15t-40 -2q-31 -5 -48 -4.5 t-23 15.5t-5 50.5t6 101.5q0 65 1 104.5t10 72.5t27.5 68.5t54.5 92.5q43 52 55 112t3 121q-9 52 -36.5 72.5t-79.5 20.5q-87 0 -105 -70q-9 -27 -24 -28.5t-58 16.5q-53 26 -57 49.5zM41 1139q-9 17 1 17t46 -17q26 -18 44.5 -11t36.5 34q0 9 11.5 23.5t11.5 23.5 q17 26 52 27t53 -16q17 -18 16 -20.5t-27 -2.5q-27 0 -48.5 -20.5t-21.5 -37.5q0 -27 -10.5 -42.5t-36.5 -15.5q-9 0 -28.5 7t-40.5 16.5t-38 19.5t-21 15zM211 235q0 22 5 31q8 8 25.5 12.5t35.5 4.5t34 -4.5t21 -12.5q8 -5 12.5 -28t4.5 -50t-4.5 -52t-12.5 -33 q-18 -9 -47 -8t-46 19q-9 8 -15.5 29.5t-9.5 45.5t-3 46zM227 370q-9 9 3 16.5t56 7.5q26 0 49 1t32 10l14.5 14.5t11 21t7 41.5t2.5 75q0 56 1 90.5t8.5 61.5t24 55t47.5 72q35 52 58.5 126t23.5 153q0 60 -20.5 121.5t-37.5 88.5q-18 32 0 12q26 -9 50.5 -68t42.5 -119 q17 -105 -9.5 -202t-95.5 -193q-18 -31 -30 -53.5t-18 -47.5t-8 -58.5t-2 -85.5q0 -61 -1.5 -96t-10.5 -44q-5 -9 -33.5 -13.5t-62.5 -4.5t-64 4.5t-38 13.5zM257.5 41.5q1.5 3.5 28.5 3.5q52 9 82.5 51t21.5 112q0 43 3 47t21 -13q9 -18 10 -39.5t1 -64.5q0 -44 -3 -61.5 t-20 -43.5q-36 -27 -64.5 -28.5t-63.5 16.5q-18 17 -16.5 20.5z" />
<glyph unicode="@" horiz-adv-x="904" d="M-2.5 656q0.5 75 11.5 138q15 66 46 131.5t73 122.5t94.5 103.5t112.5 74.5q87 47 169.5 30.5t146.5 -94.5q19 -28 33 -51.5t25 -48t19.5 -53.5t17.5 -68q47 -183 28 -323.5t-90 -203.5q-62 -63 -138 -31q-24 15 -33.5 13.5t-40.5 -24.5q-87 -48 -160.5 -39t-112.5 81 q-24 51 -17 142t35 186t73 175t97 108q23 15 68.5 15t69.5 -15q27 -12 43.5 -35t23 -68t5.5 -119.5t-8 -188.5q0 -48 1 -81.5t9 -33.5q7 -8 25.5 10t26.5 42q15 39 19.5 100t-1.5 127t-21 129.5t-38 107.5q-24 63 -61.5 96t-76.5 41q-48 7 -105.5 -26.5t-111 -90.5 t-95 -129.5t-56.5 -142.5q-4 -36 -4 -85.5t3.5 -100.5t11.5 -100t20 -84q19 -63 37.5 -101t47 -58t73 -25.5t116.5 -5.5q43 0 66.5 -1.5t34.5 -6.5t13 -15.5t2 -29.5q0 -32 -9.5 -38.5t-64.5 -13.5h-66.5h-49.5q-95 15 -162 52t-90 85q-28 54 -47.5 125t-29 146t-9 150z M147 576v90v73.5t3.5 46.5t12.5 39t25 52q31 63 86 126t103 95q39 15 81.5 15t66.5 -15q15 -16 9.5 -18.5t-52.5 -2.5q-32 7 -56 2t-39 -12q-40 -20 -78 -65t-70.5 -107.5t-56.5 -137.5t-35 -153q0 -39 0 -28zM147.5 113q3.5 0 51.5 -15q19 -9 36.5 -15t39 -9.5t51 -5 t73.5 -1.5q47 -4 72.5 -6t39.5 -1.5t20 4.5t15 13q15 15 18.5 31t3.5 32q0 23 11 41q15 0 23 -17t8 -56q0 -33 -3 -51.5t-18 -27.5t-47.5 -9t-90.5 4q-111 0 -177.5 17.5t-105.5 56.5q-24 15 -20.5 15zM181.5 367q1.5 0 17.5 -15q3 -4 11 -18t16 -29t12.5 -27t1.5 -12 q-8 0 -26.5 31t-25.5 55q-8 15 -6.5 15zM261 298q-33 13 12 11q47 -24 104 -12.5t105 43.5q15 7 26.5 13t27.5 -1q55 -32 118.5 -5.5t102.5 98.5q39 63 49.5 131.5t3.5 186.5q0 110 -21.5 186.5t-52.5 148.5q-24 47 -25 51.5t15 -18.5q31 -36 56 -90t41.5 -118.5t24 -135.5 t4.5 -141q0 -111 -17.5 -174t-56.5 -110q-94 -95 -189 -64q-16 7 -35 4.5t-50 -25.5q-72 -32 -142 -25t-101 46zM280 508q0 -40 24 -63q23 -16 60.5 -5t76.5 59q15 15 23.5 26.5t12 32.5t4.5 58t1 104q7 102 2 147t-12 53q-8 15 -24 12.5t-39 -33.5q-32 -39 -61 -108 t-44 -156q-24 -87 -24 -127zM325 519q-4 27 4.5 77.5t24 104t36 100t40.5 66.5q7 11 11 1.5t4 -29.5t-4 -44.5t-11 -43.5q-9 -12 -20 -44t-22 -71t-20 -76.5t-12 -60.5q0 -32 -15.5 -22t-15.5 42zM631 625q0 -13 0 21v12t0 -2v-31z" />
<glyph unicode="A" horiz-adv-x="809" d="M8 168q-2 6 -2 14q0 17 6 46q4 21 5 41t1 29t3.5 29t8.5 42q4 26 11 57.5t12 58.5q13 87 28 144t37 119q4 21 10.5 40.5t6.5 24.5q-1 10 6 29q9 26 26.5 86.5t31.5 117.5q8 43 17.5 89.5t18.5 90t16.5 81t12.5 61.5q4 35 20 51t56 25q21 5 39 5q16 0 30 -4q30 -8 30 -25 q0 -5 0.5 -16.5t5.5 -24.5q12 -47 26 -108t26 -126t23 -129t18 -116q18 -139 53 -286q4 -14 8 -37.5t9 -44.5q9 -22 14 -48t10 -39q4 -16 8 -45.5t7.5 -60.5t7 -59t6.5 -40q0 -9 0.5 -23.5t5.5 -23.5q4 -22 -5.5 -41.5t-35.5 -28.5q-31 -16 -48 -24t-26 -9.5t-14 3t-11 13.5 q-14 13 -20.5 49t-15.5 120q-5 35 -12 75.5t-11 58.5q-5 17 -9 43.5t-8 44.5q-5 21 -9.5 41t-8.5 29q-5 13 -8 24.5t2 16.5q0 4 -14 5t-62 1q-31 0 -57 3t-30 3q-7 2 -11.5 1t-9 -13t-10.5 -37.5t-16 -73.5q0 -9 -3 -25t-3 -33l-15 -81t-14 -106q-9 -40 -14.5 -62.5 t-14.5 -31.5q-5 -5 -22.5 -9t-38 -6.5t-38.5 -1.5t-24 6q-18 5 -22 21zM28 98q6 3 49 8q48 0 70.5 7t40.5 34q13 13 15 22t2 18t3.5 31.5t8.5 44.5q4 21 8 52.5t9 53.5q9 43 17.5 92t17.5 89q4 21 12.5 25t52.5 4q43 0 51 -4.5t13 -13.5q4 -22 -0.5 -25.5t-34.5 -3.5 q-18 0 -27 -1.5t-15 -11t-10 -32.5t-12 -66q-5 -18 -9.5 -43.5t-8.5 -38.5q0 -14 -4 -36.5t-8 -39.5q-7 -57 -13.5 -93t-15 -57t-19.5 -31.5t-28 -16.5q-27 -9 -68 -13t-54 1q-5 4 -15.5 12t-19.5 17q-10 9 -10 14q0 1 2 2zM286 798q4 -4 30 -9q13 0 28.5 -2.5t24.5 2.5 q13 0 15 4t2 31q0 13 -3 40t-3 54q-5 21 -9 59t-8 69q0 26 -3 46t-3 25q-5 4 -13.5 -25t-21.5 -98q-12 -42 -18 -69t-9 -45t-4.5 -31t-3.5 -25q-3 -13 -3 -20q1 -4 2 -6zM328 842q0 4 3 15.5t3 25.5q4 21 5 22.5t6 -11.5v-40q2 -34 -5 -24q-10 2 -12 12zM480 1403v29 q8 -13 17 -17q9 -9 18 -36t23 -75q30 -141 53.5 -261t28.5 -172q2 -22 7 -56.5t11 -72.5t14 -75t15 -65q4 -14 8 -32.5t9 -31.5q4 -14 8.5 -36.5t9.5 -39.5q4 -18 8 -41.5t9 -40.5q4 -21 10 -65t11 -89.5t8 -82.5q2 -22 2 -33q0 -7 -1 -10q-9 -31 -34.5 -51t-82.5 -37 q-23 -8 -38 -8h-5q-16 2 -33 20q-18 13 -19 23t13 6q4 0 22 6.5t36 11.5q86 28 94 81q0 8 -4 50.5t-9 93t-9.5 95.5t-6.5 59q-5 4 -9.5 22.5t-8.5 36.5q-5 21 -9 41.5t-8 34.5q-9 26 -20.5 80.5t-20.5 94.5q-5 17 -9.5 51.5t-8.5 65.5q-14 92 -26.5 175.5t-25.5 145.5 q-5 13 -9.5 38.5t-8.5 43.5q-5 17 -9.5 39t-8.5 31q-5 13 -8 28.5t-3 24.5z" />
<glyph unicode="B" horiz-adv-x="840" d="M4 1158q-1 81 -1 126q0 56 2 62q8 20 17.5 36.5t26.5 28.5q20 20 41 30t62 14h66h91q36 0 59 -1.5t38.5 -4t27.5 -5.5t27 -6q22 -9 35.5 -14.5t23.5 -11.5t19.5 -13.5t24.5 -19.5q28 -29 35.5 -40.5t19.5 -35.5q32 -63 32 -142q0 -46 -10 -97t-22 -71q-7 -15 -6 -22 q0 -4 -6.5 -12t-9.5 -20q-4 -9 -11.5 -22.5t-10.5 -21.5q-9 -9 -16 -21q-4 0 -6.5 -7.5t1.5 -19.5q0 -12 2 -18.5t14 -14.5q8 -12 22.5 -28t31.5 -32q3 0 10.5 -13.5t16.5 -29.5q20 -39 32 -91q11 -52 15 -104q2 -23 2 -45q0 -28 -2 -55q-4 -48 -19 -80q-4 -9 -11 -22 q1 -3 -4 -13t-13.5 -22t-17 -23.5t-14.5 -17.5l-34 -25.5t-42 -28.5q-13 -9 -33 -18.5t-39 -17.5t-34.5 -13t-18.5 -5q-21 -8 -33 -11q-37 -12 -97.5 -22.5t-113.5 -10.5q-25 1 -39 2.5t-23 5t-16.5 10.5t-19.5 20q-25 20 -33 34.5t-11 31.5q-5 12 -10.5 190t-10.5 389 t-7 389zM89 61q0 1 9 -2q6 -5 25.5 -7t46.5 -2t55.5 2t51.5 7q20 1 47.5 5.5t53.5 10.5t45 11.5t22 10.5l11 6q3 0 16.5 3.5t28.5 9.5t27 11t15 8q0 3 6 8t15 9q36 20 71 54.5t60 75.5q8 12 22 38q0 3 0.5 10.5t4.5 11.5q12 20 16 68q2 26 1 54q0 24 -1 51q-4 53 -13 97 t-25 77q-17 40 -23 53.5t-9 22.5q-16 15 0 6q12 -12 38 -49.5t38 -65.5q24 -49 32 -100q6 -38 6 -90v-38q0 -57 -1.5 -81.5t-9.5 -48.5q-41 -137 -190 -217q-78 -37 -149.5 -55t-176.5 -21q-35 -2 -57 -2q-17 0 -27 1q-23 3 -35 12q-16 16 -17 16q-7 0 -21 16q-9 12 -9 13z M174 1199q0 -12 -1 -23q0 -48 2 -100q2 -65 6 -118.5t9 -56.5q1 -3 20.5 -1t44 5t49.5 8t38 10q73 24 104.5 77t31.5 151q0 57 -10.5 79.5t-38.5 39.5q-17 12 -36 14t-84 2q-43 0 -68.5 -0.5t-38.5 -2t-17.5 -4.5t-5.5 -9q-5 -13 -5 -71zM187 639.5q0 -43.5 3 -124.5v-119 v-65.5t1 -30t4 -13.5q11 -17 27 -21q8 -2 20 -2t29 2q22 3 52 12t57 19t46 19.5t19 14.5q-1 0 5 0q3 0 13 8.5t21.5 21t21.5 26.5t15 25q8 15 10 42t-1 57t-9.5 60t-15.5 53q-12 36 -45 53t-102 34q-21 3 -52.5 9.5t-55.5 6.5q-25 1 -38 -1.5t-19 -22.5t-6 -63.5zM209 1186 q0 32 6.5 47t22 18t44.5 3q81 0 116.5 -12.5t35.5 -36.5q0 -4 -2 -7t-14 1q-37 3 -59 6t-50 0q-19 -3 -29 -6.5t-14.5 -16t-5 -39t-0.5 -74.5t-0.5 -73.5t-2.5 -37.5t-6 -15t-12 -4q-9 0 -15.5 -2t-6.5 2q-5 91 -5 157q-3 58 -3 90zM224 610v24q0 22 1 34q1 18 4.5 20t9.5 1 q8 0 22.5 -2.5t31.5 -2.5q12 0 39 -7t48 -10q32 -9 48 -16.5t28 -15.5q16 -17 12.5 -24t-23.5 2q-6 3 -28.5 8.5t-48.5 11t-49 9.5t-31 4q-17 0 -19 -6.5t2 -42.5q0 -17 3 -66.5t3 -102.5q0 -45 -0.5 -69.5t-3 -36.5t-6.5 -14.5t-12 -3.5q-9 0 -15 -2q-2 -1 -4 -1q-3 0 -3 3 q-5 113 -5 195q-4 71 -4 111zM592 857q3 3 13 20.5t20 38.5t18 38.5t8 22.5q1 9 11 27q8 16 15 65.5t7 86.5q0 53 -9 100.5t-29 84.5q-7 12 -4.5 12t15.5 -12q35 -34 60 -109q6 -13 9 -23t4.5 -23t2 -32.5t0.5 -51.5q0 -61 -2 -82t-14 -49q-4 -21 -11.5 -41.5t-10.5 -23.5 q-12 -29 -24 -50t-20 -37q-11 -16 -16 -16h-1q-5 1 -21 22q-23 18 -23 27q0 3 2 5z" />
<glyph unicode="C" horiz-adv-x="840" d="M4 791.5q0 57.5 3 112.5t10 88q4 24 7.5 39t7 28.5t8.5 28.5t12 37q9 21 13 33.5t22 47.5q17 34 37 64.5t38 57.5q8 10 23.5 25t31.5 28.5t30 23.5t19 10q4 0 15 0.5t20 5.5q26 4 81 11t116 12q21 4 40 5t24 1q3 1 7 1q9 1 19 -7q14 -10 14 -23q0 -22 -14 -56t-26 -43 q-9 -9 -21.5 -10t-42.5 -1q-60 0 -127 -18q-18 -5 -47 -29.5t-46 -45.5q-13 -13 -29 -35q1 -10 -6 -11q-13 -22 -35.5 -84t-34.5 -131q-7 -27 -10 -73.5t-3 -96.5t3 -94.5t10 -65.5q12 -61 21 -88.5t14 -39.5q8 -19 6 -29q0 -3 6.5 -16.5t15.5 -31.5t19 -37t17 -31 q4 -9 18.5 -24.5t27.5 -27.5q30 -35 52 -46t53 -6q26 0 64.5 7t51.5 16q12 9 43 7.5t49 -13.5q17 -9 24 -17q7 -9 23 -18l17 -17q2 -9 -1 -17t-15.5 -17.5t-39 -23.5t-71.5 -35q-36 -16 -60.5 -25t-45.5 -12t-42.5 1t-48.5 13q-61 12 -92 29t-65 52q-70 69 -118.5 172 t-78.5 251q-7 27 -10 79t-3 109.5zM196 737q-1 15 -1 31q0 57 7 125q17 143 65.5 238t114.5 122q21 9 40.5 10t58.5 1q26 0 40.5 0.5t23.5 3t15.5 6t18.5 8.5q17 12 28 30.5t24 79.5q4 12 8.5 23.5t9.5 11.5q4 0 8 -7t9 -11q12 -18 14 -36t-2 -39q-5 -9 -9.5 -20.5 t-8.5 -20.5q-9 -44 -35 -57.5t-86 -17.5q-48 0 -85 -5.5t-54 -17.5q-13 -9 -40 -39.5t-36 -47.5q-9 -13 -18.5 -41t-21.5 -58q-18 -48 -28.5 -112.5t-13.5 -130.5q-1 -23 -1 -46q-1 -42 3 -82q6 -62 22 -104q15 -51 26 -84t20.5 -56t19 -38.5t21.5 -30.5q19 -33 -6 -6 q-39 39 -74.5 111.5t-52.5 155.5q-22 82 -24 151zM247 102q3 0 25 -9q48 -27 79.5 -33.5t88.5 -6.5q34 0 53 1t28 10q12 6 39 18.5t54.5 25l49.5 22.5t25 10q15 8 24 17q17 18 17 52q-4 9 0 9t17 -9t23 -25q8 -12 7 -24q0 -5 -1 -9q0 -13 -12.5 -31t-33.5 -27 q-35 -18 -87.5 -41t-86.5 -40q-22 -9 -67 -9t-84 9t-78.5 29t-48.5 29q-2 10 -12 12q-13 6 -17 11q-3 6 -3 8q0 1 1 1z" />
<glyph unicode="D" horiz-adv-x="851" d="M2 1120v35q0 100 3 151q3 60 10.5 76t22.5 35q12 12 20 17.5t29 9.5q28 8 50 8t79 -8q84 -9 163 -34.5t128 -57.5q138 -88 178 -274q16 -53 21.5 -111.5t5.5 -147.5q0 -65 -3.5 -115t-11.5 -92t-20 -79t-30 -75q-9 -34 -11 -43h-5q-9 0 -11 -16q-3 -5 -13.5 -21t-23 -34 t-24 -32.5t-14.5 -15.5q-4 0 -6 -4t-5 -7q0 -4 -28.5 -31.5t-52.5 -43.5q-37 -21 -90.5 -47.5t-97.5 -38.5q-65 -17 -107 -25t-50 -8q-9 3 -30.5 20t-33.5 29q-11 12 -17 23.5t-9 66t-6 175t-6 349.5q-4 240 -4 366zM57 75q0 2 8 0q20 -17 38.5 -21t42.5 5q18 1 46.5 8 t58.5 16t56 17t38 13q69 28 114 58t86 71q40 40 75 95t76 132q3 8 13 38.5t19 63.5q6 27 10 77q4 48 6 106q2 41 2 84v34q-1 60 -7 109q-4 52 -9.5 78t-17.5 67q-9 16 -16 34t-27 63q0 3 -4 13t-12 14q-12 24 -0.5 12.5t32.5 -39.5q56 -81 79 -187t23 -271 q0 -122 -13 -205.5t-41 -155.5q-6 -12 -18.5 -32.5t-25.5 -41.5t-24.5 -39.5t-17.5 -26.5q-4 -4 -11.5 -14t-15.5 -18q-53 -69 -128 -113t-184 -76q-55 -17 -89 -25q-29 -7 -50 -7q-4 1 -8 1q-24 2 -42.5 13t-42.5 34q-19 13 -19 16zM152 1180q0 -50 1 -145.5t4 -258.5 q1 -158 3 -253t4 -146.5t4 -70t5 -21.5q8 -12 19 -12t40 12q24 3 42 12t55 26q16 8 34.5 19.5t30.5 23.5q6 3 18 17.5t24.5 30t22.5 28.5t10 16t3 5t3 6q3 0 10.5 10.5t14.5 24.5t12.5 27t5.5 18q0 3 3.5 10.5t7.5 11.5q3 3 7.5 24.5t8.5 45.5q6 30 9 79t3 102.5t-2 102 t-5 77.5q-12 44 -28.5 86.5t-36.5 75.5q-29 36 -95 70t-142 43q-17 3 -43 11q-4 1 -8 1q-7 -1 -15 -5q-12 -6 -20 -18q-5 -5 -7.5 -20.5t-2.5 -65.5zM190 1051v36q0 67 2 103q2 44 7.5 52t16.5 8q8 0 22.5 -4t26.5 -7q12 -4 22.5 -4.5t14.5 -0.5q8 -3 26 -11t39 -18.5 t40 -21.5t30 -19q8 -9 16 -22q-20 7 -32 16q-17 8 -43 17q-4 0 -15 3t-23 7q-12 3 -32.5 8t-32.5 9q-15 0 -23 -7t-11 -49t-3 -131.5v-254.5q2 -166 2 -254v-41q0 -58 -2 -89q-2 -42 -5.5 -49.5t-11.5 -8.5h-21q-3 73 -4 136t-1.5 147t-0.5 180q-4 175 -4 270z" />
<glyph unicode="E" horiz-adv-x="686" d="M1 1315.5q0 24.5 2.5 34t7.5 20.5q8 8 12.5 14.5t8.5 6.5q6 7 6 11q0 3 10 13t22 19q12 7 21.5 11t30.5 6.5t61.5 3t115.5 0.5q79 0 122.5 -1t64.5 -4.5t26.5 -11t10.5 -20.5q3 -9 6.5 -24t3.5 -30q3 -28 2.5 -34.5t-12.5 -18.5q-5 -6 -10 -9.5t-21.5 -5t-50 -1.5h-94.5 q-60 -3 -93 -4t-49 -2.5t-21 -4t-8 -5.5q-4 -12 -4.5 -32.5t-0.5 -95.5q0 -42 1.5 -65t12 -33.5t33.5 -12t65 -1.5q51 0 78 -1.5t39 -10t12 -25.5t-1 -48q0 -36 -1.5 -48.5t-9.5 -15.5q-9 -9 -36.5 -11t-107.5 -5q-35 -3 -53.5 -5t-26.5 -8t-8 -19t3 -37q1 -29 2 -87t1 -125 t-1 -132.5t-2 -108.5q0 -60 2 -71.5t14 -19.5q8 -9 12.5 -10t13.5 -1q3 0 52.5 3t113.5 3q72 1 109 1.5t52 -5.5t15.5 -21t-0.5 -45v-42v-21q-6 -9 -24.5 -14.5t-56 -8.5t-98.5 -5.5t-152 -3.5h-78t-42 2t-23 6t-17 13q-25 22 -42 53q-6 12 -9.5 21.5t-4.5 31t-0.5 63.5 t3.5 119q1 42 2 88.5t1 91.5t-1 84t-2 66q0 25 -1.5 68t-2 94t-1 105.5t-0.5 105.5q-3 90 -4 139t-1 73.5zM64 69q13 -7 22 -10q21 -9 94 -10q44 0 108 4q27 3 71.5 7t77.5 4q75 3 98.5 6t35.5 15q15 15 22 41q5 18 5 43q0 11 -1 23q0 20 0.5 36.5t4.5 16.5q0 -4 14 -19.5 t18 -23.5q3 -4 4.5 -23.5t1.5 -39.5q0 -48 -6 -70t-26 -37q-9 -5 -16 -7.5t-21.5 -4t-40.5 -2.5t-71 -2q-52 0 -91.5 -2.5t-42.5 -2.5q-4 0 -31 -3t-59 -3q-43 -4 -62 -4q-2 1 -4 1q-18 0 -30 9q-4 3 -11.5 6.5t-10.5 3.5q-4 0 -8.5 1t-7.5 10q-7 10 -15 11q-4 0 -15 13 q-8 10 -8 12q0 1 1 1zM203 1162q0 33 2 52t15.5 28t43 11t83.5 5h92t55.5 2t30.5 6t19 13q20 15 25 33.5t2 51.5q-4 15 -5 32.5t-1 21.5q0 8 1 9t5 1q24 -12 33 -44.5t9 -83.5q2 -20 2 -31q0 -7 -1 -10q-2 -8 -17 -23q-9 -9 -15.5 -13t-24.5 -7t-51.5 -4t-94.5 -2 q-60 0 -92.5 -2t-47.5 -8.5t-17.5 -20.5t-2.5 -39q-4 -48 -7.5 -57t-19.5 -12q-16 0 -18.5 11t-2.5 80zM213 337.5v85.5v137v157t0.5 81t3 31t7.5 8q8 0 35.5 2.5t60.5 2.5q56 3 71.5 5t24.5 11q24 20 28 36.5t4 64.5q3 44 6 52q1 3 4 3q4 0 11 -7q15 -16 23.5 -36.5 t8.5 -59.5q0 -69 -23 -93t-83 -24h-43.5h-47.5q-18 -3 -28 -7.5t-14.5 -28.5t-5 -73.5t-0.5 -140.5q2 -94 2 -146v-24q0 -33 -2 -51q-2 -24 -5.5 -29t-10.5 -6q-4 0 -11 -3t-10 -3t-4.5 12t-1.5 43.5z" />
<glyph unicode="F" horiz-adv-x="637" d="M0 144q0 17 2.5 51t6.5 74.5t9.5 82t10.5 74.5q6 51 12 169t9 250q4 133 5 251v44q0 84 -3 126q-2 27 -2 47q0 24 3 38q6 25 28 47q21 21 62 35t110 23h19.5h15.5q9 0 41.5 -4t67.5 -8q40 -3 62 -5.5t32.5 -10t12.5 -22.5t2 -42q4 -22 2 -41t-2 -23q-6 -25 -47 -25 q-12 0 -28 2q-22 2 -57.5 4t-69 3t-58.5 1t-27 -2q-5 -5 -5 -11.5t5 -23.5q0 -13 2.5 -49t2.5 -83q0 -61 0.5 -79.5t5.5 -18.5q90 12 148 13q8 0 16 1q45 0 60 -8q12 -9 15 -24t3 -62q0 -35 -1.5 -44.5t-10.5 -18.5q-7 -5 -12 -7.5t-17 -4.5t-34.5 -3t-62.5 -3 q-44 0 -77.5 -3.5t-37.5 -7.5q-8 -90 -12 -150q0 -57 -1.5 -102t-4.5 -84t-7 -76t-10 -77q-5 -27 -8 -61t-3 -60q-3 -54 -6.5 -84.5t-12.5 -45t-26 -17t-47 -2.5q-35 0 -46 1t-23 10q-9 9 -10.5 14t-1.5 32zM17 41q0 4 15 5t37 1q17 -2 32 -2q25 -1 43 5q28 8 40 31 q9 17 13.5 37.5t9.5 89.5q4 43 9 98.5t14 90.5q4 34 8 97.5t4 115.5q4 73 6 113.5t5 60.5t6.5 25t10.5 8q4 0 33.5 3t64.5 3q69 4 91.5 10t35.5 24q9 12 10 27.5t1 59.5q0 26 6 69q4 0 14.5 -12t19.5 -29q9 -9 13.5 -22t4.5 -52q0 -52 -10 -72.5t-36 -37.5q-13 -9 -27.5 -13 t-70.5 -4h-59.5h-38.5q-13 -5 -16 -11.5t-7 -40.5q0 -18 -3.5 -68.5t-7.5 -97.5q0 -52 -4 -109t-8 -87q-13 -113 -18 -173t-5 -86q0 -30 -9.5 -49.5t-30.5 -36.5q-18 -9 -30.5 -10t-55.5 -1q-44 0 -54 2t-27 15q-13 9 -29 23zM259 1133v54.5v37.5q-2 5 -2 9q1 8 9 10 q4 1 18 1q22 0 67 -2q47 -3 75.5 -4t45 -1t25 2.5t15.5 7.5q21 12 25 32t4 72q0 30 5 63q9 0 20.5 -11t20.5 -23q4 -13 4.5 -30t0.5 -51q0 -52 -8 -72t-38 -37q-18 -9 -29.5 -9t-67.5 9q-35 4 -69 7.5t-46 3.5q-22 -5 -25.5 -13.5t-3.5 -55.5q4 -52 0.5 -60.5t-29.5 -8.5 q-3 -2 -6 -2q-4 0 -5 6q-2 8 -6 65z" />
<glyph unicode="G" horiz-adv-x="894" d="M11 780q2 102 11 192.5t26 141.5q3 12 11 32q-1 10 6 27q3 3 4 10.5t1 11.5q3 8 20 41t34 62q48 72 125.5 104.5t215.5 41.5q54 3 86 4q10 1 18 1q19 0 31 -3q17 -3 22 -12.5t5 -27.5q0 -33 -7.5 -62t-19.5 -41q-6 -5 -12 -7.5t-17 -4t-30.5 -2.5t-53.5 -2 q-110 -9 -154 -24.5t-68 -51.5q-29 -45 -44.5 -82.5t-31.5 -106.5q-3 -17 -5.5 -56t-5.5 -85.5t-4 -93.5t-1 -79q0 -31 1 -73.5t4 -82t5.5 -70.5t5.5 -39q3 -4 7 -14t4 -13q0 -6 5 -21t11.5 -31.5t14 -30.5t12.5 -20q41 -47 189 -54q38 -3 56 -3h10q14 2 26 14 q16 12 24 27.5t20 64.5q3 16 6.5 34.5t3.5 30.5q3 12 8 29.5t9 29.5q0 12 2.5 50.5t2.5 79.5q0 50 -1.5 75.5t-12.5 36.5t-36.5 12t-73.5 1q-39 -3 -60.5 -4t-32 -1t-14.5 2.5t-7 7.5q-12 12 -13 25.5t8 50.5q3 32 9 46.5t18 23.5q12 8 71.5 12t128.5 4q16 1 30 1 q37 0 56 -6q25 -8 49 -32q12 -12 18.5 -23.5t10 -26.5t6.5 -38t8 -59q1 -19 1 -38q0 -74 -9 -148q-12 -93 -40 -219q-29 -114 -46 -154t-41 -52q-21 -9 -55 -14.5t-72 -8.5q-24 -2 -47 -2q-15 0 -30 1q-38 2 -66 8q-17 3 -34.5 7t-25.5 4q-21 3 -54 13t-49 19 q-24 12 -50.5 37.5t-46.5 54.5q-9 16 -16.5 33t-10.5 21v11q-9 3 -19.5 42.5t-18.5 76.5q-12 66 -18 164q-4 72 -4 146q0 27 1 54zM157 119q1 -1 27 -17q34 -17 81.5 -28.5t98.5 -17.5t103 -6t95 9q42 6 68 14.5t44 29t31 56t30 95.5q12 48 18 78t15 63q3 16 7 34t4 30 q12 60 18 131q3 30 3 60q0 41 -5 80q0 44 -4 71.5t-7 36.5q-4 3 -5 16q0 8 15.5 -13t27.5 -41q12 -17 15 -36t7 -88q1 -25 1 -49q0 -65 -6 -129q-8 -87 -28 -168q-4 -17 -8.5 -38.5t-7.5 -37.5q-24 -98 -42.5 -144t-38.5 -62q-4 -4 -17 -16q-19 -2 -27 -5q-17 -9 -69.5 -18 t-92.5 -9q-53 3 -127 15t-122 33q-15 3 -33 13t-33 21.5t-25.5 21.5t-10.5 15zM208 693v42q0 56 3 111q4 75 13.5 138.5t24.5 102.5q12 40 19 56.5t24 40.5q16 24 26.5 29.5t27.5 14.5q15 3 40.5 7t53.5 7.5t55 6.5t46 6q57 0 79 19.5t34 72.5q3 16 4.5 34t1.5 30q0 16 8 18 h1q8 0 23 -18q12 -12 14 -23.5t2 -51.5q-6 -74 -38 -108q-11 -9 -18 -13.5t-17 -7.5t-26.5 -4.5t-46.5 -2.5q-25 0 -54.5 -3t-56.5 -7t-47 -9t-26 -8q-12 -9 -27 -26.5t-27 -37.5q-12 -17 -29 -71.5t-25 -102.5q-5 -19 -7.5 -37t-3 -45t-0.5 -69v-108q0 -84 1 -136t4 -86 t8 -56.5t14 -46.5q9 -29 4 -29q-4 0 -14 13q-17 20 -21 28t-12 32q-6 20 -10.5 34.5t-7.5 30t-5.5 35.5t-3.5 51q-6 69 -8 147zM372 694q9 5 87 9h65h33q5 -8 5 -11q0 -9 2 -24v-9q0 -8 -2 -10q-54 -3 -82 -4h-21q-14 0 -23 1q-15 1 -21.5 5.5t-14.5 13.5q-30 19 -30 26 q0 2 2 3z" />
<glyph unicode="H" horiz-adv-x="700" d="M0 1155q0 93 8 164t23 80q7 3 17 3h8q16 -2 50 -16q23 -5 35 -13.5t21 -17.5q9 -15 9 -26.5t-9 -48.5q-3 -19 -5 -58q-3 -39 -3 -78v-19q0 -28 2 -50q2 -30 6 -32q51 1 84 3t65.5 4t44.5 5q6 2 10 5t6.5 18t4 45.5t4.5 87.5v105.5t6 51.5t22 16.5t47 1.5q32 2 48 3.5 t22 -43.5q6 -42 6 -141v-17q0 -112 -1 -339q0 -167 0.5 -273t2.5 -172t4 -103t5 -64q4 -36 6 -55.5t1 -30t-5.5 -15.5t-13.5 -11q-15 -15 -44 -26.5t-56 -11.5q-9 0 -21.5 10t-16.5 15q0 4 -1 16.5t-5 27.5q0 18 -3 123t-3 264q-3 131 -4.5 202t-4.5 104t-8 38.5t-14 5.5 t-41 -4.5t-59 -8.5q-29 -5 -44.5 -13t-23.5 -42t-10 -105t-4 -202q0 -134 -0.5 -206.5t-1.5 -107t-3.5 -42.5t-6.5 -12q-9 -9 -20.5 -14t-48.5 -5q-42 0 -56.5 6.5t-18.5 30.5q0 4 -2 135t-4.5 299t-4 328.5t-1.5 224.5zM37 87q0 4 16.5 5.5t40.5 1.5q37 0 49.5 1.5 t31.5 16.5q9 4 17 16.5t8 21.5q4 14 5.5 96t6.5 260v190.5t2.5 99t7.5 38t15 9.5q9 0 28.5 3t34.5 3q27 0 32 -2.5t5 -16.5v-25q-26 -8 -44 -12q-17 -3 -26 -9.5t-13 -38t-4 -99v-190.5q0 -150 -1.5 -246t-5.5 -110q0 -9 -7 -19t-11 -19q-9 -9 -23 -10.5t-65 -1.5 q-52 0 -62.5 2t-24.5 17q-5 4 -13 18zM193 1099q0 9 1 43t6 76q0 37 3 70t3 42v19q9 0 23 -15t14 -29q2 -8 2 -42t-1 -73t-3 -70.5t-4 -33.5q-5 0 -10.5 -3t-14.5 -3t-12 2t-7 17zM418 37q0 4 2 6t11 7q4 0 19 1.5t24 10.5q14 4 26.5 8.5t17.5 4.5q4 0 16.5 3.5t21.5 8.5 q18 18 26 45q4 13 4 30q0 19 -5 44q0 11 -1.5 64t-3 135t-2 187t-0.5 220v320.5t1 163.5t4 59q2 6 6 6h2q13 -10 20 -23t10 -66t3.5 -165t3.5 -320v-209.5v-182.5v-136.5v-71.5q4 -38 4 -67.5t-4 -38.5q-5 -28 -40 -49.5t-91 -25.5q-9 -2 -17 -2q-14 0 -28 6q-21 8 -30 27z " />
<glyph unicode="I" horiz-adv-x="346" d="M4 234q0 22 -1 47q0 50 1 110q1 90 4 184.5t6 159.5q5 61 11 190.5t17 372.5q5 51 14 137q0 5 7 9.5t13 10.5h23h39q25 0 38 -1.5t24 -11.5q5 -6 7.5 -10.5t3 -15.5t-0.5 -32t-3 -59q0 -24 -1.5 -58.5t-4 -73.5t-4.5 -79.5t-4 -76.5q0 -78 -3.5 -149t-3.5 -91 q-3 -11 -6 -40t-5 -70.5t-2.5 -91t-0.5 -100.5q-6 -93 -10.5 -155t-10 -103.5t-12 -67t-15.5 -45.5q-11 -21 -28.5 -28.5t-35.5 -2t-33 21.5t-20 43q-3 9 -3 76zM62 55q9 -1 17 -1q30 0 53 17q29 22 40 74q9 36 14.5 63.5t8.5 57t4 65.5t1 88q0 56 3.5 132.5t9.5 128.5 q7 79 12.5 147.5t8.5 134.5t5 132.5t2 141.5q2 82 4 125q1 43 5 58q2 11 8 11q2 0 4 -2q8 -6 20 -21q2 -6 4 -13t3.5 -25t1.5 -51t-2 -89q0 -150 -9 -303.5t-19 -266.5q-6 -42 -9.5 -117.5t-3.5 -136.5q0 -211 -27 -308t-83 -97q-26 5 -51 15.5t-45 26.5q-9 12 -9 15.5 t29 -2.5z" />
<glyph unicode="J" horiz-adv-x="582" d="M0 182q5 40 7.5 52t12.5 22q5 5 13 12.5t14 7.5q25 0 66.5 12.5t67.5 27.5q15 9 28 23t19 24q17 30 28 97t16 162q4 79 4 174v38q-1 117 -8 246q-6 80 -9.5 156.5t-3.5 112.5q0 60 7 75t33 25q4 2 17 3h14.5h15.5q16 -1 31 -3.5t23 -6.5q5 0 12.5 -7.5t7.5 -12.5 q5 -6 9 -45t4 -89q0 -26 0.5 -63.5t2.5 -80t4.5 -87.5t5.5 -84q3 -81 3 -156q0 -37 -1 -73q-2 -108 -10.5 -197t-21.5 -155t-30 -103q-15 -26 -48.5 -66t-58.5 -55q-6 -6 -34 -20.5t-53 -19.5q-11 -6 -33.5 -12t-46.5 -10.5t-44 -6t-24 1.5q-26 9 -33 24.5t-7 56.5zM47 34 q-15 9 -15 15.5t15 11.5q12 0 36 3t49.5 8t48 11t33.5 12q27 12 45 21.5t32 18.5t27 20.5t31 26.5q30 27 49.5 53t32.5 62t21.5 86.5t16.5 126.5q4 42 7.5 114.5t4.5 157.5q1 43 1 87t-1 89q-1 91 -5 169q-6 50 -9.5 114.5t-3.5 180.5q9 0 25 -20t22 -40q0 -6 0.5 -32 t1.5 -65t2.5 -89t1.5 -102q2 -54 4 -104t4.5 -90t4 -67t1.5 -34q1 -12 1 -39v-31q-1 -52 -4 -113t-8 -118.5t-9 -87.5q-15 -101 -39 -155.5t-69 -99.5q-18 -15 -29.5 -25t-22 -18t-23 -15t-32.5 -16q-33 -15 -71.5 -26.5t-73.5 -16.5q-20 -2 -37 -2q-14 0 -26 2 q-28 3 -40 16z" />
<glyph unicode="K" horiz-adv-x="852" d="M6 204q2 28 8 80q0 15 0.5 46t2.5 70t5 84.5t6 90.5q0 44 0.5 89t2 84t3 68.5t1.5 43.5q2 12 3.5 44t2 75t1 94.5t0.5 104.5q0 80 0.5 129t2.5 76t5 38t6 14q5 5 21 9t48 4q33 0 50 -2.5t25 -21t10 -61t5 -122.5q0 -71 0.5 -108.5t5.5 -49.5t16.5 -3.5t32.5 29.5 q26 21 53 51t38 46q15 21 38.5 52t44.5 52t38.5 42t23.5 27q10 15 29 19.5t40 -5.5q62 -21 77 -36.5t0 -46.5q-11 -21 -37 -56.5t-47 -61.5q-37 -42 -52.5 -59t-30.5 -38q-6 -16 -28 -40t-48 -50q-50 -52 -48 -62q8 -11 27 -63q5 -21 13.5 -42.5t14.5 -26.5q5 -11 10 -28 t11 -27q11 -34 21 -56q5 -6 13 -23t14 -32q10 -21 28.5 -57.5t34.5 -67.5q25 -45 52 -96.5t50.5 -99.5t40.5 -86.5t23 -56.5q10 -27 -0.5 -40t-41.5 -23q-46 -15 -69 -15q-9 0 -14 2q-20 8 -41 55q-19 36 -41 78t-41.5 79t-33.5 63t-16 29q-3 2 -15.5 25t-27.5 52.5 t-28.5 57t-18.5 38.5q0 5 -8 23.5t-13 39.5q-11 15 -17 36.5t-11 32.5q-16 41 -25 62t-14 28t-8 3.5t-8 -10.5q-9 -9 -14.5 -25t-9.5 -55t-6 -107.5t-5 -179.5q-6 -94 -10.5 -175t-9.5 -102q-6 -42 -10 -49t-25 -7q-11 -6 -20.5 -2.5t-14.5 9.5q-6 5 -23 11t-32 17 q-16 7 -24 12q-9 4 -12 18q-2 7 -2 19q1 11 2 23zM21 84q-2 4 -2 6t5 2q9 -2 46 -22q36 -16 56 -17t41 10q26 10 37.5 72.5t17.5 218.5q0 62 3.5 108.5t3.5 57.5v32.5v64.5q0 36 3.5 58.5t3.5 17.5q5 -6 13.5 -20t14.5 -35q7 -19 11 -31t5 -30t0 -46.5t-3 -79.5 q-3 -68 -7 -136.5t-8.5 -125.5t-9 -95t-9.5 -45q-11 -21 -26 -35t-30 -14q-11 2 -37.5 13t-54.5 25t-50 27t-24 19zM243 1289q1 109 7 125q2 6 6 6q8 0 21 -20q10 -16 15.5 -34.5t5.5 -69.5v-58.5v-31.5q2 -6 -2.5 -16.5t-11 -20.5t-14.5 -17.5t-13 -7.5q-12 0 -14 145z M409 943q19 25 35 41q31 31 60.5 64.5t29.5 39.5q0 5 11 21.5t58 68.5q42 44 42 56q7 8 13 14q15 21 28.5 44t13.5 39q0 21 2 23v0q2 0 12 -9q5 -6 13 -12t8 -16q10 -16 5.5 -45.5t-19.5 -44.5q-6 -11 -20 -30t-29 -40q-11 -21 -27 -39t-21 -23q-11 -11 -20.5 -24.5 t-14.5 -23.5q-16 -21 -28 -34.5t-27 -28.5q-12 -10 -14 -21v-7v-6q-6 0 -15.5 -9t-19.5 -19q-27 -21 -28 -31.5t21 -51.5q5 -27 17 -58t18 -46q10 -16 15.5 -33.5t5.5 -22.5q21 -47 55 -116t76 -147q18 -29 29.5 -50t21.5 -42t22 -48t31 -68q31 -56 37 -90q2 -10 1 -19 q0 -21 -10 -36q-16 -16 -53.5 -29t-78.5 -13q-32 0 -45.5 1.5t-23.5 12.5q-6 10 -13.5 16t-7.5 12q24 7 35 7q21 0 58 7t53 13q26 15 35 47q4 15 4 30q0 17 -5 34q-6 12 -16.5 33.5t-21.5 43t-20 39t-11 23.5q0 5 -8 18.5t-13 29.5q-6 15 -14 29t-13 20q-9 17 -14 28 q-6 10 -15.5 28t-19.5 34q-37 62 -75.5 148t-69.5 164q-16 51 -25.5 74.5t-9.5 29.5z" />
<glyph unicode="L" horiz-adv-x="631" d="M2 1340v26.5v19.5q1 16 5 22.5t12 14.5q19 19 39 19q9 0 21.5 1t17.5 6q17 3 26 3h5q6 -2 21 -16q4 -6 6.5 -11t4.5 -17t3.5 -32.5t4.5 -56.5q2 -22 3 -80t1.5 -138.5t1.5 -177t1 -195.5v-280t1 -144t3.5 -52.5t8.5 -4.5q4 0 16.5 3.5t22.5 3.5q14 4 36 9t42 10 q24 4 46.5 8.5t37.5 4.5q14 4 27.5 5.5t18.5 1.5q19 4 33.5 -17.5t24.5 -60.5q9 -39 9 -47.5t-9 -17.5q-5 -5 -19 -9t-33 -4q-12 -3 -46.5 -7.5t-79.5 -10.5t-96 -11.5t-96 -9.5q-42 -6 -66 -6h-3q-24 0 -36 15t-14 46v24q0 26 2 64q2 45 3 181t1 295t-1 310t-3 227 q-3 56 -4 86zM31 50q3 2 33 2q14 0 56 4t81 9q43 9 99.5 15t95.5 11q39 4 60 7t32.5 6t17 7.5t13.5 12.5q9 9 11 20.5t2 31.5q0 14 -1 34.5t-5 30.5q-5 9 -7 26q-8 9 13 0q9 -5 22.5 -28.5t23.5 -62.5q9 -34 9 -53t-9 -38q-10 -20 -38 -27.5t-86 -11.5q-24 -5 -67 -10.5 t-76 -9.5q-81 -10 -126 -15.5t-69 -6.5h-14q-14 0 -20 1q-10 2 -18 8q-5 4 -13.5 12.5t-12.5 13.5q-8 7 -8 10q0 1 1 1zM198 1430q0 1 1 0q3 0 15 -7q12 -10 18.5 -21t10 -38t5.5 -80t5 -147q6 -171 10 -283t5 -188q1 -51 1 -90q-1 -20 -1 -38q0 -52 -2 -102 q-3 -54 -4 -81.5t-4 -39.5t-10 -15t-21 -7q-6 0 -8.5 6.5t-3.5 38t-1 97v182.5q1 76 1 158v83q-1 127 -4 239t-5.5 195.5t-4.5 110.5q-5 25 -3 27z" />
<glyph unicode="M" horiz-adv-x="1081" d="M0 300.5v160.5v117v114v98v70q4 62 8.5 128t9 124.5t9.5 104t10 66.5q0 18 3.5 42.5t8.5 43.5q4 36 11 56.5t26 29.5h23h38q32 0 45.5 -1.5t22.5 -10.5q4 -9 18 -25q0 -5 1 -16.5t6 -20.5q18 -55 36 -129q4 -14 9 -34.5t10 -38.5q4 -14 11.5 -35t12.5 -39q4 -14 9 -33 t10 -28q4 -14 8.5 -35t9.5 -39q4 -14 9 -34t10 -33q4 -14 8 -26.5t4 -16.5q0 -9 6.5 -30t11.5 -44q4 -24 12 -55t13 -49q4 -19 8.5 -43t9.5 -37q4 -14 8.5 -34.5t4.5 -33.5q4 -14 8 -30t4 -25q4 -5 8 -16t4 -15q0 -19 1.5 -28t10.5 -9q2 0 8 26t14.5 68.5t17.5 96.5t16 110 q4 32 8.5 71.5t9.5 63.5q4 22 9 45.5t11.5 53.5t16 69.5t24.5 95.5q4 13 5.5 32t1.5 24q0 9 3.5 20t8.5 16q0 9 3.5 30.5t8.5 49.5q4 83 24.5 103t80.5 20q12 1 21 1q31 -1 41 -11q12 -14 17 -82q4 -106 7.5 -179.5t7 -130.5t7.5 -104.5t9 -101.5q4 -65 8.5 -136t9.5 -103 q4 -35 8.5 -97t7.5 -125t4 -115v-31q0 -27 -1 -37q0 -19 -5 -26.5t-14 -16.5t-19 -10.5t-42 3.5q-30 4 -46.5 7.5t-25 17t-10.5 41.5t-4 82q-5 114 -10 204t-14 146q-5 45 -11.5 57.5t-1.5 -14.5q0 -14 -8.5 -52t-21.5 -83q-21 -77 -41.5 -144.5t-38 -120.5t-30.5 -88 t-19 -46q-9 -14 -20.5 -16.5t-47.5 -2.5q-37 0 -46.5 2.5t-27.5 16.5q-14 18 -22 38.5t-21 71.5q0 4 -7.5 39t-16.5 72q-24 78 -36 136.5t-25 114.5q-19 103 -37 160q-5 13 -10 33t-9 34q-5 18 -9.5 39t-8.5 35q-5 13 -8.5 29.5t-3.5 25.5q-7 22 -12.5 27t-9.5 -13.5 t-7.5 -65t-7.5 -126.5v-143.5v-193.5q2 -86 2 -132q0 -12 1 -22q1 -30 -1 -48q-2 -24 -5.5 -31t-9.5 -13q-9 -9 -20 -10.5t-47 -1.5q-28 0 -43.5 0.5t-24.5 5.5q-5 4 -7.5 11t-3.5 34t-1 83.5zM25 117q-2 1 -2 2q0 2 7 3q10 1 56 1h38.5t22.5 3t15 9.5t16 18.5q6 9 9.5 18 t6.5 38.5t4.5 88.5t4.5 168v168.5t1 82.5t3.5 19.5t7.5 -19.5q4 -19 8 -39.5t4 -33.5q4 -14 8.5 -27t4.5 -22q6 -15 6 -160v-80q0 -95 -1 -146t-4.5 -76t-13.5 -34t-30 -20q-14 -5 -28 -8t-46 2h-6q-68 0 -92 43zM270 1425q0 2 2 1q5 0 23 -14q9 -9 17.5 -30t13.5 -44 q2 -10 12 -49q4 -14 8.5 -31t9.5 -30q4 -19 9 -35.5t10 -25.5q4 -14 8.5 -34.5t9.5 -33.5q4 -14 8.5 -34.5t9.5 -33.5q4 -9 9 -28.5t10 -32.5q4 -19 8.5 -40t9.5 -34q4 -14 9 -31t10 -30q13 -51 22.5 -84t14.5 -51q2 -10 1 -28t-2.5 -37t-4.5 -35.5t-7 -22.5q0 -7 0 12 q0 9 -4 26t-8 36q-5 13 -13 40t-12 46q-5 18 -9.5 42t-8.5 38q-5 13 -9.5 33t-8.5 34q-9 41 -21 82t-16 65q-5 9 -10 28.5t-9 33.5q-5 13 -9.5 33t-8.5 34q-5 13 -9.5 33.5t-8.5 34.5q-5 13 -13 36.5t-12 37.5q-5 18 -10.5 39t-10.5 39q-10 37 -10 45zM424 55q24 -2 43 -6 q17 -2 32 -2q45 0 69 20q32 27 52 111q4 9 8 17.5t4 13.5q4 9 12 33.5t13 52.5q9 23 17.5 50t13.5 36q4 9 8 21.5t4 21.5q4 -7 6.5 -37t2.5 -65.5t-2.5 -66.5t-6.5 -40q-17 -40 -25 -80q-25 -91 -61 -117q-14 -9 -26 -13.5t-48 -4.5q-37 0 -61.5 9t-42.5 28q-9 9 -12 18z M780 68q30 -3 49 -7h37h24q18 4 35.5 20t26.5 30q2 9 1.5 54.5t-2.5 103.5t-5 116.5t-7 93.5q-7 66 -15 161t-15 198t-12 204t-7 180q0 36 -3 75.5t-3 53.5q-5 27 -4 31q0 2 3 1q3 0 7 -2q23 -14 30.5 -39t12.5 -108q4 -46 5 -94.5t1 -71.5q0 -35 5 -121.5t12.5 -183 t16.5 -182.5t16 -120q0 -19 3 -84t3 -138q2 -65 2.5 -101.5t0.5 -55t-2.5 -26t-6.5 -13.5q-14 -19 -37 -25q-12 -3 -32 -2q-18 0 -42 2q-42 4 -54.5 7.5t-25.5 17.5q-9 9 -18 25z" />
<glyph unicode="N" horiz-adv-x="956" d="M8 847q2 180 7.5 324t14.5 168q4 18 23.5 27.5t61.5 9.5q36 0 46.5 -1.5t19.5 -10.5q11 -17 13 -25q4 -5 5.5 -17.5t6.5 -30.5q9 -14 15 -37.5t15 -41.5q4 -18 8.5 -33t9.5 -15q7 -18 12 -31q4 -9 23.5 -40t42.5 -66t43 -64.5t25 -35.5q10 -11 12 -12q9 -21 18 -30 q18 -27 39.5 -63t39.5 -77q18 -32 23 -41.5t19 -31.5q4 -9 9.5 -25.5t14.5 -34.5q4 -14 12 -27t13 -22q0 -9 3.5 -16t8.5 -2v127q-3 88 -4.5 215t-1.5 244.5v202.5v90q0 4 6.5 11.5t11.5 12.5q16 7 46 7h8q41 0 60.5 -10.5t24.5 -32.5q2 -9 4 -128.5t4.5 -282.5t5 -337.5 t5.5 -294.5q0 -84 -1 -131t-2 -70.5t-3.5 -30t-6.5 -10.5q-12 -12 -31.5 -20.5t-40.5 -13t-39.5 -4t-27.5 7.5q-5 4 -20.5 32.5t-34 67.5t-37 79.5t-29.5 68.5q-9 18 -15 30.5t-10 30.5q0 4 -9 25.5t-27 53.5q-5 9 -12 30q0 4 -1 11.5t-5 12.5q-5 9 -17 34t-25 57 q-23 45 -38.5 74t-28.5 47q-9 9 -18 22t-13 27q-5 9 -9.5 15.5t-8.5 2.5l-6 6q2 2 -7.5 18t-22.5 37t-25.5 40t-16.5 26q-5 4 -7 9t-6 10q-1 8 -12 6q-9 0 -10.5 -19t-1.5 -91q0 -46 3.5 -108.5t8.5 -103.5q0 -21 0.5 -54t1.5 -70.5t2.5 -76.5t1.5 -72q2 -64 2.5 -99 t-0.5 -52t-4.5 -21.5t-9.5 -8.5q-9 -9 -21 -11t-39 -2q-14 -1 -26 -1q-30 0 -40 9q-15 13 -19 59q-8 77 -10 248q-2 107 -1 217q0 66 1 134zM42 139q0 4 15.5 5t51.5 1q45 0 57 4.5t21 13.5q23 18 29 43q4 15 4 44q0 18 -2 41q-3 57 -5 120t-4.5 125t-4.5 117.5t-4 97.5v115 q15 -21 24 -30q6 -12 10 -20.5t6 -26.5t4 -50t4 -91q2 -35 4 -79t3.5 -89t3 -88.5t1.5 -76.5q2 -64 2.5 -99t-1 -53t-6 -25.5t-13.5 -16.5q-18 -18 -37 -24.5t-60 -6.5q-42 0 -66 13t-37 36zM232 1353q4 2 22 -20q13 -14 27 -50t28 -77q4 -23 12.5 -52t17.5 -33 q4 -5 8.5 -16t9.5 -20q18 -27 18 -37q8 -2 25 -30q18 -28 18 -30q9 -8 18 -24q9 -17 18 -25q2 -11 30 -48q9 -14 21.5 -33t21.5 -28q18 -32 32 -61t11 -42q0 -14 -2 -10l-11 22q-5 13 -9.5 25.5t-8.5 17.5q-5 0 -13 14t-17 28q-12 20 -19 31t-13 20t-14 21.5t-21 36.5 q-14 22 -26 38.5t-16 16.5v5.5v6.5q-16 22 -25 36q-9 9 -24 31q-21 40 -30 54q-18 22 -35 60t-26 80q-9 18 -14.5 40.5t-9.5 31.5q-6 12 -6 17q0 2 2 3zM636 48q0 6 18 6q15 -3 36.5 1t42.5 11.5t39.5 17.5t27.5 19q11 13 16.5 25t7.5 49q1 18 1 46.5t-1 65.5q-2 75 -6 214 q-3 72 -5 158t-4 172.5t-2.5 166t-0.5 139.5q-2 70 -2 141.5t2 143.5q9 0 20 -14.5t16 -27.5q2 -7 5 -108.5t5.5 -257t6.5 -344t7 -369.5q0 -87 -0.5 -134t-3 -71t-7 -31t-13.5 -13q-9 -14 -30 -24q-5 0 -17.5 -4.5t-25.5 -13.5q-31 -8 -54 -8h-7q-26 2 -48 20 q-24 18 -24 24z" />
<glyph unicode="O" horiz-adv-x="866" d="M1 809q0 81 1 150.5t4 99.5q13 76 28 136t38 92q4 13 11 25t7 17q4 6 16.5 19t27.5 28t31 28.5t28 20.5q9 4 25.5 8.5t34.5 9.5q31 9 52 9t62 -9q36 -5 72.5 -16t59.5 -20q22 -14 53.5 -47.5t54.5 -60.5q18 -27 38 -79.5t29 -88.5q0 -14 3.5 -30.5t8.5 -29.5 q4 -15 5 -101v-90.5v-100.5q-1 -105 -4 -201t-7 -127q-9 -41 -21 -92t-16 -64q-5 -5 -9.5 -16t-8.5 -20q-18 -36 -53.5 -72t-66.5 -54q-83 -46 -171 -46q-8 1 -16 1q-96 4 -168 63q-9 6 -21.5 21t-24.5 31.5t-21 30.5t-11 19q-2 13 -6 18q-18 22 -34.5 97t-25.5 161 q-3 45 -4 122t-1 158zM156 643.5q0 -54.5 1 -87.5t4 -54t8 -45q13 -59 32.5 -110.5t33.5 -51.5q0 -5 3 -6.5t3 -5.5q9 -14 18 -18q27 -14 78 -16h10q44 0 68 16q36 18 59 52.5t37 79.5q9 31 15.5 117.5t9.5 186t3 192t-4 135.5q-14 67 -29 115t-37 84q-23 27 -42.5 36.5 t-59.5 23.5q-18 4 -37 5t-23 1q-36 -1 -72 -30q-7 -7 -16.5 -25t-18 -39t-14 -40t-5.5 -28q-1 -11 -12 -48q-5 -12 -8 -27.5t-4 -46.5t-1 -83.5v-137.5v-144.5zM156.5 97q1.5 0 24.5 -13q13 -5 24.5 -9.5t11.5 -8.5q6 -5 25 -8.5t43 -5t50.5 -1.5t49.5 3q40 4 60.5 12 t65.5 31q45 18 86.5 62t64.5 94q18 40 29 82.5t18.5 99.5t11.5 136t7 193q2 72 2.5 116t0.5 74t-2.5 52.5t-6.5 52.5q-14 63 -20.5 98t-15.5 58q-8 19 -24 48q-5 18 -13 31.5t-12 22.5q-5 4 -12 18q0 2 1 2q2 0 6 -4q6 -6 11 -10q4 -9 19 -24q4 -5 13 -20.5t20 -36.5 t21.5 -44t17.5 -43q13 -43 20.5 -72t10.5 -70t4 -106t1 -179q0 -88 -1.5 -145.5t-3 -94t-3.5 -58t-4 -39.5q-32 -171 -101.5 -261t-199.5 -112q-51 -14 -81 -14q-2 0 -3 -1q-30 0 -72 9q-45 13 -73 29t-59 43q-14 13 -12.5 13zM186 764q-1 30 -1 56q0 39 2 70q0 31 2.5 70 t8 77t12 70t13.5 48q9 27 24 56t24 34q6 4 23 6q14 2 29 2q4 -1 8 -1q20 0 38.5 -3.5t27.5 -9.5q13 -9 29 -25q13 -13 14 -16q0 -1 -1 -1q-1 -1 -30 6q-30 9 -53 9q-10 0 -20 -2q-28 -6 -47 -43q-35 -68 -49 -198q-8 -78 -9 -190q0 -75 4 -165q2 -59 4.5 -99.5t5.5 -70 t8 -51.5t12 -44q4 -18 12 -42q4 -9 -2 -9h-1q-6 0 -15 15q-14 18 -23 37.5t-13 46.5q-9 27 -17 87.5t-13 133t-7 146.5z" />
<glyph unicode="P" horiz-adv-x="728" d="M19 239q2 18 5.5 69.5t7 118t7 140.5t6.5 138v80.5v101.5v111v110q-6 87 -8 137.5t-2 77.5t2 37.5t8 18.5q14 28 36 47t46 29h42h71q47 0 73 -5t59 -14q70 -24 105 -50t59 -83q6 -17 10 -28.5t6.5 -32.5t4 -57t4.5 -102q0 -66 -0.5 -102.5t-2.5 -57t-6 -30.5t-10 -24 q-15 -24 -33.5 -49t-41.5 -39q-19 -15 -65 -27.5t-93 -16.5q-43 0 -55.5 -5t-26.5 -14q-6 -8 -8.5 -15.5t-4.5 -28t-3 -58.5t-3 -106q-5 -81 -9.5 -155t-8.5 -97q-5 -29 -9 -58t-4 -43q1 -8 1 -16q0 -47 -60 -47h-4q-76 0 -93 28q-9 15 -9 46q0 29 7 71zM36 64q6 0 59 -8 q23 0 35.5 1t27.5 6q33 9 45.5 36t17.5 108q4 23 9 63.5t10 69.5q0 23 3 84.5t3 123.5q2 51 3 79t3.5 41.5t6.5 17t12 6.5q94 14 157.5 31t63.5 32h12q2 0 10 9t19 21.5t22 27t19 24.5q9 18 15 37.5t9 46.5t5 66t2 96q-3 45 -4.5 73.5t-3.5 48.5t-4.5 35t-6.5 32 q-5 18 -12 50q-5 4 -7 9t-6 10q0 7 1 7l1 -1q2 -3 17 -12q4 -10 16 -27.5t22 -35.5q9 -19 14 -32t8 -32t4.5 -50.5t4.5 -87.5q0 -69 -0.5 -113t-3.5 -74t-7.5 -49.5t-13.5 -40.5q-33 -66 -93.5 -97.5t-164.5 -40.5q-24 -5 -41.5 -10t-21.5 -9v-51q-3 -39 -7.5 -110 t-10 -148.5t-11 -147t-9.5 -104.5q-5 -19 -28 -42t-41 -27q-6 -2 -17 -2q-15 0 -39 4q-41 7 -64 17q-10 0 -18.5 7.5t-12.5 17.5q-10 10 -10 13q-1 1 1 1zM210 1110.5q0 -56.5 1 -106t4 -60.5q4 -18 18 -30q10 -8 24 -9q6 0 14 2q28 0 66 6.5t48 11.5q4 4 5 40t1 112 q0 51 -0.5 79.5t-3.5 43.5t-7.5 22.5t-13.5 17.5q-15 14 -30 23t-33 9q-38 10 -49 10h-2q-10 0 -18 -4q-5 0 -12 -4t-7 -8q-3 -6 -4 -52.5t-1 -103zM248 1182v14q0 20 2 30q4 14 10 14q3 1 6 1q5 0 12 -1q14 -5 26.5 -8.5t17.5 -3.5q9 -6 22 -20q10 -11 10 -16q0 -2 -1 -2 q0 -5 -8 -2.5t-17 2.5q-30 8 -31 6v-132q2 -48 2.5 -73.5t-1.5 -37t-6 -11.5q-1 0 -2 -1q-4 0 -12 3q-10 0 -15.5 2t-8 16.5t-2.5 45.5v88q-3 56 -4 86z" />
<glyph unicode="Q" horiz-adv-x="825" d="M0 686v113v96.5t1 60.5t3.5 39.5t7.5 33.5q12 64 23.5 98.5t16.5 39.5v12q4 9 22.5 49.5t40.5 70.5q6 10 18.5 25t26 28.5t25.5 23.5t17 10l11 11q9 9 30 20.5t51 20.5q43 12 93 12t85 -12q30 -13 54.5 -30t37.5 -34q8 -12 19 -30.5t21 -39.5t18 -39.5t11 -28.5 q0 -5 3 -15t8 -14q0 -5 4.5 -31.5t13.5 -60.5q2 -29 3.5 -51t2.5 -52t1 -75.5t-2 -120.5q0 -81 -1.5 -133.5t-4.5 -89t-7 -63t-10 -53.5q-13 -39 -30.5 -81t-38.5 -68q-18 -27 -18 -32t13 -14q34 -30 49 -41t20 -11q12 -5 23 -23t11 -35q0 -30 -8.5 -53.5t-20.5 -32.5 q-9 -9 -15.5 -8t-18.5 14q-9 4 -23 14.5t-23 19.5t-24.5 23t-27.5 23q-9 9 -23 20.5t-23 20.5q-13 12 -20.5 14.5t-19.5 2.5q-12 -5 -32 -6.5t-42.5 -0.5t-44 4.5t-36.5 8.5q-57 12 -105.5 48t-78.5 84q-5 6 -13.5 21.5t-17 33t-13.5 31.5t-2 17q-8 20 -12 29 q-12 32 -17.5 56.5t-8.5 55t-3 74.5zM136 732q3 -34 8 -77q17 -113 48.5 -178.5t83.5 -91.5q21 -9 36 -10t33 4q26 9 49 12.5t32 -0.5q9 0 15 2.5t19 20.5q19 23 32 55t21 82.5t12 123t4 176.5q0 54 -0.5 90.5t-1.5 63.5t-3 47t-6 40q-13 90 -32.5 135t-53.5 67 q-22 12 -40 13t-52 -8q-39 -18 -72.5 -45.5t-54.5 -74.5q-20 -39 -33.5 -75.5t-22.5 -77t-13 -88.5t-6 -110q-3 -38 -3 -66q0 -17 1 -30zM161 241q-2 2 -2 3t3 1q6 0 11 -9q12 -12 37.5 -21.5t55.5 -15.5t63 -9t62 0q39 0 47.5 -3t21.5 -15q17 -13 16 -16t-27 -7 q-17 -2 -35 -2q-34 0 -75 7q-62 9 -109 36q-22 9 -45.5 27.5t-23.5 23.5zM173 891q9 99 25.5 164.5t43.5 117.5q30 43 61.5 68t70.5 30q42 0 58 -18q9 -13 7 -16t-19 -7q-93 -16 -144 -126q-35 -69 -49 -148.5t-14 -208.5q0 -96 6.5 -151.5t28.5 -106.5q12 -44 13 -49.5 t-8 3.5q-48 56 -69 177q-14 83 -14 182q0 43 3 89zM501 132v12q5 -8 5 -12q-7 0 -5 0zM512 121q0 4 4 1t13 -7q4 -9 4 -10t-9 4q-10 11 -12 12zM541 98v11q6 -7 6 -11h-6zM598 57q15 -12 31 -12q19 0 38 18q12 12 18 23t11 46q4 21 5 39.5t1 23.5q0 9 2 9t15 -9 q21 -18 25 -49q1 -8 1 -17q0 -28 -9 -66q-9 -27 -19.5 -40t-31.5 -17q-7 -2 -13 -2q-11 0 -20 6q-16 8 -42 30q-18 17 -18 19q0 1 6 -2zM607 301q0 6 9 27q21 30 33 61t30 105q6 15 10 53t7 89t4.5 109t1.5 112q0 181 -16 293t-59 190q-7 18 -5 18q3 0 22 -30 q17 -22 32 -49.5t20 -53.5q4 -5 9 -22.5t14 -29.5q4 -18 8 -33t4 -19v-27.5t5 -35.5q4 -27 5 -81t1 -166q1 -47 1 -87q0 -30 -1 -55q-1 -59 -4.5 -104t-10 -79t-14.5 -66q-5 -15 -12 -36.5t-14.5 -41.5t-14 -35.5t-10.5 -19.5q-2 -9 -12 -17q-4 -4 -6 -4t-2 1q-4 2 -21 15 q-14 12 -14 19z" />
<glyph unicode="R" horiz-adv-x="755" d="M2 1128v35q0 99 3 149q3 58 11.5 70.5t23.5 27.5q21 21 40 31t58 15h63.5h85.5q99 -5 148 -21.5t92 -58.5q15 -15 27 -39.5t21 -51.5t13 -53t2 -45q-5 -26 -8 -45t-15 -70q-13 -39 -34 -71t-46 -49q-25 -28 -34 -29q-5 -5 -16.5 -12t-23.5 -11q-13 -5 -35 -17 q0 -5 11 -13.5t24 -20.5q42 -39 69.5 -80.5t47.5 -108.5t36 -171.5t36 -269.5q3 -39 5 -61.5t1.5 -34.5t-3.5 -18t-9 -12q-9 -9 -18 -13.5t-39 -4.5q-35 0 -45 4.5t-18 13.5q-16 17 -17 28q0 6 -3.5 29t-8 56t-9.5 69.5t-8 69.5q-5 25 -8 48t-3 32q4 4 1 22.5t-7 40.5 q-9 49 -16.5 81.5t-16 57t-19.5 46.5t-28 50q-22 25 -51.5 55.5t-46.5 35.5q-5 0 -12 3.5t-11 8.5q-5 8 -16.5 8t-23.5 -8q-3 -5 -5 -14t-3.5 -42t-2 -99t-0.5 -183v-217t-6 -102t-21.5 -28.5t-47.5 3.5q-39 0 -49.5 1.5t-18.5 10.5q-3 3 -4.5 22.5t-2.5 81t-2 179t-3 318.5 q-4 244 -4 371zM34 100q4 4 47 4q34 -5 47.5 -2t26.5 8q17 10 25.5 18.5t11.5 41.5t3 102.5v203.5q0 105 0.5 167t2.5 94.5t4 41.5t5 7q4 0 11 -6q4 0 12.5 -7.5t21.5 -15.5q27 -26 12 -17q-5 4 -12 5t-11 1q-1 -6 -3 -80q-1 -25 0 -59q0 -70 3 -182q0 -114 -0.5 -179.5 t-1.5 -98.5t-3.5 -43.5t-5.5 -16.5q-13 -18 -35 -23.5t-69 -5.5q-39 0 -50.5 1.5t-23.5 10.5q-19 21 -19 28q0 1 1 2zM155 1141q2 -57 4 -86.5t8 -41.5t17.5 -12.5t33.5 2.5q30 2 61.5 11t58.5 21t45.5 26.5t23.5 27.5q8 21 18.5 61.5t10.5 53.5q4 25 -11.5 46t-40.5 34 q-46 16 -177 17q-35 -5 -41.5 -8t-10.5 -15v-49.5v-87.5zM187 1256q3 6 25 11q30 0 73 -2t65 -10q21 -5 36 -13.5t15 -20.5q-50 -6 -80 -6t-46.5 -1.5t-24 -10t-8.5 -25.5t-1 -49q0 -37 -1 -56.5t-4 -28.5t-10 -10.5t-19 -1.5q-9 0 -10.5 10t-1.5 53q0 25 -3 59t-3 56 q-3 24 -3 36q0 8 1 10zM470 889q30 21 57 46t40 51q8 17 18.5 40.5t10.5 28.5q0 4 4 15.5t13 24.5q4 21 8 43.5t4 65.5q0 27 -1.5 44t-4.5 31t-10 29t-19 39q-9 12 -8 13v0q2 0 14 -7q34 -35 51.5 -85t17.5 -110v-18q0 -89 -35 -165q-39 -84 -108 -126q-13 -9 -24 -14 t-11 -9q-15 14 -23 23q-17 16 -17 21t23 19zM484 44q6 3 49 3q39 -5 50.5 -1.5t24.5 12.5q26 12 32 32q4 12 4 36q0 15 -2 35q-3 36 -8.5 87t-12.5 105t-15 106.5t-16 91.5q0 17 -2.5 32.5t-2.5 24.5q-5 25 -15 59.5t-14 43.5q-5 4 -8 11t-3 12q-5 8 -12 19.5t-11 20.5 q-15 25 -12 25q2 1 2 -1q8 -6 33 -41t44 -76t34 -101.5t27.5 -147.5t25.5 -213q6 -63 8 -100q2 -23 3 -40q1 -10 -1 -18q-2 -21 -8.5 -31t-18.5 -18q-13 -9 -26.5 -10t-47.5 -1q-43 0 -62 3t-36 25q-5 7 -5 11q0 3 2 4z" />
<glyph unicode="S" horiz-adv-x="734" d="M6 268q0 11 18.5 19.5t42.5 12.5t48 3t34 -10q23 -24 45 -30.5t74 -6.5q42 0 57 5t43 20q37 18 53 47.5t16 95.5q1 12 1 24q0 60 -18 107q-21 56 -77 113q-9 9 -18 17.5t-13 13.5q0 4 -20 27.5t-43 47.5q-61 65 -92 106.5t-58 93.5q-24 46 -33.5 81t-9.5 87 q4 102 48.5 184.5t119.5 115.5q23 9 40.5 10.5t59.5 1.5q65 0 125 -14.5t69 -28.5q9 -9 8.5 -19t-14.5 -37q-24 -42 -38 -58.5t-37 -16.5q-9 0 -21.5 3.5t-16.5 8.5q-5 0 -18.5 3t-31.5 3q-9 1 -17 1q-31 0 -52 -12q-27 -15 -50 -57q-8 -15 -11.5 -37t-3.5 -46t3.5 -45.5 t11.5 -34.5q14 -33 46.5 -78t60.5 -78q14 -15 33.5 -34.5t34.5 -33.5q70 -80 107 -128.5t56 -90.5q14 -38 22.5 -96t8.5 -91q0 -38 -12 -93t-26 -88q-19 -33 -47.5 -66t-51.5 -47q-21 -10 -49.5 -20t-58 -17.5t-57 -11.5t-48.5 -1q-38 0 -83.5 13t-72.5 37q-15 9 -31 26 t-30 35q-13 18 -21 36q-6 13 -6 22q0 3 1 6zM93 93q0 -5 13 -12q11 1 31 -7q9 -9 31.5 -10.5t74.5 -1.5q35 -3 57 -3q12 0 22 1q24 3 52 8q51 16 87.5 34t64 42t49.5 58.5t43 84.5q4 13 7 37t5 52.5t2 57.5t-2 53q-3 21 -7.5 46t-10 48t-10.5 40t-9 22l-7 12q2 11 -25 50 q-9 14 -25 38q8 -4 13 -13q9 -5 12 -12q0 -5 4 -9t9 -4q4 -3 13.5 -17.5t20 -34t20.5 -40t15 -33.5q18 -47 27.5 -87.5t9.5 -105.5q0 -66 -6.5 -102.5t-24.5 -78.5q-15 -28 -38 -63t-37 -44q-5 -5 -13 -9.5t-12 -8.5q-9 -9 -35 -22t-59 -22q-80 -28 -161.5 -28t-137.5 28 q-9 4 -25 16t-25 21q-15 13 -15 17q0 2 2 2zM254 1166q5 48 33 76q14 14 28.5 18t52.5 -5q32 -5 50 -7t28.5 -2t17 2t16.5 7q9 9 21 18.5t17 18.5q18 33 30.5 59t12.5 41q0 18 2 20h1q3 0 10 -7q18 -15 21.5 -27.5t3.5 -35.5q0 -15 -2.5 -30.5t-16.5 -38.5q-38 -66 -75 -75 q-19 -5 -29 -3.5t-52 16.5q-38 7 -56 6q-28 -5 -48.5 -42t-20.5 -83q0 -19 2 -35.5t17 -39.5q9 -19 17.5 -32.5t13.5 -17.5q9 -9 9.5 -10.5t-3.5 -1.5q-3 0 -14 14t-25.5 34t-28 41t-19.5 36q-15 29 -15 66q0 10 1 20z" />
<glyph unicode="T" horiz-adv-x="811" d="M4 1392q3 11 8 16q4 4 37 9t82.5 10t109.5 9t118 7q128 9 204 9t85 -9q6 -5 10.5 -23t6 -39t0.5 -42t-5 -31q-5 -5 -9.5 -11.5t-8.5 -6.5q0 -5 -33.5 -6.5t-72.5 -5.5q-38 -3 -58.5 -6t-30.5 -15t-12.5 -37t-4.5 -71q0 -27 -1.5 -86t-2.5 -136.5t-1.5 -166.5t-0.5 -177 q0 -91 -1.5 -172.5t-2.5 -143.5t-1.5 -99t-0.5 -39q-5 -18 -24 -24.5t-58 -10.5q-31 -5 -40.5 -1t-18.5 13q-7 4 -11 10.5t-5.5 31t-1.5 76v147.5v124v150v157v146q2 63 3 120t1.5 99t1.5 93q0 4 -31 2t-75 -2q-45 -5 -79.5 -5t-38.5 5q-35 8 -35 95q-3 16 -3 27q0 6 1 10z M35 1207q0 4 2 5t16 1q9 0 36 0.5t58 5.5q26 4 49 5t28 1q6 -14 6 -23q0 -22 -8.5 -27t-56.5 -9h-50h-27q-14 4 -29 15.5t-24 25.5zM277 47q0 4 19 8t46 4q57 4 77.5 12t34.5 35q2 9 3 24.5t1.5 66.5t2 152t4.5 281q0 103 0.5 198.5t1.5 170.5t2.5 124t1.5 61 q4 44 13.5 51.5t63.5 7.5q66 0 93.5 5.5t41.5 23.5q13 18 15.5 29t2.5 60v64q9 0 20.5 -10t20.5 -19q4 -9 5 -26.5t1 -56.5q2 -21 2 -36q0 -25 -4 -37q-6 -20 -33 -33q-14 -9 -29.5 -10t-76.5 -1q-62 0 -73.5 -6t-15.5 -36q0 -7 -1.5 -55t-2.5 -124t-1.5 -174t-0.5 -206 q-3 -197 -4.5 -304t-3 -158t-3.5 -64t-6 -22q-5 -9 -16 -17t-20 -12q-7 -5 -25 -8.5t-38.5 -5t-38.5 -1.5t-27 3q-9 0 -29 18t-24 23z" />
<glyph unicode="U" horiz-adv-x="845" d="M0 878q2 182 3 286.5t2 158.5t2.5 72t4.5 27q8 8 13.5 12.5t14.5 9.5h26h36q29 0 44 -2t21 -22q6 -19 6 -60q-1 -3 -1 -7q0 -46 -2 -135q-5 -251 -7 -408.5t-2 -249t2 -130t7 -50.5q8 -30 23 -53.5t28 -31.5q10 -1 11 -11q8 -9 46.5 -16t72.5 -7q84 0 119.5 42.5 t44.5 144.5q2 33 3 116.5t1 179.5t-1 184t-3 131q-5 51 -8 118t-3 114q-3 59 -3 91t9 46t29 16q9 1 20 1q15 0 36 -1q30 -5 41.5 -7t20.5 -10q3 -7 5.5 -13t4 -22.5t2.5 -48.5t5 -91q0 -69 3 -140t3 -104q3 -43 4 -139v-97.5v-100.5q-1 -102 -4 -188t-6 -109 q-5 -28 -14 -57.5t-19 -54.5t-19.5 -42.5t-15.5 -20.5q-10 -1 -11 -12q-8 -13 -12 -17q-9 -5 -13.5 -11.5t-8.5 -10.5q-15 -8 -74 -40q-18 -9 -38 -10t-75 -1q-56 0 -78 2t-52 15q-56 17 -76 23.5t-32 15.5q-5 4 -17 12q-5 -3 -16 7t-23.5 26t-25 35t-20.5 34 q-13 27 -20 45.5t-10 72.5t-3.5 166t-0.5 327zM119 108q-16 15 -16 18t22 -12q38 -20 83.5 -34t93.5 -20q44 -6 86 -7q2 1 6 1q46 0 82 9q21 8 49 20t41 25q21 12 48.5 42t36.5 43q1 17 12 17q8 27 17 40q15 42 23.5 77t13 83t6.5 120.5t2 189.5q0 53 -1.5 105.5t-2.5 97.5 t-1.5 80.5t-0.5 55.5q-5 42 -8 106.5t-3 120.5v136q8 0 23.5 -22.5t15.5 -34.5q3 -13 7.5 -82t7.5 -166t5.5 -209t2.5 -211q1 -66 1 -119q-1 -40 -1 -74q-2 -78 -6 -131.5t-12.5 -89.5t-20.5 -67q-5 -9 -12 -23q0 -5 -6 -17t-14.5 -27t-18 -29.5t-17.5 -22.5 q-39 -43 -96 -65t-120 -26q-13 -1 -26 -1q-31 0 -66 5q-49 7 -94 21t-83 33.5t-59 43.5zM200 450q0 14 -1 33q0 39 1 95q1 86 4 243q2 84 3 166.5t1.5 151.5t1 119.5t0.5 72.5q0 59 1 75t10 16q4 0 9 -7.5t14 -15.5q3 -7 5.5 -19t3.5 -63t1.5 -159.5t0.5 -307.5 q0 -109 -0.5 -205t-1.5 -168t-1.5 -113t-2.5 -41q-1 -1 -3 -1q-5 0 -15 14q-13 18 -21 38q-5 10 -7.5 22t-2.5 54z" />
<glyph unicode="V" horiz-adv-x="880" d="M3 1381q0 29 9 38q9 4 37 14.5t46 15.5q7 1 14 1q19 0 35 -8q22 -11 22 -29q0 -3 4 -19.5t10 -39.5t13.5 -47t14.5 -42q4 -9 8.5 -27.5t9.5 -31.5q16 -62 41 -149q4 -9 5 -20.5t1 -15.5q1 -9 12 -35q4 -23 13 -51.5t23 -85.5q4 -18 8.5 -38.5t9.5 -38.5q4 -14 8 -33 t9 -32q4 -14 8 -26t4 -16q0 -5 0.5 -16.5t5.5 -24.5q4 -14 8.5 -33.5t9.5 -32.5q13 -45 20 -35t16 77q4 13 7.5 33t3.5 38q4 13 8.5 39.5t9.5 49.5q4 22 8.5 55.5t9.5 51.5q4 18 8.5 48t9.5 53q4 27 8.5 58t9.5 49q4 22 8.5 53t9.5 54q11 69 17 106.5t10 55.5t8.5 23.5 t11.5 10.5q13 9 25.5 13.5t39.5 4.5q62 0 73 -20q4 -7 4 -23q0 -26 -11 -76q-9 -36 -18 -79t-18 -82q-14 -72 -23 -105.5t-13 -60.5q-5 -14 -9 -36.5t-8 -40.5q-9 -41 -15.5 -67.5t-10 -45t-6 -33t-4.5 -32.5q-9 -36 -21 -77t-21 -89q-18 -71 -35 -167q-5 -14 -9.5 -39.5 t-8.5 -43.5q-5 -18 -9.5 -41.5t-8.5 -41.5q-5 -14 -8.5 -29t-3.5 -24t-7 -21t-11 -21q-14 -14 -21.5 -15.5t-43.5 3.5q-45 0 -65.5 9.5t-29.5 32.5q-5 9 -9.5 39t-8.5 62q-3 42 -7 86.5t-8.5 85.5t-8 74t-5.5 51q-5 9 -9.5 31t-8.5 40q-5 18 -9 32.5t-8.5 33t-10 45 t-14.5 67.5q-9 22 -14.5 48t-9.5 35q0 4 -3.5 19t-7.5 29q-5 13 -9.5 32t-8.5 33q-9 27 -16.5 53t-25.5 84q-9 22 -14.5 42t-9.5 29q0 9 -2.5 17.5t-2.5 17.5q-5 9 -9.5 24.5t-8.5 29.5q-5 13 -9.5 31.5t-8.5 27.5q-9 22 -9 51zM208 1407q-2 9 -2 13q0 6 3 6q5 0 17 -13 q6 -9 14 -28t15 -40t12.5 -40t5.5 -28q1 -11 12 -30q4 -9 8.5 -24.5t9.5 -28.5q4 -18 8.5 -38.5t9.5 -33.5q18 -58 24 -80t11 -44q9 -28 18 -66q4 -14 8.5 -33.5t9.5 -37.5q4 -23 8.5 -42.5t9.5 -28.5q4 -18 4 -30.5t-4 -34.5q-5 -32 -9.5 -35t-8.5 29q0 9 -4 23.5t-8 23.5 q-5 13 -11 37t-12 51t-11 51.5t-7 38.5q-5 9 -9.5 31.5t-8.5 40.5q-9 18 -17.5 47.5t-12.5 52.5q-18 62 -22.5 86t-13.5 51q-9 13 -14 32t-9 33q-5 13 -9.5 29t-8.5 25q0 4 -3 15t-3 20zM303 53q29 -2 47 -6q20 -2 36 -2q20 0 34 3q26 6 43 29q13 13 24.5 42t11.5 47 q0 4 3.5 16t8.5 26q4 27 12.5 63t22.5 103q4 18 8.5 40.5t9.5 36.5q4 13 5 25t1 17q0 4 3.5 19.5t8.5 33.5q4 18 8 34t10 42.5t15.5 68.5t25.5 111q4 18 8.5 40.5t9.5 36.5q4 13 8.5 39t9.5 44q4 18 8.5 40.5t9.5 36.5q4 18 8.5 41.5t9.5 41.5q9 48 17.5 87.5t17.5 79.5 q9 22 10.5 39t1.5 26q0 10 7 10q4 0 11 -4q4 0 11.5 -7.5t12.5 -16.5q9 -14 9 -35t-9 -60q-5 -9 -9.5 -29t-8.5 -42q-9 -36 -16 -70t-20 -96q-18 -67 -25 -103.5t-16 -75.5q-5 -18 -9.5 -41.5t-8.5 -41.5q-5 -14 -9.5 -36.5t-8.5 -40.5q-5 -18 -9.5 -44t-8.5 -39 q-5 -27 -11 -59t-24 -107q-14 -58 -23.5 -97.5t-18.5 -75.5q-5 -18 -9.5 -44.5t-8.5 -44.5q-9 -36 -14.5 -58.5t-10.5 -37t-11 -23t-17 -17.5q-14 -14 -24.5 -16t-46.5 -2q-45 0 -70 6t-43 24l-16 16q-4 4 -4 6q0 1 2 1z" />
<glyph unicode="W" horiz-adv-x="1240" d="M2 1361v23q0 34 4 40q4 4 20 5t53 1h43h25q13 -9 19.5 -30t11.5 -62q4 -45 10.5 -101.5l13 -113t13.5 -105.5t12 -79q4 -19 8.5 -43.5t9.5 -42.5q0 -14 3 -31.5t3 -30.5q4 -12 8.5 -33.5t8.5 -43t7.5 -40t6.5 -24.5q-2 -18 6 -18q4 -5 10.5 20t20.5 103q4 23 8.5 50.5 t9.5 41.5q4 13 9 37t10 43q4 23 11.5 48.5t12.5 49.5q9 45 19 83t24 89q4 27 12 53t13 45q11 45 18.5 72.5t13.5 42.5t12.5 21t16.5 11h43q9 -5 21.5 -5.5t21.5 -0.5q13 0 21 -7.5t22 -16.5q18 -19 21.5 -28t3.5 -22q0 -15 4.5 -51.5t12 -81.5t16.5 -90t16 -77 q11 -39 22 -90t20.5 -102t17.5 -98t13 -79q0 -9 4 -21t9 -16q0 -5 3 -5t3 5q4 4 5 15t1 16q0 9 3.5 32.5t8.5 47.5q4 23 9 54.5t10 55.5q4 23 8.5 55t9.5 56q4 23 8 44t4 30q-3 9 -1.5 27t7.5 54t18.5 95t31.5 149q4 23 9.5 34.5t14.5 20.5q17 10 25 12q24 -8 43 -12 q36 -15 54.5 -24t23.5 -26t-0.5 -48.5t-16.5 -91.5q-14 -60 -22.5 -115.5t-8.5 -68.5q0 -9 -4 -30t-8 -44q-9 -42 -21.5 -118.5t-21.5 -145.5q-5 -24 -9.5 -58t-8.5 -52q-5 -24 -9 -44.5t-4 -29.5q0 -5 -1 -24.5t-5 -37.5q-5 -19 -9.5 -59t-8.5 -76q-9 -33 -15 -72.5 t-10 -62.5q-5 -19 -8.5 -38.5t-3.5 -28.5q0 -19 -18 -37q-14 -14 -22 -15.5t-40 3.5q-65 4 -86 23t-30 75q-5 60 -21 136.5t-29 127.5q-10 39 -15.5 63.5t-8.5 43.5t-5.5 36t-6.5 41q-5 23 -13 55t-12 56l-12.5 67.5t-11.5 73.5q-5 32 -19 80q-8 8 -24 -49q0 -14 -5 -38.5 t-14 -47.5q-5 -28 -9.5 -61t-8.5 -56q-9 -65 -29 -145t-33 -131q-5 -24 -9.5 -48.5t-8.5 -37.5q-5 -19 -9.5 -43.5t-8.5 -42.5q-12 -56 -22.5 -89t-23.5 -50.5t-31.5 -22t-45.5 -4.5q-51 0 -70.5 17t-28.5 63q0 9 -4 32.5t-8 47.5q-14 64 -23.5 122.5t-13.5 104.5 q-5 51 -11 102.5t-19 93.5q-5 23 -8 41t2 27q0 4 -4.5 19.5t-8.5 29.5q-9 41 -18.5 102.5t-18.5 130.5q-5 32 -9.5 81t-8.5 91q-14 92 -16 146zM202 67q0 4 19 5t43 1q69 4 101 23t46 75q4 23 10.5 50t20.5 73q4 18 8 34t4 21q0 4 0.5 16.5t5.5 26.5q4 9 8.5 32t9.5 42 q4 18 9 45t10 41q4 20 9.5 47t11.5 54.5t11.5 52.5t10.5 42q0 18 3.5 30.5t8.5 12.5q6 -23 6 -36q0 -14 4 -37.5t9 -36.5q4 -24 4 -37.5t-4 -36.5q-5 -14 -10 -38t-9 -42q-5 -19 -9.5 -44t-8.5 -48q-9 -33 -19.5 -83t-23.5 -101q-5 -14 -10 -38.5t-9 -47.5 q-14 -60 -26 -82.5t-35 -40.5q-19 -9 -30 -13.5t-62 -4.5t-62.5 5.5t-29.5 19.5q-9 4 -25 18zM208 1399q-1 6 -1 10q0 6 3 5q7 0 29 -27q13 -14 17.5 -29t13.5 -75q4 -33 5 -65.5t1 -45.5q0 -9 3.5 -37.5t8.5 -60.5q9 -51 13.5 -81.5t5.5 -51t-1 -35.5t-6 -35 q-5 -37 -8.5 -49t-3.5 12q0 9 -4 28.5t-8 33.5q-5 20 -12.5 71.5t-16 114.5t-15.5 129t-11 115q-5 23 -9 45.5t-4 27.5zM706 1338v23.5v19.5q-4 13 -4 17v1q1 0 4 -6q27 -24 38.5 -46t16.5 -77q4 -51 13.5 -109t23.5 -99q10 -37 10 -91v-12q0 -45 -4 -69q-5 -19 -8.5 -15.5 t-3.5 27.5q0 4 -4.5 20t-8.5 35q-5 13 -9.5 40t-8.5 46q-5 18 -13 48.5t-12 49.5q-5 25 -10.5 54.5t-10 57t-7 50.5t-2.5 35zM753 60q7 2 63 2q55 0 66.5 1.5t25.5 15.5q11 9 17 17t11.5 26t11 50.5t15.5 90.5q4 23 9 59t10 64q9 64 20.5 139.5t23.5 147t21.5 131t14.5 92.5 q4 18 5 37t1 24q0 4 4.5 31.5t13.5 60.5q4 27 9 67t10 68q4 23 8.5 50.5t9.5 41.5q4 18 8 42.5t4 43.5v37q2 1 4 1q7 0 19 -11q14 -14 20 -27q9 -14 9 -50t-9 -72q-19 -78 -26.5 -125.5t-16.5 -102.5q-5 -37 -9.5 -77t-8.5 -58q-5 -19 -9.5 -54t-8.5 -62q-5 -28 -10.5 -68 t-14.5 -67q-9 -60 -15 -108t-10 -89q-5 -14 -8.5 -38t-3.5 -42q-5 -24 -12.5 -59.5t-11.5 -62.5q-10 -65 -15.5 -101.5t-10.5 -55.5t-10 -26.5t-14 -13.5q-25 -19 -41 -24q-8 -2 -22 -2t-35 2q-42 4 -71.5 14t-38.5 29q-5 5 -5 8q0 2 3 3z" />
<glyph unicode="X" horiz-adv-x="873" d="M6 141q-2 3 -2 11q0 13 6 40q8 42 28 95q4 19 9 39t10 25q0 9 7 29.5t12 40.5q4 19 12 36.5t13 27.5q0 9 8 27.5t18 42.5q52 96 86.5 161t34.5 75v13q4 0 -3.5 24t-21.5 53q-20 33 -34.5 63t-23.5 45q-8 16 -23 48.5t-32 68t-32 67t-21 46.5q-10 9 -20 29t-19 35 q-10 24 -10.5 33t4.5 24q4 14 33.5 40t49.5 31q12 2 21 -0.5t19.5 -14.5t25 -36t36.5 -64q4 -10 8.5 -16t4.5 -10q2 0 20 -35.5t39 -78t38.5 -78.5t17.5 -38q0 -15 10 -12.5t15 12.5q9 24 21.5 55.5t17.5 46.5q4 9 12 26v19q4 4 14 28.5t25 48.5q33 90 49.5 126.5t26.5 51.5 q13 8 29 8h3q18 -1 58 -20q24 -15 36 -26t13.5 -26.5t-6.5 -40.5t-24 -67q-10 -20 -19 -37.5t-13 -26.5q-9 -22 -19 -51q-10 -22 -19 -44q-5 -5 -10.5 -16.5t-9.5 -15.5q0 -10 -4 -23t-8 -22q-5 -20 -14 -43t-37 -85q-12 -34 -19 -52t-7.5 -29.5t4.5 -20.5t15 -25 q9 -20 21 -40.5t17 -29.5q4 -10 32.5 -71.5t57.5 -133.5q33 -77 58.5 -136t30.5 -68q4 -5 9 -17t10 -21q4 -10 9 -23t10 -22q9 -24 9 -45.5t-9 -30.5q-8 -8 -23 -17t-32 -16t-32 -11t-21 -1q-8 2 -14 7t-14 18t-19.5 37.5t-29.5 65.5q-15 42 -29.5 72.5t-14.5 35.5 q-5 4 -10 15.5t-9 16.5q-5 24 -18 51t-27 51q-5 9 -10 25t-9 26q-5 9 -10 22t-9 23q-5 4 -9 12t-4 13q-3 14 -7 19q-10 14 -13.5 11.5t-17.5 -30.5q-20 -39 -39 -70q-6 -6 -20 -34.5t-29 -65t-28.5 -73t-17.5 -57.5l-20 -44q-5 -10 -8.5 -26t-3.5 -25q0 -5 -8 -20.5 t-12 -24.5q-15 -15 -26 -18.5t-44 -7.5q-43 0 -57.5 2.5t-18.5 17.5zM18 70q0 4 15 8.5t30 4.5q19 0 39.5 4t30.5 9q9 2 22.5 10t25.5 19t20.5 22t8.5 19q0 9 7.5 45.5t17.5 56.5q4 9 8.5 18t4.5 14q0 4 1.5 13.5t11.5 24.5q4 9 8.5 18t4.5 14q18 49 38 83q14 33 27 55 t18 22q7 -9 12 -13q2 -19 13 -38q4 -10 3.5 -14.5t-9.5 -23.5q-15 -24 -24.5 -45.5t-33.5 -69.5q-6 -15 -13.5 -38.5t-16 -47.5t-16 -46t-11.5 -34q-15 -72 -49.5 -98t-110.5 -30q-34 0 -44 4.5t-19 14.5q-5 4 -20 19zM188 1392.5q0 0.5 9 -7.5q9 0 18 -12t14 -26 q42 -72 66 -113.5t36 -63t13.5 -29t-0.5 -11.5q-5 -5 -12 5t-26 39q-10 24 -26 58q-5 4 -14 22t-18 42q-15 19 -27.5 42.5t-16.5 33.5q-16 20 -16 20.5zM478 823q10 24 17 39t14.5 30t13.5 21q0 4 3 9t3 10q-1 10 6 32t26 51q9 38 19 57q4 9 13 26q0 4 0.5 12t5.5 13 q16 36 33 76.5t31 77t23 64.5t9 38q-1 15 6 15q5 0 13 -9q14 -15 22 -33t4 -37q0 -20 -18 -67t-46 -99q-15 -39 -23.5 -56t-8.5 -21q0 -5 -1.5 -13t-5.5 -12q-7 -19 -25 -58q-5 -15 -10 -27.5t-9 -16.5q0 -5 -3.5 -14t-3.5 -18q-5 -10 -10.5 -23.5t-14.5 -27.5 q-12 -32 -18.5 -49.5t-8.5 -27.5t0 -16.5t8 -15.5q4 -10 12 -22.5t13 -21.5q4 -15 13 -32.5t19 -31.5q4 -15 11.5 -28t7.5 -17q4 -5 9 -17t10 -21q4 -10 9.5 -23t10.5 -22q4 -10 16.5 -39.5t27.5 -62.5q14 -39 27 -68.5t18 -33.5q4 -15 11 -31.5t27 -64.5q18 -29 26 -51 q4 -5 8.5 -21t4.5 -30q0 -20 -6.5 -29t-25.5 -28q-10 -10 -19 -18t-13 -8q-5 0 -15 -2t-24 -11q-19 -12 -43 -12q-6 0 -13 1q-32 4 -46 24q-15 14 -13 17.5t26 8.5q19 0 34.5 6t54.5 26q24 14 40 35t12 41q0 14 -5.5 37t-14.5 33q0 4 -12.5 35t-31.5 74q-20 38 -37 75 t-21 52q-5 14 -21.5 51t-35.5 71q-15 38 -28 66.5t-17 28.5q0 4 -3 6t-3 7q0 2 -7.5 18t-16.5 35.5t-17 36t-10 19.5q-5 4 -13 12z" />
<glyph unicode="Y" horiz-adv-x="776" d="M10 1399q6 15 40 28q28 15 46 23q4 4 14.5 4.5t19.5 0.5q17 0 21.5 -4.5t17.5 -29.5q8 -13 15.5 -30t7.5 -21q25 -72 38.5 -114.5t18.5 -72.5q8 -39 16.5 -61.5t17.5 -34.5q8 -5 10 -5t7 5q3 3 12 18.5t20.5 36.5t23.5 45.5t23 46.5q8 25 18.5 44t15.5 24q15 36 28 57 q21 42 32.5 55t29.5 13q6 0 19.5 -6t28.5 -14t28.5 -16.5t20.5 -14.5q17 -13 12 -45t-35 -74q-13 -22 -17 -34q-5 -13 -37 -73t-65 -136q-39 -77 -68.5 -136t-33.5 -63q-5 -13 -5 -97.5v-270.5q-3 -151 -5 -225.5t-9 -104t-22 -28t-44 1.5h-39.5h-22.5q-9 3 -14 11.5t-7 43 t-2 106v201.5q0 123 -1.5 194.5t-4.5 113t-6.5 62.5t-9.5 43q-5 8 -9 26.5t-8 36.5q-9 21 -17 48.5t-12 53.5q-9 25 -20 61.5t-19 62.5q-18 81 -31.5 125.5t-30.5 78.5q-9 17 -9 30q0 5 2 10zM209 45q0 7 51 6q21 -2 37 -2q19 0 31 3q22 6 40 27q8 8 12 18t6.5 44.5t3 105 t0.5 200.5q0 129 1 201t7 117.5t20 80t40 88.5q30 59 67 130t58 114q29 59 45 90.5t22.5 46.5t7 20.5t-1.5 12.5q0 17 1.5 18t10.5 -7q12 -9 25.5 -27t13.5 -35q0 -13 -17.5 -48.5t-55.5 -116.5q-81 -158 -122.5 -238.5t-58.5 -142.5t-17.5 -135t-0.5 -214v-218t-3 -110 t-11.5 -43.5t-24.5 -18.5q-13 -9 -25 -10.5t-54 -1.5q-34 0 -50 1.5t-24 10.5q-34 16 -34 33zM210 1435.5q0 2.5 5 2.5q8 0 22 -20.5t23 -41.5q4 -9 8 -19.5t9 -14.5q8 -21 15.5 -49t7.5 -36q1 -11 11 -28q6 -7 6 -13l-6 -27q-9 -21 -16 -25q-1 -1 -2 -1q-5 0 -5 15 q0 4 -0.5 18t-4.5 27q-5 12 -12 33.5t-11 34.5q-13 33 -25 71t-20 59q-5 12 -5 14.5z" />
<glyph unicode="Z" horiz-adv-x="721" d="M7 241q-1 13 -1 23q0 26 7 36q14 9 42.5 67.5t70.5 152.5q51 99 69.5 138.5t18.5 49.5q-5 0 0 13q2 2 9.5 20.5t16.5 45t19 56t18 53.5q11 42 18 66.5t14.5 49t18.5 58.5t30 96q9 33 20.5 64t11.5 36q0 11 -5 17.5t-22.5 9.5t-51 4t-91.5 1q-52 0 -82.5 -0.5t-46 0.5 t-20.5 3.5t-7 8.5q-8 9 -8 29.5t5.5 43t14.5 41t19 24.5q4 4 47.5 5t109.5 1q44 0 74 -1.5t52.5 -3t41 -3.5t39.5 -4q56 -15 73.5 -28.5t32.5 -46.5q11 -25 11 -51q0 -8 -2 -18q-4 -36 -27 -82q-3 -6 -9.5 -25.5t-13.5 -43t-13 -45t-8 -30.5q-5 -10 -10 -22t-9 -16 q-15 -42 -22 -69.5t-16 -55.5q-5 -15 -10 -36t-9 -39q-24 -71 -50 -147t-44 -123q-5 -10 -6 -25q0 -5 -4.5 -14t-8.5 -18q-5 -10 -13 -25.5t-12 -24.5q-9 -29 -18 -50q-9 -22 -19 -44t-19 -44q-10 -19 -10.5 -30.5t16.5 -17.5t55.5 -9t107.5 -5q66 -3 100.5 -4.5t49.5 -9.5 t17.5 -24.5t2.5 -49.5q0 -42 -2.5 -51t-16.5 -18q-12 -6 -36 -8t-71.5 -2t-123 4t-189.5 12q-48 4 -70.5 17t-36.5 46q-15 28 -19 72zM95 75q14 0 42 -4.5t52 -8.5q23 0 84 -3t123 -3q54 -3 83.5 -4t46 -0.5t25.5 4.5t21 12q28 18 38 42q7 17 6 42q0 11 -1 23q-5 42 1 49 t25 -11q9 -15 11 -29t7 -47v-45v-30q-10 -15 -30.5 -31t-38.5 -25q-11 -2 -48 -2h-26q-60 1 -132.5 4t-143 9t-107.5 14q-24 0 -36 5t-21 20q-17 12 -17 15.5t36 3.5zM82 1241q-1 2 -1 3q1 6 17 8q20 2 110 2q51 0 79 -0.5t40 -2.5t13.5 -6t-0.5 -10q0 -5 -7 -19 q0 -5 -32 -5.5t-74 -0.5q-71 0 -94 3.5t-32 8.5q-5 4 -19 19zM264 307l44 88q14 37 26.5 66t17.5 34q0 21 19 50q28 75 53 154.5t35 127.5q9 21 19 50q4 9 8.5 28.5t9.5 34.5q4 14 9 33t10 24q4 9 9 28t10 34q28 74 38 101q0 4 3.5 15.5t8.5 21.5q24 70 26 101q1 7 0 14 q0 25 -7 55q-5 9 -6 31q13 -15 18 -19q18 -19 28 -50.5t10 -68.5q0 -29 -5 -53t-33 -85q-6 -17 -18.5 -56t-26.5 -82.5t-26 -82.5t-16 -55q-5 -15 -10 -35t-9 -34q-15 -42 -32 -101t-31 -87q-5 -10 -6 -25q-5 -5 -7 -14t-6 -18q-9 -21 -18 -50q-19 -40 -19 -50 q-8 -12 -16 -30.5t-15 -36.5t-12 -33t-7 -19q0 -6 -29 -6h-9h-38z" />
<glyph unicode="[" horiz-adv-x="471" d="M6 507v226.5v223.5v195v141q5 99 8 154t8.5 82.5t14.5 37.5t25 21q21 21 46.5 31.5t79.5 10.5q36 0 56 -1.5t29 -10t11 -25.5t2 -48q0 -64 -10.5 -73.5t-31.5 -9.5q-11 0 -28.5 -9.5t-27.5 -19.5q-6 -6 -9 -21t-4 -79.5t-1 -198v-374.5q0 -264 -1.5 -406t1.5 -208 t15.5 -76.5t39.5 -10.5q21 0 25 -11t4 -74q0 -31 -1.5 -48t-9.5 -25t-25 -9.5t-48 -1.5q-54 0 -75 10.5t-51 31.5q-11 16 -17 33t-10 70.5t-7 162t-8 309.5zM94 -147.5q12 6.5 66 -4.5q42 -10 67 -3t46 17q21 11 31 30t10 82q0 42 2 60.5t13 8.5q10 0 15.5 -30.5t5.5 -69.5 t-5.5 -75.5t-15.5 -47.5q-6 -10 -38 -13t-70.5 0t-73 10.5t-44.5 17.5q-21 11 -9 17.5zM202 760q0 241 0.5 372t4 191.5t12.5 71t25 10.5q42 0 56 26t14 101q0 42 8.5 55.5t19.5 13.5q10 -11 19 -37t9 -89q0 -38 -3 -58.5t-8 -31t-12.5 -14.5t-17.5 -9q-21 0 -56 -14 q-6 0 -11.5 -29.5t-9.5 -100t-6 -189t-2 -297.5q0 -180 -1 -299t-2.5 -190t-4 -100t-7.5 -29q-6 -6 -11 21t-8.5 101t-5.5 201.5t-2 322.5z" />
<glyph unicode="\" horiz-adv-x="663" d="M11.5 1447.5q8.5 7.5 71.5 7.5q30 0 47.5 -3t28.5 -20t19.5 -52.5t22.5 -101.5q9 -40 21.5 -91t27.5 -104.5t33 -104.5t36 -90q12 -45 27 -96t28.5 -101.5t24 -95t15.5 -74.5q18 -72 34 -143t25 -106q9 -36 22.5 -74t13.5 -56q9 -27 0 -32.5t-71 -14.5q-27 0 -50.5 1.5 t-32.5 10.5q-9 4 -24 40t-30.5 88t-29.5 112.5t-23 114.5q-9 53 -32.5 147.5t-49.5 183.5q-23 70 -48.5 156.5t-47.5 170.5t-38 157.5t-20 118.5q-9 44 -0.5 51.5zM222 1442q6 11 15 2t14 -17.5t10.5 -31t13 -66t21.5 -122.5q9 -36 19.5 -79t22.5 -86t25 -83.5t27 -70.5 q21 -72 39 -129t33 -108t26.5 -99.5t20.5 -101.5q9 -45 25 -116t34 -133q26 -80 35 -112t0 -41q-9 -14 -42.5 -23t-71 -12t-70 -0.5t-41.5 11.5q-27 18 -15 22.5t75 13.5q44 0 66 7t40 16q9 18 7.5 36.5t-19.5 81.5q-9 35 -17.5 74t-17.5 57q-9 9 -18 60t-18 105 q-18 97 -46 203.5t-72 222.5q-14 30 -32.5 94.5t-36.5 136.5t-31.5 139t-17.5 103q-9 35 -3 46z" />
<glyph unicode="]" horiz-adv-x="482" d="M8 -55q0 31 0.5 47t6 25t16.5 13t32 10q20 5 31 9t17 16t9.5 34t9.5 64v82.5v154v206v237.5q-6 219 -9.5 337.5t-9.5 175.5t-17 69.5t-31 18.5q-30 0 -36 9t-6 71q-6 30 -6.5 46.5t8.5 24.5t31 9.5t64 1.5q35 0 57 -0.5t37 -3.5t27 -8t27 -15q15 -15 23 -31t12 -67 t5.5 -154t1.5 -292v-216.5v-219v-195v-145.5q-6 -113 -9.5 -174.5t-7 -93t-9.5 -45t-16 -28.5q-21 -30 -46 -36.5t-76 -17.5q-47 -5 -72.5 -4.5t-37.5 9.5t-16.5 27.5t-9.5 48.5zM31 1386.5q7 1.5 18 1.5q21 0 30.5 -1.5t9.5 -11.5q0 -11 -14 -14q-11 0 -20.5 1.5 t-19.5 12.5q-11 10 -4 11.5zM35 -205q-11 11 10 19.5t73 8.5q71 0 116 17t86 78q10 15 15.5 36t8.5 98.5t3.5 238t0.5 457.5q-6 295 -8.5 454.5t0.5 231.5t11.5 79t23.5 -3q10 -11 15.5 -31t6.5 -99t-1 -241.5t-7 -457.5q0 -302 -1.5 -466t-7 -244t-16 -103.5t-30.5 -44.5 q-21 -20 -34 -30.5t-29.5 -14.5t-42 -2.5t-70.5 6.5q-62 0 -92.5 1.5t-30.5 11.5z" />
<glyph unicode="a" horiz-adv-x="815" d="M8 168q-2 6 -2 14q0 17 6 46q4 21 5 41t1 29t3.5 29t8.5 42q4 26 11 57.5t12 58.5q13 87 28 144t37 119q4 21 10.5 40.5t6.5 24.5q-1 10 6 29q9 26 26.5 86.5t31.5 117.5q8 43 17.5 89.5t18.5 90t16.5 81t12.5 61.5q4 35 20 51t56 25q21 5 39 5q16 0 30 -4q30 -8 30 -25 q0 -5 0.5 -16.5t5.5 -24.5q12 -47 26 -108t26 -126t23 -129t18 -116q18 -139 53 -286q4 -14 8 -37.5t9 -44.5q9 -22 14 -48t10 -39q4 -16 8 -45.5t7.5 -60.5t7 -59t6.5 -40q0 -9 0.5 -23.5t5.5 -23.5q4 -22 -5.5 -41.5t-35.5 -28.5q-31 -16 -48 -24t-26 -9.5t-14 3t-11 13.5 q-14 13 -20.5 49t-15.5 120q-5 35 -12 75.5t-11 58.5q-5 17 -9 43.5t-8 44.5q-5 21 -9.5 41t-8.5 29q-5 13 -8 24.5t2 16.5q0 4 -14 5t-62 1q-31 0 -57 3t-30 3q-7 2 -11.5 1t-9 -13t-10.5 -37.5t-16 -73.5q0 -9 -3 -25t-3 -33l-15 -81t-14 -106q-9 -40 -14.5 -62.5 t-14.5 -31.5q-5 -5 -22.5 -9t-38 -6.5t-38.5 -1.5t-24 6q-18 5 -22 21zM28 98q6 3 49 8q48 0 70.5 7t40.5 34q13 13 15 22t2 18t3.5 31.5t8.5 44.5q4 21 8 52.5t9 53.5q9 43 17.5 92t17.5 89q4 21 12.5 25t52.5 4q43 0 51 -4.5t13 -13.5q4 -22 -0.5 -25.5t-34.5 -3.5 q-18 0 -27 -1.5t-15 -11t-10 -32.5t-12 -66q-5 -18 -9.5 -43.5t-8.5 -38.5q0 -14 -4 -36.5t-8 -39.5q-7 -57 -13.5 -93t-15 -57t-19.5 -31.5t-28 -16.5q-27 -9 -68 -13t-54 1q-5 4 -15.5 12t-19.5 17q-10 9 -10 14q0 1 2 2zM286 798q4 -4 30 -9q13 0 28.5 -2.5t24.5 2.5 q13 0 15 4t2 31q0 13 -3 40t-3 54q-5 21 -9 59t-8 69q0 26 -3 46t-3 25q-5 4 -13.5 -25t-21.5 -98q-12 -42 -18 -69t-9 -45t-4.5 -31t-3.5 -25q-3 -13 -3 -20q1 -4 2 -6zM328 842q0 4 3 15.5t3 25.5q4 21 5 22.5t6 -11.5v-40q2 -34 -5 -24q-10 2 -12 12zM480 1403v29 q8 -13 17 -17q9 -9 18 -36t23 -75q30 -141 53.5 -261t28.5 -172q2 -22 7 -56.5t11 -72.5t14 -75t15 -65q4 -14 8 -32.5t9 -31.5q4 -14 8.5 -36.5t9.5 -39.5q4 -18 8 -41.5t9 -40.5q4 -21 10 -65t11 -89.5t8 -82.5q2 -22 2 -33q0 -7 -1 -10q-9 -31 -34.5 -51t-82.5 -37 q-23 -8 -38 -8h-5q-16 2 -33 20q-18 13 -19 23t13 6q4 0 22 6.5t36 11.5q86 28 94 81q0 8 -4 50.5t-9 93t-9.5 95.5t-6.5 59q-5 4 -9.5 22.5t-8.5 36.5q-5 21 -9 41.5t-8 34.5q-9 26 -20.5 80.5t-20.5 94.5q-5 17 -9.5 51.5t-8.5 65.5q-14 92 -26.5 175.5t-25.5 145.5 q-5 13 -9.5 38.5t-8.5 43.5q-5 17 -9.5 39t-8.5 31q-5 13 -8 28.5t-3 24.5z" />
<glyph unicode="b" horiz-adv-x="865" d="M4 1158q-1 81 -1 126q0 56 2 62q8 20 17.5 36.5t26.5 28.5q20 20 41 30t62 14h66h91q36 0 59 -1.5t38.5 -4t27.5 -5.5t27 -6q22 -9 35.5 -14.5t23.5 -11.5t19.5 -13.5t24.5 -19.5q28 -29 35.5 -40.5t19.5 -35.5q32 -63 32 -142q0 -46 -10 -97t-22 -71q-7 -15 -6 -22 q0 -4 -6.5 -12t-9.5 -20q-4 -9 -11.5 -22.5t-10.5 -21.5q-9 -9 -16 -21q-4 0 -6.5 -7.5t1.5 -19.5q0 -12 2 -18.5t14 -14.5q8 -12 22.5 -28t31.5 -32q3 0 10.5 -13.5t16.5 -29.5q20 -39 32 -91q11 -52 15 -104q2 -23 2 -45q0 -28 -2 -55q-4 -48 -19 -80q-4 -9 -11 -22 q1 -3 -4 -13t-13.5 -22t-17 -23.5t-14.5 -17.5l-34 -25.5t-42 -28.5q-13 -9 -33 -18.5t-39 -17.5t-34.5 -13t-18.5 -5q-21 -8 -33 -11q-37 -12 -97.5 -22.5t-113.5 -10.5q-25 1 -39 2.5t-23 5t-16.5 10.5t-19.5 20q-25 20 -33 34.5t-11 31.5q-5 12 -10.5 190t-10.5 389 t-7 389zM89 61q0 1 9 -2q6 -5 25.5 -7t46.5 -2t55.5 2t51.5 7q20 1 47.5 5.5t53.5 10.5t45 11.5t22 10.5l11 6q3 0 16.5 3.5t28.5 9.5t27 11t15 8q0 3 6 8t15 9q36 20 71 54.5t60 75.5q8 12 22 38q0 3 0.5 10.5t4.5 11.5q12 20 16 68q2 26 1 54q0 24 -1 51q-4 53 -13 97 t-25 77q-17 40 -23 53.5t-9 22.5q-16 15 0 6q12 -12 38 -49.5t38 -65.5q24 -49 32 -100q6 -38 6 -90v-38q0 -57 -1.5 -81.5t-9.5 -48.5q-41 -137 -190 -217q-78 -37 -149.5 -55t-176.5 -21q-35 -2 -57 -2q-17 0 -27 1q-23 3 -35 12q-16 16 -17 16q-7 0 -21 16q-9 12 -9 13z M174 1199q0 -12 -1 -23q0 -48 2 -100q2 -65 6 -118.5t9 -56.5q1 -3 20.5 -1t44 5t49.5 8t38 10q73 24 104.5 77t31.5 151q0 57 -10.5 79.5t-38.5 39.5q-17 12 -36 14t-84 2q-43 0 -68.5 -0.5t-38.5 -2t-17.5 -4.5t-5.5 -9q-5 -13 -5 -71zM187 639.5q0 -43.5 3 -124.5v-119 v-65.5t1 -30t4 -13.5q11 -17 27 -21q8 -2 20 -2t29 2q22 3 52 12t57 19t46 19.5t19 14.5q-1 0 5 0q3 0 13 8.5t21.5 21t21.5 26.5t15 25q8 15 10 42t-1 57t-9.5 60t-15.5 53q-12 36 -45 53t-102 34q-21 3 -52.5 9.5t-55.5 6.5q-25 1 -38 -1.5t-19 -22.5t-6 -63.5zM209 1186 q0 32 6.5 47t22 18t44.5 3q81 0 116.5 -12.5t35.5 -36.5q0 -4 -2 -7t-14 1q-37 3 -59 6t-50 0q-19 -3 -29 -6.5t-14.5 -16t-5 -39t-0.5 -74.5t-0.5 -73.5t-2.5 -37.5t-6 -15t-12 -4q-9 0 -15.5 -2t-6.5 2q-5 91 -5 157q-3 58 -3 90zM224 610v24q0 22 1 34q1 18 4.5 20t9.5 1 q8 0 22.5 -2.5t31.5 -2.5q12 0 39 -7t48 -10q32 -9 48 -16.5t28 -15.5q16 -17 12.5 -24t-23.5 2q-6 3 -28.5 8.5t-48.5 11t-49 9.5t-31 4q-17 0 -19 -6.5t2 -42.5q0 -17 3 -66.5t3 -102.5q0 -45 -0.5 -69.5t-3 -36.5t-6.5 -14.5t-12 -3.5q-9 0 -15 -2q-2 -1 -4 -1q-3 0 -3 3 q-5 113 -5 195q-4 71 -4 111zM592 857q3 3 13 20.5t20 38.5t18 38.5t8 22.5q1 9 11 27q8 16 15 65.5t7 86.5q0 53 -9 100.5t-29 84.5q-7 12 -4.5 12t15.5 -12q35 -34 60 -109q6 -13 9 -23t4.5 -23t2 -32.5t0.5 -51.5q0 -61 -2 -82t-14 -49q-4 -21 -11.5 -41.5t-10.5 -23.5 q-12 -29 -24 -50t-20 -37q-11 -16 -16 -16h-1q-5 1 -21 22q-23 18 -23 27q0 3 2 5z" />
<glyph unicode="c" horiz-adv-x="831" d="M4 791.5q0 57.5 3 112.5t10 88q4 24 7.5 39t7 28.5t8.5 28.5t12 37q9 21 13 33.5t22 47.5q17 34 37 64.5t38 57.5q8 10 23.5 25t31.5 28.5t30 23.5t19 10q4 0 15 0.5t20 5.5q26 4 81 11t116 12q21 4 40 5t24 1q3 1 7 1q9 1 19 -7q14 -10 14 -23q0 -22 -14 -56t-26 -43 q-9 -9 -21.5 -10t-42.5 -1q-60 0 -127 -18q-18 -5 -47 -29.5t-46 -45.5q-13 -13 -29 -35q1 -10 -6 -11q-13 -22 -35.5 -84t-34.5 -131q-7 -27 -10 -73.5t-3 -96.5t3 -94.5t10 -65.5q12 -61 21 -88.5t14 -39.5q8 -19 6 -29q0 -3 6.5 -16.5t15.5 -31.5t19 -37t17 -31 q4 -9 18.5 -24.5t27.5 -27.5q30 -35 52 -46t53 -6q26 0 64.5 7t51.5 16q12 9 43 7.5t49 -13.5q17 -9 24 -17q7 -9 23 -18l17 -17q2 -9 -1 -17t-15.5 -17.5t-39 -23.5t-71.5 -35q-36 -16 -60.5 -25t-45.5 -12t-42.5 1t-48.5 13q-61 12 -92 29t-65 52q-70 69 -118.5 172 t-78.5 251q-7 27 -10 79t-3 109.5zM196 737q-1 15 -1 31q0 57 7 125q17 143 65.5 238t114.5 122q21 9 40.5 10t58.5 1q26 0 40.5 0.5t23.5 3t15.5 6t18.5 8.5q17 12 28 30.5t24 79.5q4 12 8.5 23.5t9.5 11.5q4 0 8 -7t9 -11q12 -18 14 -36t-2 -39q-5 -9 -9.5 -20.5 t-8.5 -20.5q-9 -44 -35 -57.5t-86 -17.5q-48 0 -85 -5.5t-54 -17.5q-13 -9 -40 -39.5t-36 -47.5q-9 -13 -18.5 -41t-21.5 -58q-18 -48 -28.5 -112.5t-13.5 -130.5q-1 -23 -1 -46q-1 -42 3 -82q6 -62 22 -104q15 -51 26 -84t20.5 -56t19 -38.5t21.5 -30.5q19 -33 -6 -6 q-39 39 -74.5 111.5t-52.5 155.5q-22 82 -24 151zM247 102q3 0 25 -9q48 -27 79.5 -33.5t88.5 -6.5q34 0 53 1t28 10q12 6 39 18.5t54.5 25l49.5 22.5t25 10q15 8 24 17q17 18 17 52q-4 9 0 9t17 -9t23 -25q8 -12 7 -24q0 -5 -1 -9q0 -13 -12.5 -31t-33.5 -27 q-35 -18 -87.5 -41t-86.5 -40q-22 -9 -67 -9t-84 9t-78.5 29t-48.5 29q-2 10 -12 12q-13 6 -17 11q-3 6 -3 8q0 1 1 1z" />
<glyph unicode="d" horiz-adv-x="865" d="M2 1120v35q0 100 3 151q3 60 10.5 76t22.5 35q12 12 20 17.5t29 9.5q28 8 50 8t79 -8q84 -9 163 -34.5t128 -57.5q138 -88 178 -274q16 -53 21.5 -111.5t5.5 -147.5q0 -65 -3.5 -115t-11.5 -92t-20 -79t-30 -75q-9 -34 -11 -43h-5q-9 0 -11 -16q-3 -5 -13.5 -21t-23 -34 t-24 -32.5t-14.5 -15.5q-4 0 -6 -4t-5 -7q0 -4 -28.5 -31.5t-52.5 -43.5q-37 -21 -90.5 -47.5t-97.5 -38.5q-65 -17 -107 -25t-50 -8q-9 3 -30.5 20t-33.5 29q-11 12 -17 23.5t-9 66t-6 175t-6 349.5q-4 240 -4 366zM57 75q0 2 8 0q20 -17 38.5 -21t42.5 5q18 1 46.5 8 t58.5 16t56 17t38 13q69 28 114 58t86 71q40 40 75 95t76 132q3 8 13 38.5t19 63.5q6 27 10 77q4 48 6 106q2 41 2 84v34q-1 60 -7 109q-4 52 -9.5 78t-17.5 67q-9 16 -16 34t-27 63q0 3 -4 13t-12 14q-12 24 -0.5 12.5t32.5 -39.5q56 -81 79 -187t23 -271 q0 -122 -13 -205.5t-41 -155.5q-6 -12 -18.5 -32.5t-25.5 -41.5t-24.5 -39.5t-17.5 -26.5q-4 -4 -11.5 -14t-15.5 -18q-53 -69 -128 -113t-184 -76q-55 -17 -89 -25q-29 -7 -50 -7q-4 1 -8 1q-24 2 -42.5 13t-42.5 34q-19 13 -19 16zM152 1180q0 -50 1 -145.5t4 -258.5 q1 -158 3 -253t4 -146.5t4 -70t5 -21.5q8 -12 19 -12t40 12q24 3 42 12t55 26q16 8 34.5 19.5t30.5 23.5q6 3 18 17.5t24.5 30t22.5 28.5t10 16t3 5t3 6q3 0 10.5 10.5t14.5 24.5t12.5 27t5.5 18q0 3 3.5 10.5t7.5 11.5q3 3 7.5 24.5t8.5 45.5q6 30 9 79t3 102.5t-2 102 t-5 77.5q-12 44 -28.5 86.5t-36.5 75.5q-29 36 -95 70t-142 43q-17 3 -43 11q-4 1 -8 1q-7 -1 -15 -5q-12 -6 -20 -18q-5 -5 -7.5 -20.5t-2.5 -65.5zM190 1051v36q0 67 2 103q2 44 7.5 52t16.5 8q8 0 22.5 -4t26.5 -7q12 -4 22.5 -4.5t14.5 -0.5q8 -3 26 -11t39 -18.5 t40 -21.5t30 -19q8 -9 16 -22q-20 7 -32 16q-17 8 -43 17q-4 0 -15 3t-23 7q-12 3 -32.5 8t-32.5 9q-15 0 -23 -7t-11 -49t-3 -131.5v-254.5q2 -166 2 -254v-41q0 -58 -2 -89q-2 -42 -5.5 -49.5t-11.5 -8.5h-21q-3 73 -4 136t-1.5 147t-0.5 180q-4 175 -4 270z" />
<glyph unicode="e" horiz-adv-x="710" d="M1 1315.5q0 24.5 2.5 34t7.5 20.5q8 8 12.5 14.5t8.5 6.5q6 7 6 11q0 3 10 13t22 19q12 7 21.5 11t30.5 6.5t61.5 3t115.5 0.5q79 0 122.5 -1t64.5 -4.5t26.5 -11t10.5 -20.5q3 -9 6.5 -24t3.5 -30q3 -28 2.5 -34.5t-12.5 -18.5q-5 -6 -10 -9.5t-21.5 -5t-50 -1.5h-94.5 q-60 -3 -93 -4t-49 -2.5t-21 -4t-8 -5.5q-4 -12 -4.5 -32.5t-0.5 -95.5q0 -42 1.5 -65t12 -33.5t33.5 -12t65 -1.5q51 0 78 -1.5t39 -10t12 -25.5t-1 -48q0 -36 -1.5 -48.5t-9.5 -15.5q-9 -9 -36.5 -11t-107.5 -5q-35 -3 -53.5 -5t-26.5 -8t-8 -19t3 -37q1 -29 2 -87t1 -125 t-1 -132.5t-2 -108.5q0 -60 2 -71.5t14 -19.5q8 -9 12.5 -10t13.5 -1q3 0 52.5 3t113.5 3q72 1 109 1.5t52 -5.5t15.5 -21t-0.5 -45v-42v-21q-6 -9 -24.5 -14.5t-56 -8.5t-98.5 -5.5t-152 -3.5h-78t-42 2t-23 6t-17 13q-25 22 -42 53q-6 12 -9.5 21.5t-4.5 31t-0.5 63.5 t3.5 119q1 42 2 88.5t1 91.5t-1 84t-2 66q0 25 -1.5 68t-2 94t-1 105.5t-0.5 105.5q-3 90 -4 139t-1 73.5zM64 69q13 -7 22 -10q21 -9 94 -10q44 0 108 4q27 3 71.5 7t77.5 4q75 3 98.5 6t35.5 15q15 15 22 41q5 18 5 43q0 11 -1 23q0 20 0.5 36.5t4.5 16.5q0 -4 14 -19.5 t18 -23.5q3 -4 4.5 -23.5t1.5 -39.5q0 -48 -6 -70t-26 -37q-9 -5 -16 -7.5t-21.5 -4t-40.5 -2.5t-71 -2q-52 0 -91.5 -2.5t-42.5 -2.5q-4 0 -31 -3t-59 -3q-43 -4 -62 -4q-2 1 -4 1q-18 0 -30 9q-4 3 -11.5 6.5t-10.5 3.5q-4 0 -8.5 1t-7.5 10q-7 10 -15 11q-4 0 -15 13 q-8 10 -8 12q0 1 1 1zM203 1162q0 33 2 52t15.5 28t43 11t83.5 5h92t55.5 2t30.5 6t19 13q20 15 25 33.5t2 51.5q-4 15 -5 32.5t-1 21.5q0 8 1 9t5 1q24 -12 33 -44.5t9 -83.5q2 -20 2 -31q0 -7 -1 -10q-2 -8 -17 -23q-9 -9 -15.5 -13t-24.5 -7t-51.5 -4t-94.5 -2 q-60 0 -92.5 -2t-47.5 -8.5t-17.5 -20.5t-2.5 -39q-4 -48 -7.5 -57t-19.5 -12q-16 0 -18.5 11t-2.5 80zM213 337.5v85.5v137v157t0.5 81t3 31t7.5 8q8 0 35.5 2.5t60.5 2.5q56 3 71.5 5t24.5 11q24 20 28 36.5t4 64.5q3 44 6 52q1 3 4 3q4 0 11 -7q15 -16 23.5 -36.5 t8.5 -59.5q0 -69 -23 -93t-83 -24h-43.5h-47.5q-18 -3 -28 -7.5t-14.5 -28.5t-5 -73.5t-0.5 -140.5q2 -94 2 -146v-24q0 -33 -2 -51q-2 -24 -5.5 -29t-10.5 -6q-4 0 -11 -3t-10 -3t-4.5 12t-1.5 43.5z" />
<glyph unicode="f" horiz-adv-x="649" d="M0 144q0 17 2.5 51t6.5 74.5t9.5 82t10.5 74.5q6 51 12 169t9.5 250t4.5 251v44q0 84 -3 126q-2 27 -2 47q0 24 3 38q6 25 28 47q21 21 62 35t110 23h19.5h15.5q9 0 41.5 -4t67.5 -8q40 -3 62 -5.5t32.5 -10t12.5 -22.5t2 -42q4 -22 2 -41t-2 -23q-6 -25 -47 -25 q-12 0 -28 2q-22 2 -57.5 4t-69 3t-58.5 1t-27 -2q-5 -5 -5 -11.5t5 -23.5q0 -13 2.5 -49t2.5 -83q0 -61 0.5 -79.5t5.5 -18.5q90 12 148 14h16q45 0 60 -8q12 -9 15 -24t3 -62q0 -35 -1.5 -44.5t-10.5 -18.5q-7 -5 -12 -7.5t-17 -4.5t-34.5 -3t-62.5 -3q-44 0 -77.5 -3.5 t-37.5 -7.5q-8 -90 -12 -150q0 -57 -1.5 -102t-4.5 -84t-7 -76t-10 -77q-5 -27 -8 -61t-3 -60q-3 -54 -6.5 -84.5t-12.5 -45t-26 -17t-47 -2.5q-35 0 -46 1t-23 10q-9 9 -10.5 14t-1.5 32zM17 41q0 4 15 5t37 1q17 -2 32 -2q25 0 43 5q27 9 40 31q9 17 13.5 37.5t9.5 89.5 q4 43 9 98.5t14 90.5q4 34 8 97.5t4 115.5q4 73 6 113.5t5 60.5t6.5 25t10.5 8q4 0 33.5 3t64.5 3q69 4 91.5 10t35.5 24q9 12 10 27.5t1 59.5q0 26 6 69q4 0 14.5 -12t19.5 -29q9 -9 13.5 -22t4.5 -52q0 -52 -10 -72.5t-36 -37.5q-13 -9 -27.5 -13t-70.5 -4h-59.5h-38.5 q-13 -5 -16 -11.5t-7 -40.5q0 -18 -3.5 -68.5t-7.5 -97.5q0 -52 -4 -109t-8 -87q-13 -113 -18 -173t-5 -86q0 -30 -9.5 -49.5t-30.5 -36.5q-18 -9 -30.5 -10t-55.5 -1q-44 0 -54 2t-27 15q-13 9 -29 23zM259 1133v54.5v37.5q-2 5 -2 9q0 9 9 10q4 1 18 1q21 0 67 -2 q47 -3 75.5 -4t45 -1t25 2.5t15.5 7.5q21 12 25 32t4 72q0 30 5 63q9 0 20.5 -11t20.5 -23q4 -13 4.5 -30t0.5 -51q0 -52 -8 -72t-38 -37q-18 -9 -29.5 -9t-67.5 9q-35 4 -69 7.5t-46 3.5q-22 -5 -25.5 -13.5t-3.5 -55.5q4 -52 0.5 -60.5t-29.5 -8.5q-3 -2 -6 -2q-4 0 -5 6 q-2 8 -6 65z" />
<glyph unicode="g" horiz-adv-x="915" d="M11 780q2 102 11 192.5t26 141.5q3 12 11 32q-1 10 6 27q3 3 4 10.5t1 11.5q3 8 20 41t34 62q48 72 125.5 104.5t215.5 41.5q54 3 86 4q10 1 18 1q19 0 31 -3q17 -3 22 -12.5t5 -27.5q0 -33 -7.5 -62t-19.5 -41q-6 -5 -12 -7.5t-17 -4t-30.5 -2.5t-53.5 -2 q-110 -9 -154 -24.5t-68 -51.5q-29 -45 -44.5 -82.5t-31.5 -106.5q-3 -17 -5.5 -56t-5.5 -85.5t-4 -93.5t-1 -79q0 -31 1 -73.5t4 -82t5.5 -70.5t5.5 -39q3 -4 7 -14t4 -13q0 -6 5 -21t11.5 -31.5t14 -30.5t12.5 -20q41 -47 189 -54q38 -3 56 -3h10q14 2 26 14 q16 12 24 27.5t20 64.5q3 16 6.5 34.5t3.5 30.5q3 12 8 29.5t9 29.5q0 12 2.5 50.5t2.5 79.5q0 50 -1.5 75.5t-12.5 36.5t-36.5 12t-73.5 1q-39 -3 -60.5 -4t-32 -1t-14.5 2.5t-7 7.5q-12 12 -13 25.5t8 50.5q3 32 9 46.5t18 23.5q12 8 71.5 12t128.5 4q16 1 30 1 q37 0 56 -6q25 -8 49 -32q12 -12 18.5 -23.5t10 -26.5t6.5 -38t8 -59q1 -19 1 -38q0 -74 -9 -148q-12 -93 -40 -219q-29 -114 -46 -154t-41 -52q-21 -9 -55 -14.5t-72 -8.5q-24 -2 -47 -2q-15 0 -30 1q-38 2 -66 8q-17 3 -34.5 7t-25.5 4q-21 3 -54 13t-49 19 q-24 12 -50.5 37.5t-46.5 54.5q-9 16 -16.5 33t-10.5 21v11q-9 3 -19.5 42.5t-18.5 76.5q-12 66 -18 164q-4 72 -4 146q0 27 1 54zM157 119q1 -1 27 -17q34 -17 81.5 -28.5t98.5 -17.5t103 -6t95 9q42 6 68 14.5t44 29t31 56t30 95.5q12 48 18 78t15 63q3 16 7 34t4 30 q12 60 18 131q3 30 3 60q0 41 -5 80q0 44 -4 71.5t-7 36.5q-4 3 -5 16q0 8 15.5 -13t27.5 -41q12 -17 15 -36t7 -88q1 -25 1 -49q0 -65 -6 -129q-8 -87 -28 -168q-4 -17 -8.5 -38.5t-7.5 -37.5q-24 -98 -42.5 -144t-38.5 -62q-4 -4 -17 -16q-19 -2 -27 -5q-17 -9 -69.5 -18 t-92.5 -9q-53 3 -127 15t-122 33q-15 3 -33 13t-33 21.5t-25.5 21.5t-10.5 15zM208 693v42q0 56 3 111q4 75 13.5 138.5t24.5 102.5q12 40 19 56.5t24 40.5q16 24 26.5 29.5t27.5 14.5q15 3 40.5 7t53.5 7.5t55 6.5t46 6q57 0 79 19.5t34 72.5q3 16 4.5 34t1.5 30q0 16 8 18 h1q8 0 23 -18q12 -12 14 -23.5t2 -51.5q-6 -74 -38 -108q-11 -9 -18 -13.5t-17 -7.5t-26.5 -4.5t-46.5 -2.5q-25 0 -54.5 -3t-56.5 -7t-47 -9t-26 -8q-12 -9 -27 -26.5t-27 -37.5q-12 -17 -29 -71.5t-25 -102.5q-5 -19 -7.5 -37t-3 -45t-0.5 -69v-108q0 -84 1 -136t4 -86 t8 -56.5t14 -46.5q9 -29 4 -29q-4 0 -14 13q-17 20 -21 28t-12 32q-6 20 -10.5 34.5t-7.5 30t-5.5 35.5t-3.5 51q-6 69 -8 147zM372 694q9 5 87 9h65h33q5 -8 5 -11q0 -9 2 -24v-9q0 -8 -2 -10q-54 -3 -82 -4h-21q-14 0 -23 1q-15 1 -21.5 5.5t-14.5 13.5q-30 19 -30 26 q0 2 2 3z" />
<glyph unicode="h" horiz-adv-x="737" d="M0 1155q0 93 8 164t23 80q7 3 17 3h8q16 -2 50 -16q23 -5 35 -13.5t21 -17.5q9 -15 9 -26.5t-9 -48.5q-3 -19 -5 -58q-3 -39 -3 -78v-19q0 -28 2 -50q2 -30 6 -32q51 1 84 3t65.5 4t44.5 5q6 2 10 5t6.5 18t4 45.5t4.5 87.5v105.5t6 51.5t22 16.5t47 1.5q32 2 48 3.5 t22 -43.5q6 -42 6 -141v-17q0 -112 -1 -339q0 -167 0.5 -273t2.5 -172t4 -103t5 -64q4 -36 6 -55.5t1 -30t-5.5 -15.5t-13.5 -11q-15 -15 -44 -26.5t-56 -11.5q-9 0 -21.5 10t-16.5 15q0 4 -1 16.5t-5 27.5q0 18 -3 123t-3 264q-3 131 -4.5 202t-4.5 104t-8 38.5t-14 5.5 t-41 -4.5t-59 -8.5q-29 -5 -44.5 -13t-23.5 -42t-10 -105t-4 -202q0 -134 -0.5 -206.5t-1.5 -107t-3.5 -42.5t-6.5 -12q-9 -9 -20.5 -14t-48.5 -5q-42 0 -56.5 6.5t-18.5 30.5q0 4 -2 135t-4.5 299t-4 328.5t-1.5 224.5zM37 87q0 4 16.5 5.5t40.5 1.5q37 0 49.5 1.5 t31.5 16.5q9 4 17 16.5t8 21.5q4 14 5.5 96t6.5 260v190.5t2.5 99t7.5 38t15 9.5q9 0 28.5 3t34.5 3q27 0 32 -2.5t5 -16.5v-25q-26 -8 -44 -12q-17 -3 -26 -9.5t-13 -38t-4 -99v-190.5q0 -150 -1.5 -246t-5.5 -110q0 -9 -7 -19t-11 -19q-9 -9 -23 -10.5t-65 -1.5 q-52 0 -62.5 2t-24.5 17q-5 4 -13 18zM193 1099q0 9 1 43t6 76q0 37 3 70t3 42v19q9 0 23 -15t14 -29q2 -8 2 -42t-1 -73t-3 -70.5t-4 -33.5q-5 0 -10.5 -3t-14.5 -3t-12 2t-7 17zM418 37q0 4 2 6t11 7q4 0 19 1.5t24 10.5q14 4 26.5 8.5t17.5 4.5q4 0 16.5 3.5t21.5 8.5 q18 18 26 45q4 13 4 30q0 19 -5 44q0 11 -1.5 64t-3 135t-2 187t-0.5 220v320.5t1 163.5t4 59q2 6 6 6h2q13 -10 20 -23t10 -66t3.5 -165t3.5 -320v-209.5v-182.5v-136.5v-71.5q4 -38 4 -67.5t-4 -38.5q-5 -28 -40 -49.5t-91 -25.5q-9 -2 -17 -2q-14 0 -28 6q-21 8 -30 27z " />
<glyph unicode="i" horiz-adv-x="366" d="M4 234q0 22 -1 47q0 50 1 110q1 90 4 184.5t6 159.5q5 61 11 190.5t17 372.5q5 51 14 137q0 5 7 9.5t13 10.5h23h39q25 0 38 -1.5t24 -11.5q5 -6 7.5 -10.5t3 -15.5t-0.5 -32t-3 -59q0 -24 -1.5 -58.5t-4 -73.5t-4.5 -79.5t-4 -76.5q0 -78 -3.5 -149t-3.5 -91 q-3 -11 -6 -40t-5 -70.5t-2.5 -91t-0.5 -100.5q-6 -93 -10.5 -155t-10 -103.5t-12 -67t-15.5 -45.5q-11 -21 -28.5 -28.5t-35.5 -2t-33 21.5t-20 43q-3 9 -3 76zM62 55q9 -1 17 -1q30 0 53 17q29 22 40 74q9 36 14.5 63.5t8.5 57t4 65.5t1 88q0 56 3.5 132.5t9.5 128.5 q7 79 12.5 147.5t8.5 134.5t5 132.5t2 141.5q2 82 4 125q1 43 5 58q2 11 8 11q2 0 4 -2q8 -6 20 -21q2 -6 4 -13t3.5 -25t1.5 -51t-2 -89q0 -150 -9 -303.5t-19 -266.5q-6 -42 -9.5 -117.5t-3.5 -136.5q0 -211 -27 -308t-83 -97q-26 5 -51 15.5t-45 26.5q-9 12 -9 15.5 t29 -2.5z" />
<glyph unicode="j" horiz-adv-x="626" d="M0 182q5 40 7.5 52t12.5 22q5 5 13 12.5t14 7.5q25 0 66.5 12.5t67.5 27.5q15 9 28 23t19 24q17 30 28 97t16 162q4 79 4 174v38q-1 117 -8 246q-6 80 -9.5 156.5t-3.5 112.5q0 60 7 75t33 25q4 2 17 3h14.5h15.5q16 -1 31 -3.5t23 -6.5q5 0 12.5 -7.5t7.5 -12.5 q5 -6 9 -45t4 -89q0 -26 0.5 -63.5t2.5 -80t4.5 -87.5t5.5 -84q3 -81 3 -156q0 -37 -1 -73q-2 -108 -10.5 -197t-21.5 -155t-30 -103q-15 -26 -48.5 -66t-58.5 -55q-6 -6 -34 -20.5t-53 -19.5q-11 -6 -33.5 -12t-46.5 -10.5t-44 -6t-24 1.5q-26 9 -33 24.5t-7 56.5zM47 34 q-15 9 -15 15.5t15 11.5q12 0 36 3t49.5 8t48 11t33.5 12q27 12 45 21.5t32 18.5t27 20.5t31 26.5q30 27 49.5 53t32.5 62t21.5 86.5t16.5 126.5q4 42 7.5 114.5t4.5 157.5q1 43 1 87t-1 89q-1 91 -5 169q-6 50 -9.5 114.5t-3.5 180.5q9 0 25 -20t22 -40q0 -6 0.5 -32 t1.5 -65t2.5 -89t1.5 -102q2 -54 4 -104t4.5 -90t4 -67t1.5 -34q1 -12 1 -39v-31q-1 -52 -4 -113t-8 -118.5t-9 -87.5q-15 -101 -39 -155.5t-69 -99.5q-18 -15 -29.5 -25t-22 -18t-23 -15t-32.5 -16q-33 -15 -71.5 -26.5t-73.5 -16.5q-20 -2 -37 -2q-14 0 -26 2 q-28 3 -40 16z" />
<glyph unicode="k" horiz-adv-x="887" d="M6 204q2 28 8 80q0 15 0.5 46t2.5 70t5 84.5t6 90.5q0 44 0.5 89t2 84t3 68.5t1.5 43.5q2 12 3.5 44t2 75t1 94.5t0.5 104.5q0 80 0.5 129t2.5 76t5 38t6 14q5 5 21 9t48 4q33 0 50 -2.5t25 -21t10 -61t5 -122.5q0 -71 0.5 -108.5t5.5 -49.5t16.5 -3.5t32.5 29.5 q26 21 53 51t38 46q15 21 38.5 52t44.5 52t38.5 42t23.5 27q10 15 29 19.5t40 -5.5q62 -21 77 -36.5t0 -46.5q-11 -21 -37 -56.5t-47 -61.5q-37 -42 -52.5 -59t-30.5 -38q-6 -16 -28 -40t-48 -50q-50 -52 -48 -62q8 -11 27 -63q5 -21 13.5 -42.5t14.5 -26.5q5 -11 10 -28 t11 -27q11 -34 21 -56q5 -6 13 -23t14 -32q10 -21 28.5 -57.5t34.5 -67.5q25 -45 52 -96.5t50.5 -99.5t40.5 -86.5t23 -56.5q10 -27 -0.5 -40t-41.5 -23q-46 -15 -69 -15q-9 0 -14 2q-20 8 -41 55q-19 36 -41 78t-41.5 79t-33.5 63t-16 29q-3 2 -15.5 25t-27.5 52.5 t-28.5 57t-18.5 38.5q0 5 -8 23.5t-13 39.5q-11 15 -17 36.5t-11 32.5q-16 41 -25 62t-14 28t-8 3.5t-8 -10.5q-9 -9 -14.5 -25t-9.5 -55t-6 -107.5t-5 -179.5q-6 -94 -10.5 -175t-9.5 -102q-6 -42 -10 -49t-25 -7q-11 -6 -20.5 -2.5t-14.5 9.5q-6 5 -23 11t-32 17 q-16 7 -24 12q-9 4 -12 18q-2 7 -2 19q1 11 2 23zM21 84q-2 4 -2 6t5 2q9 -2 46 -22q36 -16 56 -17t41 10q26 10 37.5 72.5t17.5 218.5q0 62 3.5 108.5t3.5 57.5v32.5v64.5q0 36 3.5 58.5t3.5 17.5q5 -6 13.5 -20t14.5 -35q7 -19 11 -31t5 -30t0 -46.5t-3 -79.5 q-3 -68 -7 -136.5t-8.5 -125.5t-9 -95t-9.5 -45q-11 -21 -26 -35t-30 -14q-11 2 -37.5 13t-54.5 25t-50 27t-24 19zM243 1289q1 109 7 125q2 6 6 6q8 0 21 -20q10 -16 15.5 -34.5t5.5 -69.5v-58.5v-31.5q2 -6 -2.5 -16.5t-11 -20.5t-14.5 -17.5t-13 -7.5q-12 0 -14 145z M409 943q19 25 35 41q31 31 60.5 64.5t29.5 39.5q0 5 11 21.5t58 68.5q42 44 42 56q7 8 13 14q15 21 28.5 44t13.5 39q0 21 2 23v0q2 0 12 -9q5 -6 13 -12t8 -16q10 -16 5.5 -45.5t-19.5 -44.5q-6 -11 -20 -30t-29 -40q-11 -21 -27 -39t-21 -23q-11 -11 -20.5 -24.5 t-14.5 -23.5q-16 -21 -28 -34.5t-27 -28.5q-12 -10 -14 -21v-7v-6q-6 0 -15.5 -9t-19.5 -19q-27 -21 -28 -31.5t21 -51.5q5 -27 17 -58t18 -46q10 -16 15.5 -33.5t5.5 -22.5q21 -47 55 -116t76 -147q18 -29 29.5 -50t21.5 -42t22 -48t31 -68q31 -56 37 -90q2 -10 1 -19 q0 -21 -10 -36q-16 -16 -53.5 -29t-78.5 -13q-32 0 -45.5 1.5t-23.5 12.5q-6 10 -13.5 16t-7.5 12q24 7 35 7q21 0 58 7t53 13q26 15 35 47q4 15 4 30q0 17 -5 34q-6 12 -16.5 33.5t-21.5 43t-20 39t-11 23.5q0 5 -8 18.5t-13 29.5q-6 15 -14 29t-13 20q-9 17 -14 28 q-6 10 -15.5 28t-19.5 34q-37 62 -75.5 148t-69.5 164q-16 51 -25.5 74.5t-9.5 29.5z" />
<glyph unicode="l" horiz-adv-x="660" d="M2 1340v26.5v19.5q1 16 5 22.5t12 14.5q19 19 39 19q9 0 21.5 1t17.5 6q17 3 26 3h5q6 -2 21 -16q4 -6 6.5 -11t4.5 -17t3.5 -32.5t4.5 -56.5q2 -22 3 -80t1.5 -138.5t1.5 -177t1 -195.5v-280t1 -144t3.5 -52.5t8.5 -4.5q4 0 16.5 3.5t22.5 3.5q14 4 36 9t42 10 q24 4 46.5 8.5t37.5 4.5q14 4 27.5 5.5t18.5 1.5q19 4 33.5 -17.5t24.5 -60.5q9 -39 9 -47.5t-9 -17.5q-5 -5 -19 -9t-33 -4q-12 -3 -46.5 -7.5t-79.5 -10.5t-96 -11.5t-96 -9.5q-42 -6 -66 -6h-3q-24 0 -36 15t-14 46v24q0 26 2 64q2 45 3 181t1 295t-1 310t-3 227 q-3 56 -4 86zM31 50q3 2 33 2q14 0 56 4t81 9q43 9 99.5 15t95.5 11q39 4 60 7t32.5 6t17 7.5t13.5 12.5q9 9 11 20.5t2 31.5q0 14 -1 34.5t-5 30.5q-5 9 -7 26q-8 9 13 0q9 -5 22.5 -28.5t23.5 -62.5q9 -34 9 -53t-9 -38q-10 -20 -38 -27.5t-86 -11.5q-24 -5 -67 -10.5 t-76 -9.5q-81 -10 -126 -15.5t-69 -6.5h-14q-14 0 -20 1q-10 2 -18 8q-5 4 -13.5 12.5t-12.5 13.5q-8 7 -8 10q0 1 1 1zM198 1430q0 1 1 0q3 0 15 -7q12 -10 18.5 -21t10 -38t5.5 -80t5 -147q6 -171 10 -283t5 -188q1 -51 1 -90q-1 -20 -1 -38q0 -52 -2 -102 q-3 -54 -4 -81.5t-4 -39.5t-10 -15t-21 -7q-6 0 -8.5 6.5t-3.5 38t-1 97v182.5q1 76 1 158v83q-1 127 -4 239t-5.5 195.5t-4.5 110.5q-5 25 -3 27z" />
<glyph unicode="m" horiz-adv-x="1098" d="M0 300.5v160.5v117v114v98v70q4 62 8.5 128t9 124.5t9.5 104t10 66.5q0 18 3.5 42.5t8.5 43.5q4 36 11 56.5t26 29.5h23h38q32 0 45.5 -1.5t22.5 -10.5q4 -9 18 -25q0 -5 1 -16.5t6 -20.5q18 -55 36 -129q4 -14 9 -34.5t10 -38.5q4 -14 11.5 -35t12.5 -39q4 -14 9 -33 t10 -28q4 -14 8.5 -35t9.5 -39q4 -14 9 -34t10 -33q4 -14 8 -26.5t4 -16.5q0 -9 6.5 -30t11.5 -44q4 -24 12 -55t13 -49q4 -19 8.5 -43t9.5 -37q4 -14 8.5 -34.5t4.5 -33.5q4 -14 8 -30t4 -25q4 -5 8 -16t4 -15q0 -19 1.5 -28t10.5 -9q2 0 8 26t14.5 68.5t17.5 96.5t16 110 q4 32 8.5 71.5t9.5 63.5q4 22 9 45.5t11.5 53.5t16 69.5t24.5 95.5q4 13 5.5 32t1.5 24q0 9 3.5 20t8.5 16q0 9 3.5 30.5t8.5 49.5q4 83 24.5 103t80.5 20q12 1 21 1q31 -1 41 -11q12 -14 17 -82q4 -106 7.5 -179.5t7 -130.5t7.5 -104.5t9 -101.5q4 -65 8.5 -136t9.5 -103 q4 -35 8.5 -97t7.5 -125t4 -115v-31q0 -27 -1 -37q0 -19 -5 -26.5t-14 -16.5t-19 -10.5t-42 3.5q-30 4 -46.5 7.5t-25 17t-10.5 41.5t-4 82q-5 114 -10 204t-14 146q-5 45 -11.5 57.5t-1.5 -14.5q0 -14 -8.5 -52t-21.5 -83q-21 -77 -41.5 -144.5t-38 -120.5t-30.5 -88 t-19 -46q-9 -14 -20.5 -16.5t-47.5 -2.5q-37 0 -46.5 2.5t-27.5 16.5q-14 18 -22 38.5t-21 71.5q0 4 -7.5 39t-16.5 72q-24 78 -36 136.5t-25 114.5q-19 103 -37 160q-5 13 -10 33t-9 34q-5 18 -9.5 39t-8.5 35q-5 13 -8.5 29.5t-3.5 25.5q-7 22 -12.5 27t-9.5 -13.5 t-7.5 -65t-7.5 -126.5v-143.5v-193.5q2 -86 2 -132q0 -12 1 -22q1 -30 -1 -48q-2 -24 -5.5 -31t-9.5 -13q-9 -9 -20 -10.5t-47 -1.5q-28 0 -43.5 0.5t-24.5 5.5q-5 4 -7.5 11t-3.5 34t-1 83.5zM25 117q-2 1 -2 2q0 2 7 3q10 1 56 1h38.5t22.5 3t15 9.5t16 18.5q6 9 9.5 18 t6.5 38.5t4.5 88.5t4.5 168v168.5t1 82.5t3.5 19.5t7.5 -19.5q4 -19 8 -39.5t4 -33.5q4 -14 8.5 -27t4.5 -22q6 -15 6 -160v-80q0 -95 -1 -146t-4.5 -76t-13.5 -34t-30 -20q-14 -5 -28 -8t-46 2h-6q-68 0 -92 43zM270 1425q0 2 2 1q5 0 23 -14q9 -9 17.5 -30t13.5 -44 q2 -10 12 -49q4 -14 8.5 -31t9.5 -30q4 -19 9 -35.5t10 -25.5q4 -14 8.5 -34.5t9.5 -33.5q4 -14 8.5 -34.5t9.5 -33.5q4 -9 9 -28.5t10 -32.5q4 -19 8.5 -40t9.5 -34q4 -14 9 -31t10 -30q13 -51 22.5 -84t14.5 -51q2 -10 1 -28t-2.5 -37t-4.5 -35.5t-7 -22.5q0 -7 0 12 q0 9 -4 26t-8 36q-5 13 -13 40t-12 46q-5 18 -9.5 42t-8.5 38q-5 13 -9.5 33t-8.5 34q-9 41 -21 82t-16 65q-5 9 -10 28.5t-9 33.5q-5 13 -9.5 33t-8.5 34q-5 13 -9.5 33.5t-8.5 34.5q-5 13 -13 36.5t-12 37.5q-5 18 -10.5 39t-10.5 39q-10 37 -10 45zM424 55q24 -2 43 -6 q17 -2 32 -2q45 0 69 20q32 27 52 111q4 9 8 17.5t4 13.5q4 9 12 33.5t13 52.5q9 23 17.5 50t13.5 36q4 9 8 21.5t4 21.5q4 -7 6.5 -37t2.5 -65.5t-2.5 -66.5t-6.5 -40q-17 -40 -25 -80q-25 -91 -61 -117q-14 -9 -26 -13.5t-48 -4.5q-37 0 -61.5 9t-42.5 28q-9 9 -12 18z M780 68q30 -3 49 -7h37h24q18 4 35.5 20t26.5 30q2 9 1.5 54.5t-2.5 103.5t-5 116.5t-7 93.5q-7 66 -15 161t-15 198t-12 204t-7 180q0 36 -3 75.5t-3 53.5q-5 27 -4 31q0 2 3 1q3 0 7 -2q23 -14 30.5 -39t12.5 -108q4 -46 5 -94.5t1 -71.5q0 -35 5 -121.5t12.5 -183 t16.5 -182.5t16 -120q0 -19 3 -84t3 -138q2 -65 2.5 -101.5t0.5 -55t-2.5 -26t-6.5 -13.5q-14 -19 -37 -25q-12 -3 -32 -2q-18 0 -42 2q-42 4 -54.5 7.5t-25.5 17.5q-9 9 -18 25z" />
<glyph unicode="n" horiz-adv-x="965" d="M8 847q2 180 7.5 324t14.5 168q4 18 23.5 27.5t61.5 9.5q36 0 46.5 -1.5t19.5 -10.5q11 -17 13 -25q4 -5 5.5 -17.5t6.5 -30.5q9 -14 15 -37.5t15 -41.5q4 -18 8.5 -33t9.5 -15q7 -18 12 -31q4 -9 23.5 -40t42.5 -66t43 -64.5t25 -35.5q10 -11 12 -12q9 -21 18 -30 q18 -27 39.5 -63t39.5 -77q18 -32 23 -41.5t19 -31.5q4 -9 9.5 -25.5t14.5 -34.5q4 -14 12 -27t13 -22q0 -9 3.5 -16t8.5 -2v127q-3 88 -4.5 215t-1.5 244.5v202.5v90q0 4 6.5 11.5t11.5 12.5q16 7 46 7h8q41 0 60.5 -10.5t24.5 -32.5q2 -9 4 -128.5t4.5 -282.5t5 -337.5 t5.5 -294.5q0 -84 -1 -131t-2 -70.5t-3.5 -30t-6.5 -10.5q-12 -12 -31.5 -20.5t-40.5 -13t-39.5 -4t-27.5 7.5q-5 4 -20.5 32.5t-34 67.5t-37 79.5t-29.5 68.5q-9 18 -15 30.5t-10 30.5q0 4 -9 25.5t-27 53.5q-5 9 -12 30q0 4 -1 11.5t-5 12.5q-5 9 -17 34t-25 57 q-23 45 -38.5 74t-28.5 47q-9 9 -18 22t-13 27q-5 9 -9.5 15.5t-8.5 2.5l-6 6q2 2 -7.5 18t-22.5 37t-25.5 40t-16.5 26q-5 4 -7 9t-6 10q-1 8 -12 6q-9 0 -10.5 -19t-1.5 -91q0 -46 3.5 -108.5t8.5 -103.5q0 -21 0.5 -54t1.5 -70.5t2.5 -76.5t1.5 -72q2 -64 2.5 -99 t-0.5 -52t-4.5 -21.5t-9.5 -8.5q-9 -9 -21 -11t-39 -2q-14 -1 -26 -1q-30 0 -40 9q-15 13 -19 59q-8 77 -10 248q-2 107 -1 217q0 66 1 134zM42 139q0 4 15.5 5t51.5 1q45 0 57 4.5t21 13.5q23 18 29 43q4 15 4 44q0 18 -2 41q-3 57 -5 120t-4.5 125t-4.5 117.5t-4 97.5v115 q15 -21 24 -30q6 -12 10 -20.5t6 -26.5t4 -50t4 -91q2 -35 4 -79t3.5 -89t3 -88.5t1.5 -76.5q2 -64 2.5 -99t-1 -53t-6 -25.5t-13.5 -16.5q-18 -18 -37 -24.5t-60 -6.5q-42 0 -66 13t-37 36zM232 1353q4 2 22 -20q13 -14 27 -50t28 -77q4 -23 12.5 -52t17.5 -33 q4 -5 8.5 -16t9.5 -20q18 -27 18 -37q8 -2 25 -30q18 -28 18 -30q9 -8 18 -24q9 -17 18 -25q2 -11 30 -48q9 -14 21.5 -33t21.5 -28q18 -32 32 -61t11 -42q0 -14 -2 -10l-11 22q-5 13 -9.5 25.5t-8.5 17.5q-5 0 -13 14t-17 28q-12 20 -19 31t-13 20t-14 21.5t-21 36.5 q-14 22 -26 38.5t-16 16.5v5.5v6.5q-16 22 -25 36q-9 9 -24 31q-21 40 -30 54q-18 22 -35 60t-26 80q-9 18 -14.5 40.5t-9.5 31.5q-6 12 -6 17q0 2 2 3zM636 48q0 6 18 6q15 -3 36.5 1t42.5 11.5t39.5 17.5t27.5 19q11 13 16.5 25t7.5 49q1 18 1 46.5t-1 65.5q-2 75 -6 214 q-3 72 -5 158t-4 172.5t-2.5 166t-0.5 139.5q-2 70 -2 141.5t2 143.5q9 0 20 -14.5t16 -27.5q2 -7 5 -108.5t5.5 -257t6.5 -344t7 -369.5q0 -87 -0.5 -134t-3 -71t-7 -31t-13.5 -13q-9 -14 -30 -24q-5 0 -17.5 -4.5t-25.5 -13.5q-31 -8 -54 -8h-7q-26 2 -48 20 q-24 18 -24 24z" />
<glyph unicode="o" horiz-adv-x="865" d="M1 809q0 81 1 150.5t4 99.5q13 76 28 136t38 92q4 13 11 25t7 17q4 6 16.5 19t27.5 28t31 28.5t28 20.5q9 4 25.5 8.5t34.5 9.5q31 9 52 9t62 -9q36 -5 72.5 -16t59.5 -20q22 -14 53.5 -47.5t54.5 -60.5q18 -27 38 -79.5t29 -88.5q0 -14 3.5 -30.5t8.5 -29.5 q4 -15 5 -101v-90.5v-100.5q-1 -105 -4 -201t-7 -127q-9 -41 -21 -92t-16 -64q-5 -5 -9.5 -16t-8.5 -20q-18 -36 -53.5 -72t-66.5 -54q-83 -46 -171 -46q-8 1 -16 1q-96 4 -168 63q-9 6 -21.5 21t-24.5 31.5t-21 30.5t-11 19q-2 13 -6 18q-18 22 -34.5 97t-25.5 161 q-3 45 -4 122t-1 158zM156 643.5q0 -54.5 1 -87.5t4 -54t8 -45q13 -59 32.5 -110.5t33.5 -51.5q0 -5 3 -6.5t3 -5.5q9 -14 18 -18q27 -14 78 -16h10q44 0 68 16q36 18 59 52.5t37 79.5q9 31 15.5 117.5t9.5 186t3 192t-4 135.5q-14 67 -29 115t-37 84q-23 27 -42.5 36.5 t-59.5 23.5q-18 4 -37 5t-23 1q-36 -1 -72 -30q-7 -7 -16.5 -25t-18 -39t-14 -40t-5.5 -28q-1 -11 -12 -48q-5 -12 -8 -27.5t-4 -46.5t-1 -83.5v-137.5v-144.5zM156.5 97q1.5 0 24.5 -13q13 -5 24.5 -9.5t11.5 -8.5q6 -5 25 -8.5t43 -5t50.5 -1.5t49.5 3q40 4 60.5 12 t65.5 31q45 18 86.5 62t64.5 94q18 40 29 82.5t18.5 99.5t11.5 136t7 193q2 72 2.5 116t0.5 74t-2.5 52.5t-6.5 52.5q-14 63 -20.5 98t-15.5 58q-8 19 -24 48q-5 18 -13 31.5t-12 22.5q-5 4 -12 18q0 2 1 2q2 0 6 -4q6 -6 11 -10q4 -9 19 -24q4 -5 13 -20.5t20 -36.5 t21.5 -44t17.5 -43q13 -43 20.5 -72t10.5 -70t4 -106t1 -179q0 -88 -1.5 -145.5t-3 -94t-3.5 -58t-4 -39.5q-32 -171 -101.5 -261t-199.5 -112q-51 -14 -81 -14q-2 0 -3 -1q-30 0 -72 9q-45 13 -73 29t-59 43q-14 13 -12.5 13zM186 764q-1 30 -1 56q0 39 2 70q0 31 2.5 70 t8 77t12 70t13.5 48q9 27 24 56t24 34q6 4 23 6q14 2 29 2q4 -1 8 -1q20 0 38.5 -3.5t27.5 -9.5q13 -9 29 -25q13 -13 14 -16q0 -1 -1 -1q-1 -1 -30 6q-30 9 -53 9q-10 0 -20 -2q-28 -6 -47 -43q-35 -68 -49 -198q-8 -78 -9 -190q0 -75 4 -165q2 -59 4.5 -99.5t5.5 -70 t8 -51.5t12 -44q4 -18 12 -42q4 -9 -2 -9h-1q-6 0 -15 15q-14 18 -23 37.5t-13 46.5q-9 27 -17 87.5t-13 133t-7 146.5z" />
<glyph unicode="p" horiz-adv-x="726" d="M19 239q2 18 5.5 69.5t7 118t7 140.5t6.5 138v80.5v101.5v111v110q-6 87 -8 137.5t-2 77.5t2 37.5t8 18.5q14 28 36 47t46 29h42h71q47 0 73 -5t59 -14q70 -24 105 -50t59 -83q6 -17 10 -28.5t6.5 -32.5t4 -57t4.5 -102q0 -66 -0.5 -102.5t-2.5 -57t-6 -30.5t-10 -24 q-15 -24 -33.5 -49t-41.5 -39q-19 -15 -65 -27.5t-93 -16.5q-43 0 -55.5 -5t-26.5 -14q-6 -8 -8.5 -15.5t-4.5 -28t-3 -58.5t-3 -106q-5 -81 -9.5 -155t-8.5 -97q-5 -29 -9 -58t-4 -43q1 -8 1 -16q0 -47 -60 -47h-4q-76 0 -93 28q-9 14 -9 46q0 29 7 71zM36 64q7 1 59 -8 q23 0 35.5 1t27.5 6q33 9 45.5 36t17.5 108q4 23 9 63.5t10 69.5q0 23 3 84.5t3 123.5q2 51 3 79t3.5 41.5t6.5 17t12 6.5q94 14 157.5 31t63.5 32h12q2 0 10 9t19 21.5t22 27t19 24.5q9 18 15 37.5t9 46.5t5 66t2 96q-3 45 -4.5 73.5t-3.5 48.5t-4.5 35t-6.5 32 q-5 18 -12 50q-5 4 -7 9t-6 10q0 7 1 7l1 -1q2 -3 17 -12q4 -10 16 -27.5t22 -35.5q9 -19 14 -32t8 -32t4.5 -50.5t4.5 -87.5q0 -69 -0.5 -113t-3.5 -74t-7.5 -49.5t-13.5 -40.5q-33 -66 -93.5 -97.5t-164.5 -40.5q-24 -5 -41.5 -10t-21.5 -9v-51q-3 -39 -7.5 -110 t-10 -148.5t-11 -147t-9.5 -104.5q-5 -19 -28 -42t-41 -27q-6 -2 -17 -2q-15 0 -39 4q-41 7 -64 17q-10 0 -18.5 7.5t-12.5 17.5q-10 10 -10 13q0 1 1 1zM210 1110.5q0 -56.5 1 -106t4 -60.5q4 -19 18 -30q10 -9 24 -9q7 0 14 2q28 0 66 6.5t48 11.5q4 4 5 40t1 112 q0 51 -0.5 79.5t-3.5 43.5t-7.5 22.5t-13.5 17.5q-15 14 -30 23t-33 9q-38 9 -49 10h-2q-10 0 -18 -4q-5 0 -12 -4t-7 -8q-3 -6 -4 -52.5t-1 -103zM248 1182v14q0 19 2 30q3 13 10 14q2 1 6 1q5 0 12 -1q14 -5 26.5 -8.5t17.5 -3.5q9 -5 22 -20q10 -11 10 -16q0 -1 -1 -2 q0 -5 -8 -2.5t-17 2.5q-30 8 -31 6v-132q2 -48 2.5 -73.5t-1.5 -37t-6 -11.5q-1 -1 -2 -1q-4 0 -12 3q-10 0 -15.5 2t-8 16.5t-2.5 45.5v88q-3 56 -4 86z" />
<glyph unicode="q" horiz-adv-x="843" d="M0 686v113v96.5t1 60.5t3.5 39.5t7.5 33.5q12 64 23.5 98.5t16.5 39.5v12q4 9 22.5 49.5t40.5 70.5q6 10 18.5 25t26 28.5t25.5 23.5t17 10l11 11q9 9 30 20.5t51 20.5q43 12 93 12t85 -12q30 -13 54.5 -30t37.5 -34q8 -12 19 -30.5t21 -39.5t18 -39.5t11 -28.5 q0 -5 3 -15t8 -14q0 -5 4.5 -31.5t13.5 -60.5q2 -29 3.5 -51t2.5 -52t1 -75.5t-2 -120.5q0 -81 -1.5 -133.5t-4.5 -89t-7 -63t-10 -53.5q-13 -39 -30.5 -81t-38.5 -68q-18 -27 -18 -32t13 -14q34 -30 49 -41t20 -11q12 -5 23 -23t11 -35q0 -30 -8.5 -53.5t-20.5 -32.5 q-9 -9 -15.5 -8t-18.5 14q-9 4 -23 14.5t-23 19.5t-24.5 23t-27.5 23q-9 9 -23 20.5t-23 20.5q-13 12 -20.5 14.5t-19.5 2.5q-12 -5 -32 -6.5t-42.5 -0.5t-44 4.5t-36.5 8.5q-57 12 -105.5 48t-78.5 84q-5 6 -13.5 21.5t-17 33t-13.5 31.5t-2 17q-8 20 -12 29 q-12 32 -17.5 56.5t-8.5 55t-3 74.5zM136 732q3 -34 8 -77q17 -113 48.5 -178.5t83.5 -91.5q21 -9 36 -10t33 4q26 9 49 12.5t32 -0.5q9 0 15 2.5t19 20.5q19 23 32 55t21 82.5t12 123t4 176.5q0 54 -0.5 90.5t-1.5 63.5t-3 47t-6 40q-13 90 -32.5 135t-53.5 67 q-22 12 -40 13t-52 -8q-39 -18 -72.5 -45.5t-54.5 -74.5q-20 -39 -33.5 -75.5t-22.5 -77t-13 -88.5t-6 -110q-3 -38 -3 -66q0 -17 1 -30zM161 241q-2 2 -2 3t3 1q6 0 11 -9q12 -12 37.5 -21.5t55.5 -15.5t63 -9t62 0q39 0 47.5 -3t21.5 -15q17 -13 16 -16t-27 -7 q-17 -2 -35 -2q-34 0 -75 7q-62 9 -109 36q-22 9 -45.5 27.5t-23.5 23.5zM173 891q9 99 25.5 164.5t43.5 117.5q30 43 61.5 68t70.5 30q42 0 58 -18q9 -13 7 -16t-19 -7q-93 -16 -144 -126q-35 -69 -49 -148.5t-14 -208.5q0 -96 6.5 -151.5t28.5 -106.5q12 -44 13 -49.5 t-8 3.5q-48 56 -69 177q-14 83 -14 182q0 43 3 89zM501 132v12q5 -8 5 -12q-7 0 -5 0zM512 121q0 4 4 1t13 -7q4 -9 4 -10t-9 4q-10 11 -12 12zM541 98v11q6 -7 6 -11h-6zM598 57q15 -12 31 -12q19 0 38 18q12 12 18 23t11 46q4 21 5 39.5t1 23.5q0 9 2 9t15 -9 q21 -18 25 -49q1 -8 1 -17q0 -28 -9 -66q-9 -27 -19.5 -40t-31.5 -17q-7 -2 -13 -2q-11 0 -20 6q-16 8 -42 30q-18 17 -18 19q0 1 6 -2zM607 301q0 6 9 27q21 30 33 61t30 105q6 15 10 53t7 89t4.5 109t1.5 112q0 181 -16 293t-59 190q-7 18 -5 18q3 0 22 -30 q17 -22 32 -49.5t20 -53.5q4 -5 9 -22.5t14 -29.5q4 -18 8 -33t4 -19v-27.5t5 -35.5q4 -27 5 -81t1 -166q1 -47 1 -87q0 -30 -1 -55q-1 -59 -4.5 -104t-10 -79t-14.5 -66q-5 -15 -12 -36.5t-14.5 -41.5t-14 -35.5t-10.5 -19.5q-2 -9 -12 -17q-4 -4 -6 -4t-2 1q-4 2 -21 15 q-14 12 -14 19z" />
<glyph unicode="r" horiz-adv-x="776" d="M2 1128v35q0 99 3 149q3 58 11.5 70.5t23.5 27.5q21 21 40 31t58 15h63.5h85.5q99 -5 148 -21.5t92 -58.5q15 -15 27 -39.5t21 -51.5t13 -53t2 -45q-5 -26 -8 -45t-15 -70q-13 -39 -34 -71t-46 -49q-25 -28 -34 -29q-5 -5 -16.5 -12t-23.5 -11q-13 -5 -35 -17 q0 -5 11 -13.5t24 -20.5q42 -39 69.5 -80.5t47.5 -108.5t36 -171.5t36 -269.5q3 -39 5 -61.5t1.5 -34.5t-3.5 -18t-9 -12q-9 -9 -18 -13.5t-39 -4.5q-35 0 -45 4.5t-18 13.5q-16 17 -17 28q0 6 -3.5 29t-8 56t-9.5 69.5t-8 69.5q-5 25 -8 48t-3 32q4 4 1 22.5t-7 40.5 q-9 49 -16.5 81.5t-16 57t-19.5 46.5t-28 50q-22 25 -51.5 55.5t-46.5 35.5q-5 0 -12 3.5t-11 8.5q-5 8 -16.5 8t-23.5 -8q-3 -5 -5 -14t-3.5 -42t-2 -99t-0.5 -183v-217t-6 -102t-21.5 -28.5t-47.5 3.5q-39 0 -49.5 1.5t-18.5 10.5q-3 3 -4.5 22.5t-2.5 81t-2 179t-3 318.5 q-4 244 -4 371zM34 100q4 4 47 4q34 -5 47.5 -2t26.5 8q17 10 25.5 18.5t11.5 41.5t3 102.5v203.5q0 105 0.5 167t2.5 94.5t4 41.5t5 7q4 0 11 -6q4 0 12.5 -7.5t21.5 -15.5q27 -26 12 -17q-5 4 -12 5t-11 1q-1 -6 -3 -80q-1 -25 0 -59q0 -70 3 -182q0 -114 -0.5 -179.5 t-1.5 -98.5t-3.5 -43.5t-5.5 -16.5q-13 -18 -35 -23.5t-69 -5.5q-39 0 -50.5 1.5t-23.5 10.5q-19 21 -19 28q0 1 1 2zM155 1141q2 -57 4 -86.5t8 -41.5t17.5 -12.5t33.5 2.5q30 2 61.5 11t58.5 21t45.5 26.5t23.5 27.5q8 21 18.5 61.5t10.5 53.5q4 25 -11.5 46t-40.5 34 q-46 16 -177 17q-35 -5 -41.5 -8t-10.5 -15v-49.5v-87.5zM187 1256q3 6 25 11q30 0 73 -2t65 -10q21 -5 36 -13.5t15 -20.5q-50 -6 -80 -6t-46.5 -1.5t-24 -10t-8.5 -25.5t-1 -49q0 -37 -1 -56.5t-4 -28.5t-10 -10.5t-19 -1.5q-9 0 -10.5 10t-1.5 53q0 25 -3 59t-3 56 q-3 24 -3 36q0 8 1 10zM470 889q30 21 57 46t40 51q8 17 18.5 40.5t10.5 28.5q0 4 4 15.5t13 24.5q4 21 8 43.5t4 65.5q0 27 -1.5 44t-4.5 31t-10 29t-19 39q-9 12 -8 13v0q2 0 14 -7q34 -35 51.5 -85t17.5 -110v-18q0 -89 -35 -165q-39 -84 -108 -126q-13 -9 -24 -14 t-11 -9q-15 14 -23 23q-17 16 -17 21t23 19zM484 44q6 3 49 3q39 -5 50.5 -1.5t24.5 12.5q26 12 32 32q4 12 4 36q0 15 -2 35q-3 36 -8.5 87t-12.5 105t-15 106.5t-16 91.5q0 17 -2.5 32.5t-2.5 24.5q-5 25 -15 59.5t-14 43.5q-5 4 -8 11t-3 12q-5 8 -12 19.5t-11 20.5 q-15 25 -12 25q2 1 2 -1q8 -6 33 -41t44 -76t34 -101.5t27.5 -147.5t25.5 -213q6 -63 8 -100q2 -23 3 -40q1 -10 -1 -18q-2 -21 -8.5 -31t-18.5 -18q-13 -9 -26.5 -10t-47.5 -1q-43 0 -62 3t-36 25q-5 7 -5 11q0 3 2 4z" />
<glyph unicode="s" horiz-adv-x="754" d="M6 268q0 11 18.5 19.5t42.5 12.5t48 3t34 -10q23 -24 45 -30.5t74 -6.5q42 0 57 5t43 20q37 18 53 47.5t16 95.5q1 12 1 24q0 60 -18 107q-21 56 -77 113q-9 9 -18 17.5t-13 13.5q0 4 -20 27.5t-43 47.5q-61 65 -92 106.5t-58 93.5q-24 46 -33.5 81t-9.5 87 q4 102 48.5 184.5t119.5 115.5q23 9 40.5 10.5t59.5 1.5q65 0 125 -14.5t69 -28.5q9 -9 8.5 -19t-14.5 -37q-24 -42 -38 -58.5t-37 -16.5q-9 0 -21.5 3.5t-16.5 8.5q-5 0 -18.5 3t-31.5 3q-9 1 -17 1q-31 0 -52 -12q-27 -15 -50 -57q-8 -15 -11.5 -37t-3.5 -46t3.5 -45.5 t11.5 -34.5q14 -33 46.5 -78t60.5 -78q14 -15 33.5 -34.5t34.5 -33.5q70 -80 107 -128.5t56 -90.5q14 -38 22.5 -96t8.5 -91q0 -38 -12 -93t-26 -88q-19 -33 -47.5 -66t-51.5 -47q-21 -10 -49.5 -20t-58 -17.5t-57 -11.5t-48.5 -1q-38 0 -83.5 13t-72.5 37q-15 9 -31 26 t-30 35q-13 18 -21 36q-6 13 -6 22q0 3 1 6zM93 93q0 -5 13 -12q11 1 31 -7q9 -9 31.5 -10.5t74.5 -1.5q35 -3 57 -3q12 0 22 1q24 3 52 8q51 16 87.5 34t64 42t49.5 58.5t43 84.5q4 13 7 37t5 52.5t2 57.5t-2 53q-3 21 -7.5 46t-10 48t-10.5 40t-9 22l-7 12q2 11 -25 50 q-9 14 -25 38q8 -4 13 -13q9 -5 12 -12q0 -5 4 -9t9 -4q4 -3 13.5 -17.5t20 -34t20.5 -40t15 -33.5q18 -47 27.5 -87.5t9.5 -105.5q0 -66 -6.5 -102.5t-24.5 -78.5q-15 -28 -38 -63t-37 -44q-5 -5 -13 -9.5t-12 -8.5q-9 -9 -35 -22t-59 -22q-80 -28 -161.5 -28t-137.5 28 q-9 4 -25 16t-25 21q-15 13 -15 17q0 2 2 2zM254 1166q5 48 33 76q14 14 28.5 18t52.5 -5q32 -5 50 -7t28.5 -2t17 2t16.5 7q9 9 21 18.5t17 18.5q18 33 30.5 59t12.5 41q0 18 2 20h1q3 0 10 -7q18 -15 21.5 -27.5t3.5 -35.5q0 -15 -2.5 -30.5t-16.5 -38.5q-38 -66 -75 -75 q-19 -5 -29 -3.5t-52 16.5q-38 7 -56 6q-28 -5 -48.5 -42t-20.5 -83q0 -19 2 -35.5t17 -39.5q9 -19 17.5 -32.5t13.5 -17.5q9 -9 9.5 -10.5t-3.5 -1.5q-3 0 -14 14t-25.5 34t-28 41t-19.5 36q-15 29 -15 66q0 10 1 20z" />
<glyph unicode="t" horiz-adv-x="802" d="M4 1392q3 11 8 16q4 4 37 9t82.5 10t109.5 9t118 7q128 9 204 9t85 -9q6 -5 10.5 -23t6 -39t0.5 -42t-5 -31q-5 -5 -9.5 -11.5t-8.5 -6.5q0 -5 -33.5 -6.5t-72.5 -5.5q-38 -3 -58.5 -6t-30.5 -15t-12.5 -37t-4.5 -71q0 -27 -1.5 -86t-2.5 -136.5t-1.5 -166.5t-0.5 -177 q0 -91 -1.5 -172.5t-2.5 -143.5t-1.5 -99t-0.5 -39q-5 -18 -24 -24.5t-58 -10.5q-31 -5 -40.5 -1t-18.5 13q-7 4 -11 10.5t-5.5 31t-1.5 76v147.5v124v150v157v146q2 63 3 120t1.5 99t1.5 93q0 4 -31 2t-75 -2q-45 -5 -79.5 -5t-38.5 5q-35 8 -35 95q-3 16 -3 27q0 6 1 10z M35 1207q0 4 2 5t16 1q9 0 36 0.5t58 5.5q26 4 49 5t28 1q6 -14 6 -23q0 -22 -8.5 -27t-56.5 -9h-50h-27q-14 4 -29 15.5t-24 25.5zM277 47q0 4 19 8t46 4q57 4 77.5 12t34.5 35q2 9 3 24.5t1.5 66.5t2 152t4.5 281q0 103 0.5 198.5t1.5 170.5t2.5 124t1.5 61 q4 44 13.5 51.5t63.5 7.5q66 0 93.5 5.5t41.5 23.5q13 18 15.5 29t2.5 60v64q9 0 20.5 -10t20.5 -19q4 -9 5 -26.5t1 -56.5q2 -21 2 -36q0 -25 -4 -37q-6 -20 -33 -33q-14 -9 -29.5 -10t-76.5 -1q-62 0 -73.5 -6t-15.5 -36q0 -7 -1.5 -55t-2.5 -124t-1.5 -174t-0.5 -206 q-3 -197 -4.5 -304t-3 -158t-3.5 -64t-6 -22q-5 -9 -16 -17t-20 -12q-7 -5 -25 -8.5t-38.5 -5t-38.5 -1.5t-27 3q-9 0 -29 18t-24 23z" />
<glyph unicode="u" horiz-adv-x="870" d="M0 878q2 182 3 286.5t2 158.5t2.5 72t4.5 27q8 8 13.5 12.5t14.5 9.5h26h36q29 0 44 -2t21 -22q6 -19 6 -60q-1 -3 -1 -7q0 -46 -2 -135q-5 -251 -7 -408.5t-2 -249t2 -130t7 -50.5q8 -30 23 -53.5t28 -31.5q10 -1 11 -11q8 -9 46.5 -16t72.5 -7q84 0 119.5 42.5 t44.5 144.5q2 33 3 116.5t1 179.5t-1 184t-3 131q-5 51 -8 118t-3 114q-3 59 -3 91t9 46t29 16q9 1 20 1q15 0 36 -1q30 -5 41.5 -7t20.5 -10q3 -7 5.5 -13t4 -22.5t2.5 -48.5t5 -91q0 -69 3 -140t3 -104q3 -43 4 -139v-97.5v-100.5q-1 -102 -4 -188t-6 -109 q-5 -28 -14 -57.5t-19 -54.5t-19.5 -42.5t-15.5 -20.5q-10 -1 -11 -12q-8 -13 -12 -17q-9 -5 -13.5 -11.5t-8.5 -10.5q-15 -8 -74 -40q-18 -9 -38 -10t-75 -1q-56 0 -78 2t-52 15q-56 17 -76 23.5t-32 15.5q-5 4 -17 12q-5 -3 -16 7t-23.5 26t-25 35t-20.5 34 q-13 27 -20 45.5t-10 72.5t-3.5 166t-0.5 327zM119 108q-16 15 -16 18t22 -12q38 -20 83.5 -34t93.5 -20q44 -6 86 -7q2 1 6 1q46 0 82 9q21 8 49 20t41 25q21 12 48.5 42t36.5 43q1 17 12 17q8 27 17 40q15 42 23.5 77t13 83t6.5 120.5t2 189.5q0 53 -1.5 105.5t-2.5 97.5 t-1.5 80.5t-0.5 55.5q-5 42 -8 106.5t-3 120.5v136q8 0 23.5 -22.5t15.5 -34.5q3 -13 7.5 -82t7.5 -166t5.5 -209t2.5 -211q1 -66 1 -119q-1 -40 -1 -74q-2 -78 -6 -131.5t-12.5 -89.5t-20.5 -67q-5 -9 -12 -23q0 -5 -6 -17t-14.5 -27t-18 -29.5t-17.5 -22.5 q-39 -43 -96 -65t-120 -26q-13 -1 -26 -1q-31 0 -66 5q-49 7 -94 21t-83 33.5t-59 43.5zM200 450q0 14 -1 33q0 39 1 95q1 86 4 243q2 84 3 166.5t1.5 151.5t1 119.5t0.5 72.5q0 59 1 75t10 16q4 0 9 -7.5t14 -15.5q3 -7 5.5 -19t3.5 -63t1.5 -159.5t0.5 -307.5 q0 -109 -0.5 -205t-1.5 -168t-1.5 -113t-2.5 -41q-1 -1 -3 -1q-5 0 -15 14q-13 18 -21 38q-5 10 -7.5 22t-2.5 54z" />
<glyph unicode="v" horiz-adv-x="892" d="M3 1381q0 29 9 38q9 4 37 14.5t46 15.5q7 1 14 1q19 0 35 -8q22 -11 22 -29q0 -3 4 -19.5t10 -39.5t13.5 -47t14.5 -42q4 -9 8.5 -27.5t9.5 -31.5q16 -62 41 -149q4 -9 5 -20.5t1 -15.5q1 -9 12 -35q4 -23 13 -51.5t23 -85.5q4 -18 8.5 -38.5t9.5 -38.5q4 -14 8 -33 t9 -32q4 -14 8 -26t4 -16q0 -5 0.5 -16.5t5.5 -24.5q4 -14 8.5 -33.5t9.5 -32.5q13 -45 20 -35t16 77q4 13 7.5 33t3.5 38q4 13 8.5 39.5t9.5 49.5q4 22 8.5 55.5t9.5 51.5q4 18 8.5 48t9.5 53q4 27 8.5 58t9.5 49q4 22 8.5 53t9.5 54q11 69 17 106.5t10 55.5t8.5 23.5 t11.5 10.5q13 9 25.5 13.5t39.5 4.5q62 0 73 -20q4 -7 4 -23q0 -26 -11 -76q-9 -36 -18 -79t-18 -82q-14 -72 -23 -105.5t-13 -60.5q-5 -14 -9 -36.5t-8 -40.5q-9 -41 -15.5 -67.5t-10 -45t-6 -33t-4.5 -32.5q-9 -36 -21 -77t-21 -89q-18 -71 -35 -167q-5 -14 -9.5 -39.5 t-8.5 -43.5q-5 -18 -9.5 -41.5t-8.5 -41.5q-5 -14 -8.5 -29t-3.5 -24t-7 -21t-11 -21q-14 -14 -21.5 -15.5t-43.5 3.5q-45 0 -65.5 9.5t-29.5 32.5q-5 9 -9.5 39t-8.5 62q-3 42 -7 86.5t-8.5 85.5t-8 74t-5.5 51q-5 9 -9.5 31t-8.5 40q-5 18 -9 32.5t-8.5 33t-10 45 t-14.5 67.5q-9 22 -14.5 48t-9.5 35q0 4 -3.5 19t-7.5 29q-5 13 -9.5 32t-8.5 33q-9 27 -16.5 53t-25.5 84q-9 22 -14.5 42t-9.5 29q0 9 -2.5 17.5t-2.5 17.5q-5 9 -9.5 24.5t-8.5 29.5q-5 13 -9.5 31.5t-8.5 27.5q-9 22 -9 51zM208 1407q-2 9 -2 13q0 6 3 6q5 0 17 -13 q6 -9 14 -28t15 -40t12.5 -40t5.5 -28q1 -11 12 -30q4 -9 8.5 -24.5t9.5 -28.5q4 -18 8.5 -38.5t9.5 -33.5q18 -58 24 -80t11 -44q9 -28 18 -66q4 -14 8.5 -33.5t9.5 -37.5q4 -23 8.5 -42.5t9.5 -28.5q4 -18 4 -30.5t-4 -34.5q-5 -32 -9.5 -35t-8.5 29q0 9 -4 23.5t-8 23.5 q-5 13 -11 37t-12 51t-11 51.5t-7 38.5q-5 9 -9.5 31.5t-8.5 40.5q-9 18 -17.5 47.5t-12.5 52.5q-18 62 -22.5 86t-13.5 51q-9 13 -14 32t-9 33q-5 13 -9.5 29t-8.5 25q0 4 -3 15t-3 20zM303 53q29 -2 47 -6q20 -2 36 -2q20 0 34 3q26 6 43 29q13 13 24.5 42t11.5 47 q0 4 3.5 16t8.5 26q4 27 12.5 63t22.5 103q4 18 8.5 40.5t9.5 36.5q4 13 5 25t1 17q0 4 3.5 19.5t8.5 33.5q4 18 8 34t10 42.5t15.5 68.5t25.5 111q4 18 8.5 40.5t9.5 36.5q4 13 8.5 39t9.5 44q4 18 8.5 40.5t9.5 36.5q4 18 8.5 41.5t9.5 41.5q9 48 17.5 87.5t17.5 79.5 q9 22 10.5 39t1.5 26q0 10 7 10q4 0 11 -4q4 0 11.5 -7.5t12.5 -16.5q9 -14 9 -35t-9 -60q-5 -9 -9.5 -29t-8.5 -42q-9 -36 -16 -70t-20 -96q-18 -67 -25 -103.5t-16 -75.5q-5 -18 -9.5 -41.5t-8.5 -41.5q-5 -14 -9.5 -36.5t-8.5 -40.5q-5 -18 -9.5 -44t-8.5 -39 q-5 -27 -11 -59t-24 -107q-14 -58 -23.5 -97.5t-18.5 -75.5q-5 -18 -9.5 -44.5t-8.5 -44.5q-9 -36 -14.5 -58.5t-10.5 -37t-11 -23t-17 -17.5q-14 -14 -24.5 -16t-46.5 -2q-45 0 -70 6t-43 24l-16 16q-4 4 -4 6q0 1 2 1z" />
<glyph unicode="w" horiz-adv-x="1275" d="M2 1361v23q0 34 4 40q4 4 20 5t53 1h43h25q13 -9 19.5 -30t11.5 -62q4 -45 10.5 -101.5l13 -113t13.5 -105.5t12 -79q4 -19 8.5 -43.5t9.5 -42.5q0 -14 3 -31.5t3 -30.5q4 -12 8.5 -33.5t8.5 -43t7.5 -40t6.5 -24.5q-2 -18 6 -18q4 -5 10.5 20t20.5 103q4 23 8.5 50.5 t9.5 41.5q4 13 9 37t10 43q4 23 11.5 48.5t12.5 49.5q9 45 19 83t24 89q4 27 12 53t13 45q11 45 18.5 72.5t13.5 42.5t12.5 21t16.5 11h43q9 -5 21.5 -5.5t21.5 -0.5q13 0 21 -7.5t22 -16.5q18 -19 21.5 -28t3.5 -22q0 -15 4.5 -51.5t12 -81.5t16.5 -90t16 -77 q11 -39 22 -90t20.5 -102t17.5 -98t13 -79q0 -9 4 -21t9 -16q0 -5 3 -5t3 5q4 4 5 15t1 16q0 9 3.5 32.5t8.5 47.5q4 23 9 54.5t10 55.5q4 23 8.5 55t9.5 56q4 23 8 44t4 30q-3 9 -1.5 27t7.5 54t18.5 95t31.5 149q4 23 9.5 34.5t14.5 20.5q17 10 25 12q24 -8 43 -12 q36 -15 54.5 -24t23.5 -26t-0.5 -48.5t-16.5 -91.5q-14 -60 -22.5 -115.5t-8.5 -68.5q0 -9 -4 -30t-8 -44q-9 -42 -21.5 -118.5t-21.5 -145.5q-5 -24 -9.5 -58t-8.5 -52q-5 -24 -9 -44.5t-4 -29.5q0 -5 -1 -24.5t-5 -37.5q-5 -19 -9.5 -59t-8.5 -76q-9 -33 -15 -72.5 t-10 -62.5q-5 -19 -8.5 -38.5t-3.5 -28.5q0 -19 -18 -37q-14 -14 -22 -15.5t-40 3.5q-65 4 -86 23t-30 75q-5 60 -21 136.5t-29 127.5q-10 39 -15.5 63.5t-8.5 43.5t-5.5 36t-6.5 41q-5 23 -13 55t-12 56l-12.5 67.5t-11.5 73.5q-5 32 -19 80q-8 8 -24 -49q0 -14 -5 -38.5 t-14 -47.5q-5 -28 -9.5 -61t-8.5 -56q-9 -65 -29 -145t-33 -131q-5 -24 -9.5 -48.5t-8.5 -37.5q-5 -19 -9.5 -43.5t-8.5 -42.5q-12 -56 -22.5 -89t-23.5 -50.5t-31.5 -22t-45.5 -4.5q-51 0 -70.5 17t-28.5 63q0 9 -4 32.5t-8 47.5q-14 64 -23.5 122.5t-13.5 104.5 q-5 51 -11 102.5t-19 93.5q-5 23 -8 41t2 27q0 4 -4.5 19.5t-8.5 29.5q-9 41 -18.5 102.5t-18.5 130.5q-5 32 -9.5 81t-8.5 91q-14 92 -16 146zM202 67q0 4 19 5t43 1q69 4 101 23t46 75q4 23 10.5 50t20.5 73q4 18 8 34t4 21q0 4 0.5 16.5t5.5 26.5q4 9 8.5 32t9.5 42 q4 18 9 45t10 41q4 20 9.5 47t11.5 54.5t11.5 52.5t10.5 42q0 18 3.5 30.5t8.5 12.5q6 -23 6 -36q0 -14 4 -37.5t9 -36.5q4 -24 4 -37.5t-4 -36.5q-5 -14 -10 -38t-9 -42q-5 -19 -9.5 -44t-8.5 -48q-9 -33 -19.5 -83t-23.5 -101q-5 -14 -10 -38.5t-9 -47.5 q-14 -60 -26 -82.5t-35 -40.5q-19 -9 -30 -13.5t-62 -4.5t-62.5 5.5t-29.5 19.5q-9 4 -25 18zM208 1399q-1 6 -1 10q0 6 3 5q7 0 29 -27q13 -14 17.5 -29t13.5 -75q4 -33 5 -65.5t1 -45.5q0 -9 3.5 -37.5t8.5 -60.5q9 -51 13.5 -81.5t5.5 -51t-1 -35.5t-6 -35 q-5 -37 -8.5 -49t-3.5 12q0 9 -4 28.5t-8 33.5q-5 20 -12.5 71.5t-16 114.5t-15.5 129t-11 115q-5 23 -9 45.5t-4 27.5zM706 1338v23.5v19.5q-4 13 -4 17v1q1 0 4 -6q27 -24 38.5 -46t16.5 -77q4 -51 13.5 -109t23.5 -99q10 -37 10 -91v-12q0 -45 -4 -69q-5 -19 -8.5 -15.5 t-3.5 27.5q0 4 -4.5 20t-8.5 35q-5 13 -9.5 40t-8.5 46q-5 18 -13 48.5t-12 49.5q-5 25 -10.5 54.5t-10 57t-7 50.5t-2.5 35zM753 60q7 2 63 2q55 0 66.5 1.5t25.5 15.5q11 9 17 17t11.5 26t11 50.5t15.5 90.5q4 23 9 59t10 64q9 64 20.5 139.5t23.5 147t21.5 131t14.5 92.5 q4 18 5 37t1 24q0 4 4.5 31.5t13.5 60.5q4 27 9 67t10 68q4 23 8.5 50.5t9.5 41.5q4 18 8 42.5t4 43.5v37q2 1 4 1q7 0 19 -11q14 -14 20 -27q9 -14 9 -50t-9 -72q-19 -78 -26.5 -125.5t-16.5 -102.5q-5 -37 -9.5 -77t-8.5 -58q-5 -19 -9.5 -54t-8.5 -62q-5 -28 -10.5 -68 t-14.5 -67q-9 -60 -15 -108t-10 -89q-5 -14 -8.5 -38t-3.5 -42q-5 -24 -12.5 -59.5t-11.5 -62.5q-10 -65 -15.5 -101.5t-10.5 -55.5t-10 -26.5t-14 -13.5q-25 -19 -41 -24q-8 -2 -22 -2t-35 2q-42 4 -71.5 14t-38.5 29q-5 5 -5 8q0 2 3 3z" />
<glyph unicode="x" horiz-adv-x="876" d="M6 141q-2 3 -2 11q0 13 6 40q8 42 28 95q4 19 9 39t10 25q0 9 7 29.5t12 40.5q4 19 12 36.5t13 27.5q0 9 8 27.5t18 42.5q52 96 86.5 161t34.5 75v13q4 0 -3.5 24t-21.5 53q-20 33 -34.5 63t-23.5 45q-8 16 -23 48.5t-32 68t-32 67t-21 46.5q-10 9 -20 29t-19 35 q-10 24 -10.5 33t4.5 24q4 14 33.5 40t49.5 31q12 2 21 -0.5t19.5 -14.5t25 -36t36.5 -64q4 -10 8.5 -16t4.5 -10q2 0 20 -35.5t39 -78t38.5 -78.5t17.5 -38q0 -15 10 -12.5t15 12.5q9 24 21.5 55.5t17.5 46.5q4 9 12 26v19q4 4 14 28.5t25 48.5q33 90 49.5 126.5t26.5 51.5 q13 8 29 8h3q18 -1 58 -20q24 -15 36 -26t13.5 -26.5t-6.5 -40.5t-24 -67q-10 -20 -19 -37.5t-13 -26.5q-9 -22 -19 -51q-10 -22 -19 -44q-5 -5 -10.5 -16.5t-9.5 -15.5q0 -10 -4 -23t-8 -22q-5 -20 -14 -43t-37 -85q-12 -34 -19 -52t-7.5 -29.5t4.5 -20.5t15 -25 q9 -20 21 -40.5t17 -29.5q4 -10 32.5 -71.5t57.5 -133.5q33 -77 58.5 -136t30.5 -68q4 -5 9 -17t10 -21q4 -10 9 -23t10 -22q9 -24 9 -45.5t-9 -30.5q-8 -8 -23 -17t-32 -16t-32 -11t-21 -1q-8 2 -14 7t-14 18t-19.5 37.5t-29.5 65.5q-15 42 -29.5 72.5t-14.5 35.5 q-5 4 -10 15.5t-9 16.5q-5 24 -18 51t-27 51q-5 9 -10 25t-9 26q-5 9 -10 22t-9 23q-5 4 -9 12t-4 13q-3 14 -7 19q-10 14 -13.5 11.5t-17.5 -30.5q-20 -39 -39 -70q-6 -6 -20 -34.5t-29 -65t-28.5 -73t-17.5 -57.5l-20 -44q-5 -10 -8.5 -26t-3.5 -25q0 -5 -8 -20.5 t-12 -24.5q-15 -15 -26 -18.5t-44 -7.5q-43 0 -57.5 2.5t-18.5 17.5zM18 70q0 4 15 8.5t30 4.5q19 0 39.5 4t30.5 9q9 2 22.5 10t25.5 19t20.5 22t8.5 19q0 9 7.5 45.5t17.5 56.5q4 9 8.5 18t4.5 14q0 4 1.5 13.5t11.5 24.5q4 9 8.5 18t4.5 14q18 49 38 83q14 33 27 55 t18 22q7 -9 12 -13q2 -19 13 -38q4 -10 3.5 -14.5t-9.5 -23.5q-15 -24 -24.5 -45.5t-33.5 -69.5q-6 -15 -13.5 -38.5t-16 -47.5t-16 -46t-11.5 -34q-15 -72 -49.5 -98t-110.5 -30q-34 0 -44 4.5t-19 14.5q-5 4 -20 19zM188 1392.5q0 0.5 9 -7.5q9 0 18 -12t14 -26 q42 -72 66 -113.5t36 -63t13.5 -29t-0.5 -11.5q-5 -5 -12 5t-26 39q-10 24 -26 58q-5 4 -14 22t-18 42q-15 19 -27.5 42.5t-16.5 33.5q-16 20 -16 20.5zM478 823q10 24 17 39t14.5 30t13.5 21q0 4 3 9t3 10q-1 10 6 32t26 51q9 38 19 57q4 9 13 26q0 4 0.5 12t5.5 13 q16 36 33 76.5t31 77t23 64.5t9 38q-1 15 6 15q5 0 13 -9q14 -15 22 -33t4 -37q0 -20 -18 -67t-46 -99q-15 -39 -23.5 -56t-8.5 -21q0 -5 -1.5 -13t-5.5 -12q-7 -19 -25 -58q-5 -15 -10 -27.5t-9 -16.5q0 -5 -3.5 -14t-3.5 -18q-5 -10 -10.5 -23.5t-14.5 -27.5 q-12 -32 -18.5 -49.5t-8.5 -27.5t0 -16.5t8 -15.5q4 -10 12 -22.5t13 -21.5q4 -15 13 -32.5t19 -31.5q4 -15 11.5 -28t7.5 -17q4 -5 9 -17t10 -21q4 -10 9.5 -23t10.5 -22q4 -10 16.5 -39.5t27.5 -62.5q14 -39 27 -68.5t18 -33.5q4 -15 11 -31.5t27 -64.5q18 -29 26 -51 q4 -5 8.5 -21t4.5 -30q0 -20 -6.5 -29t-25.5 -28q-10 -10 -19 -18t-13 -8q-5 0 -15 -2t-24 -11q-19 -12 -43 -12q-6 0 -13 1q-32 4 -46 24q-15 14 -13 17.5t26 8.5q19 0 34.5 6t54.5 26q24 14 40 35t12 41q0 14 -5.5 37t-14.5 33q0 4 -12.5 35t-31.5 74q-20 38 -37 75 t-21 52q-5 14 -21.5 51t-35.5 71q-15 38 -28 66.5t-17 28.5q0 4 -3 6t-3 7q0 2 -7.5 18t-16.5 35.5t-17 36t-10 19.5q-5 4 -13 12z" />
<glyph unicode="y" horiz-adv-x="771" d="M10 1399q6 15 40 28q28 15 46 23q4 4 14.5 4.5t19.5 0.5q17 0 21.5 -4.5t17.5 -29.5q8 -13 15.5 -30t7.5 -21q25 -72 38.5 -114.5t18.5 -72.5q8 -39 16.5 -61.5t17.5 -34.5q8 -5 10 -5t7 5q3 3 12 18.5t20.5 36.5t23.5 45.5t23 46.5q8 25 18.5 44t15.5 24q15 36 28 57 q21 42 32.5 55t29.5 13q6 0 19.5 -6t28.5 -14t28.5 -16.5t20.5 -14.5q17 -13 12 -45t-35 -74q-13 -22 -17 -34q-5 -13 -37 -73t-65 -136q-39 -77 -68.5 -136t-33.5 -63q-5 -13 -5 -97.5v-270.5q-3 -151 -5 -225.5t-9 -104t-22 -28t-44 1.5h-39.5h-22.5q-9 3 -14 11.5t-7 43 t-2 106v201.5q0 123 -1.5 194.5t-4.5 113t-6.5 62.5t-9.5 43q-5 8 -9 26.5t-8 36.5q-9 21 -17 48.5t-12 53.5q-9 25 -20 61.5t-19 62.5q-18 81 -31.5 125.5t-30.5 78.5q-9 17 -9 30q0 5 2 10zM209 45q0 7 51 6q21 -2 37 -2q19 0 31 3q22 6 40 27q8 8 12 18t6.5 44.5t3 105 t0.5 200.5q0 129 1 201t7 117.5t20 80t40 88.5q30 59 67 130t58 114q29 59 45 90.5t22.5 46.5t7 20.5t-1.5 12.5q0 17 1.5 18t10.5 -7q12 -9 25.5 -27t13.5 -35q0 -13 -17.5 -48.5t-55.5 -116.5q-81 -158 -122.5 -238.5t-58.5 -142.5t-17.5 -135t-0.5 -214v-218t-3 -110 t-11.5 -43.5t-24.5 -18.5q-13 -9 -25 -10.5t-54 -1.5q-34 0 -50 1.5t-24 10.5q-34 16 -34 33zM210 1435.5q0 2.5 5 2.5q8 0 22 -20.5t23 -41.5q4 -9 8 -19.5t9 -14.5q8 -21 15.5 -49t7.5 -36q1 -11 11 -28q6 -7 6 -13l-6 -27q-9 -21 -16 -25q-1 -1 -2 -1q-5 0 -5 15 q0 4 -0.5 18t-4.5 27q-5 12 -12 33.5t-11 34.5q-13 33 -25 71t-20 59q-5 12 -5 14.5z" />
<glyph unicode="z" horiz-adv-x="722" d="M7 241q-1 13 -1 23q0 26 7 36q14 9 42.5 67.5t70.5 152.5q51 99 69.5 138.5t18.5 49.5q-5 0 0 13q2 2 9.5 20.5t16.5 45t19 56t18 53.5q11 42 18 66.5t14.5 49t18.5 58.5t30 96q9 33 20.5 64t11.5 36q0 11 -5 17.5t-22.5 9.5t-51 4t-91.5 1q-52 0 -82.5 -0.5t-46 0.5 t-20.5 3.5t-7 8.5q-8 9 -8 29.5t5.5 43t14.5 41t19 24.5q4 4 47.5 5t109.5 1q44 0 74 -1.5t52.5 -3t41 -3.5t39.5 -4q56 -15 73.5 -28.5t32.5 -46.5q11 -25 11 -51q0 -8 -2 -18q-4 -36 -27 -82q-3 -6 -9.5 -25.5t-13.5 -43t-13 -45t-8 -30.5q-5 -10 -10 -22t-9 -16 q-15 -42 -22 -69.5t-16 -55.5q-5 -15 -10 -36t-9 -39q-24 -71 -50 -147t-44 -123q-5 -10 -6 -25q0 -5 -4.5 -14t-8.5 -18q-5 -10 -13 -25.5t-12 -24.5q-9 -29 -18 -50q-9 -22 -19 -44t-19 -44q-10 -19 -10.5 -30.5t16.5 -17.5t55.5 -9t107.5 -5q66 -3 100.5 -4.5t49.5 -9.5 t17.5 -24.5t2.5 -49.5q0 -42 -2.5 -51t-16.5 -18q-12 -6 -36 -8t-71.5 -2t-123 4t-189.5 12q-48 4 -70.5 17t-36.5 46q-15 28 -19 72zM95 75q14 0 42 -4.5t52 -8.5q23 0 84 -3t123 -3q54 -3 83.5 -4t46 -0.5t25.5 4.5t21 12q28 18 38 42q7 17 6 42q0 11 -1 23q-5 42 1 49 t25 -11q9 -15 11 -29t7 -47v-45v-30q-10 -15 -30.5 -31t-38.5 -25q-11 -2 -48 -2h-26q-60 1 -132.5 4t-143 9t-107.5 14q-24 0 -36 5t-21 20q-17 12 -17 15.5t36 3.5zM82 1241q-1 2 -1 3q1 6 17 8q20 2 110 2q51 0 79 -0.5t40 -2.5t13.5 -6t-0.5 -10q0 -5 -7 -19 q0 -5 -32 -5.5t-74 -0.5q-71 0 -94 3.5t-32 8.5q-5 4 -19 19zM264 307l44 88q14 37 26.5 66t17.5 34q0 21 19 50q28 75 53 154.5t35 127.5q9 21 19 50q4 9 8.5 28.5t9.5 34.5q4 14 9 33t10 24q4 9 9 28t10 34q28 74 38 101q0 4 3.5 15.5t8.5 21.5q24 70 26 101q1 7 0 14 q0 25 -7 55q-5 9 -6 31q13 -15 18 -19q18 -19 28 -50.5t10 -68.5q0 -29 -5 -53t-33 -85q-6 -17 -18.5 -56t-26.5 -82.5t-26 -82.5t-16 -55q-5 -15 -10 -35t-9 -34q-15 -42 -32 -101t-31 -87q-5 -10 -6 -25q-5 -5 -7 -14t-6 -18q-9 -21 -18 -50q-19 -40 -19 -50 q-8 -12 -16 -30.5t-15 -36.5t-12 -33t-7 -19q0 -6 -29 -6h-9h-38z" />
<glyph unicode="{" horiz-adv-x="665" d="M15 894q4 9 40 18q43 9 67 32t51 85q9 35 15.5 82t6.5 153q0 83 3.5 132t18 77.5t42.5 43t77 28.5q18 9 39.5 10.5t30.5 1.5q18 0 21 -5t3 -31q0 -62 -5.5 -77.5t-40.5 -15.5q-36 0 -42 -35.5t-6 -140.5q0 -79 -8 -126t-26 -108q-18 -36 -28.5 -74t-19.5 -56t-7.5 -23 t19.5 -23q9 -9 23.5 -38.5t23.5 -55.5q4 -22 7.5 -39.5t6 -36t2 -42t-4.5 -58.5q-5 -54 -7 -93t-1 -70.5t6 -59.5t14 -58q18 -53 37 -74.5t81 -30.5q26 -5 40 -8.5t20.5 -11.5t8.5 -22t2 -40q9 -44 4 -51.5t-40 -7.5q-36 0 -77.5 9.5t-80.5 27.5t-69.5 41.5t-42.5 50.5 q-9 17 -17.5 54t-14.5 84.5t-7.5 100t3.5 101.5q0 70 -0.5 109t-9.5 66q-5 21 -9 33t-12 18.5t-22 10.5t-40 9q-27 4 -41.5 7.5t-20.5 11t-7 22t-1 41.5q-9 43 -5 52zM32 725q0 9 14.5 9t32.5 -9q43 -9 48.5 -27t-37.5 -9q-27 9 -42.5 18t-15.5 18zM279 64q7 -1 34 -19 q26 -9 59.5 -18t69.5 -18q39 -5 62 -6t35 7t16 27t4 55q9 70 23.5 64t23.5 -76q9 -79 -7 -96.5t-86 -8.5q-27 0 -60 8t-65.5 19.5t-59 25.5t-38.5 28q-18 9 -11 8zM297 888q0 15 6.5 33.5t20.5 49.5q12 30 19.5 52.5t10.5 49t4.5 62.5t1.5 94q4 57 6.5 87.5t5.5 45t8.5 17 t14.5 2.5q35 0 48 22t22 84q9 61 22.5 59.5t13.5 -71.5q9 -71 -1.5 -89.5t-45.5 -27.5q-18 -5 -28 -9.5t-14.5 -19.5t-5 -43.5t-0.5 -80.5q0 -97 -16 -168t-42 -149q-9 -18 -13.5 -29t-3.5 -22t8 -25.5t21 -40.5q52 -123 35 -316q-9 -44 -8 -91t19 -108q0 -18 -1 -21t-10 -3 q-18 9 -31 98t-4 230q4 61 5 95.5t-2 58t-12.5 43t-26.5 50.5q-14 30 -20.5 48t-6.5 33z" />
<glyph unicode="|" horiz-adv-x="355" d="M11 694q1 141 10 181q0 21 1.5 58.5t4 85t4.5 101t2 107.5q9 105 16 199t7 130q4 30 8 48t13.5 24.5t29 2.5t55.5 -16q35 -9 39 -16.5t-5 -42.5q0 -9 -2 -36t-4.5 -64.5t-4 -81.5t-1.5 -87q0 -45 -2 -94t-5 -95t-7 -86t-8 -66q-9 -54 -14 -96t-6 -101.5t1 -149.5t7 -239 q4 -123 5 -190t-3.5 -100t-16 -43t-32.5 -19q-27 -9 -70 -12q-5 4 -11 127t-9 276.5t-2 294.5zM44 -62q0 9 17 19t53 28q26 9 40 20.5t20.5 57.5t8 141.5t1.5 272.5v176.5t1 149.5t3.5 104t7.5 39q0 9 7.5 93.5t16.5 199.5q0 57 1.5 110t4 96t4.5 72.5t2 38.5q18 52 35 35 q4 -9 2.5 -106t-7.5 -218t-13.5 -235t-16.5 -157q-5 -31 -7.5 -67.5t-3.5 -92.5t-1 -138v-205q4 -150 5 -231.5t-2 -120.5t-12.5 -50t-26.5 -20q-18 -9 -42.5 -15t-46 -8.5t-36.5 0t-15 11.5z" />
<glyph unicode="}" horiz-adv-x="665" d="M0 59q0 52 11.5 68.5t47.5 25.5q18 0 41 1t41 10q17 9 26.5 15.5t16 18.5t12.5 34t15 62q9 61 9 99t-9 100q-9 105 9 192.5t62 123.5q9 18 7.5 29.5t-19.5 64.5q-22 57 -34 95.5t-18 72t-6.5 70t-0.5 90.5q-5 52 -8.5 84t-10 50t-18.5 24t-33 6q-18 0 -21 5.5t-3 41.5 q0 18 -5.5 39.5t-5.5 30.5q-9 18 11.5 18t82.5 -18q30 -9 49 -17t31.5 -18t23 -24t24.5 -35q4 -14 8.5 -29t7.5 -38t5.5 -57.5t2.5 -86.5q0 -63 0.5 -99t3.5 -60t10.5 -42.5t21.5 -44.5q18 -44 31.5 -58.5t49.5 -23.5q43 -9 50.5 -18t7.5 -52q9 -53 -5.5 -63t-75.5 -19 q-44 -9 -58.5 -16.5t-23.5 -42.5q0 -18 -6 -56t-6 -73q18 -177 -4.5 -285.5t-65.5 -160.5q-18 -18 -47 -33t-62 -26t-66.5 -16.5t-59.5 -5.5q-27 0 -37 5.5t-10 41.5zM36 -47q-9 9 4 11.5t66 11.5q105 18 172.5 71t85.5 141q26 96 34 159t-10 134q0 52 1 84t10 68 q9 35 15.5 42.5t42.5 16.5q35 9 66 18.5t40 27.5v71q0 35 7.5 45t16.5 1t13.5 -36t4.5 -57t-4.5 -54t-13.5 -28q0 -9 -22 -12t-48 -12q-27 -5 -41.5 -8.5t-22.5 -10t-11.5 -18.5t-7.5 -33q-9 -27 -9 -57t9 -48q9 -71 8 -141.5t-19 -140.5q-14 -54 -26.5 -87t-29 -55 t-39.5 -37t-58 -32q-36 -17 -73.5 -29t-70.5 -18t-57 -3t-33 15zM117 1348h24q18 0 21 -1t3 -10t-3 -10.5t-21 -1.5q-9 9 -24 23zM364 1442q35 -44 51.5 -113.5t7.5 -156.5q0 -71 1 -106t10 -70q18 -62 16.5 -69t-27.5 46q-14 21 -21 37.5t-10 40.5t-3.5 63t-0.5 105 q-9 87 -16.5 146t-7.5 77z" />
<glyph unicode="~" horiz-adv-x="837" d="M12 791q-4 10 5 36q9 69 32.5 104t58.5 44q51 17 126 -7t170 -84q60 -35 91.5 -46t57.5 -11q34 0 51.5 15.5t17.5 41.5q0 9 8 10t26 1q34 0 44 -8.5t1 -59.5q-9 -42 -41.5 -75.5t-83.5 -50.5q-26 0 -50.5 3t-75.5 21q-35 9 -71.5 23.5t-53.5 32.5q-26 17 -57.5 34 t-56.5 35q-42 25 -64 18t-39 -41q-18 -26 -25 -36t-32 -10q-35 0 -39 10zM27 737q-7 12 35 21q25 0 38 5.5t31 40.5q17 34 27.5 34t52.5 -34q25 -9 53.5 -23t37.5 -23q9 -18 0.5 -15t-68.5 38q-26 17 -34.5 15.5t-33.5 -26.5q-18 -35 -28.5 -40t-52.5 -5q-51 0 -58 12z M325 736h11v-23q-11 14 -11 23zM369 701q-9 9 1.5 7.5t45.5 -18.5q127 -42 214 2t105 147q9 34 22 32t13 -44q9 -69 -31.5 -119t-116.5 -75q-18 -5 -30 -7t-27 0.5t-36 9.5t-55 20q-35 9 -70 22.5t-35 22.5z" />
<glyph unicode="&#xa2;" horiz-adv-x="693" d="M9.5 635.5q3.5 65.5 16 119.5t33 94t47.5 59q37 22 71.5 36t57.5 14q22 0 26.5 19t4.5 102q0 37 0.5 57.5t8 30t24 11.5t47.5 2q30 0 45.5 -2t21.5 -12.5t6 -32.5t-3 -63q0 -68 1.5 -90t7.5 -22t28 -5t52 -5q52 -6 64.5 -15.5t-2.5 -24.5q-6 -6 -15.5 -20t-15.5 -29 q-3 -12 -7.5 -18t-19.5 -9t-43.5 -2.5t-80.5 0.5q-53 3 -82 4t-46 -2t-27 -11t-25 -23q-30 -30 -43.5 -87t-7.5 -132q6 -76 19 -113.5t43 -67.5q30 -38 70 -49.5t139 -11.5q45 0 69 -0.5t35.5 -2.5t14 -6t2.5 -11q0 -16 7.5 -29.5t13.5 -28.5v-41q-50 -15 -72 -21 q-30 0 -54.5 -1t-24.5 -7q-10 -54 -10 -91q-6 -47 -21 -101q0 -6 -18.5 -1t-40.5 11q-24 7 -36 12.5t-18 15.5t-6 28.5v52.5q-3 37 -6 57.5t-9 32t-17 17l-29 14.5q-76 22 -125.5 92.5t-64.5 169.5q-9 71 -5.5 136.5zM144 207q-45 44 0 11q15 -6 30 -13.5t31 -7.5 q6 -6 13.5 -15t7.5 -15t-3 -6t-18 6q-16 6 -31 20t-30 20zM196 618q0 63 5.5 98.5t28 52.5t66.5 20t120 0h80h40q6 6 20 26.5t30 43.5q22 46 32.5 50.5t26.5 -1.5q22 -6 15 -32t-44 -78q-15 -27 -24 -40.5t-16.5 -19t-16 -4t-23.5 4.5q-76 6 -137.5 11t-91.5 -1 q-30 -16 -48 -47.5t-24 -91.5q-3 -15 -2 -41.5t4.5 -55t8.5 -54.5t8 -41q6 -16 6.5 -16t-14.5 16q-30 22 -40 66t-10 134zM286 -32q-34 32 40 0q60 -22 81.5 -2.5t27.5 101.5q6 37 15.5 60.5t15.5 29.5q37 10 60 10q22 0 43 8t27 14q15 15 15 27.5t-15 50.5q-6 37 -6 46.5 t16 3.5q7 -3 15.5 -24.5t14.5 -48t9 -51.5t0 -36q0 -16 -19.5 -25.5t-79.5 -15.5q-19 -3 -29.5 -7t-16.5 -13t-8.5 -27.5t-5.5 -51.5q-9 -37 -13.5 -57.5t-9.5 -29.5t-11 -10.5t-17 -1.5q-15 -3 -37.5 0.5t-45 11t-41 17.5t-25.5 21zM447 1031q0 15 4.5 35.5t4.5 43.5 q0 15 10 49q15 0 27 -26.5t12 -72.5q0 -47 -7.5 -53.5t-22.5 -6.5q-16 0 -22 4t-6 27z" />
<glyph unicode="&#xa3;" horiz-adv-x="754" d="M0 728v31.5v49.5q4 25 7.5 39t12.5 20.5t25.5 8t47.5 1.5q25 -5 39 -4t22 19t11.5 60.5t8.5 120.5v103.5t2 64.5t7 41t14 34q9 17 23 38.5t23 30.5q4 4 17.5 13.5t30.5 20t35 20.5t32 15h31.5h49.5q21 0 35.5 -1t27 -5.5t27.5 -13.5t37 -26q17 -27 47 -69q0 -5 -15 -16.5 t-33 -23.5t-35 -20.5t-21 -8.5q-9 0 -23.5 7t-23.5 16q-27 17 -66.5 2t-48.5 -49q-9 -18 -15.5 -50.5t-9.5 -72.5t-3 -83t5 -82q4 -27 7.5 -41t11 -21.5t21.5 -11t41 -7.5q25 0 39 -1.5t23 -8t15 -20.5t15 -39q17 -44 14 -52.5t-37 -17.5q-57 -9 -86 -14t-41.5 -16 t-15.5 -33t-7 -64q0 -48 -3 -83t-10.5 -65t-21 -60t-34.5 -69q-9 -27 -24 -69q9 0 62.5 -6t122.5 -6q69 -9 173 -23v-69q-5 -27 -11 -41t-30 -20t-73.5 -7t-139.5 -1q-91 4 -141 6.5t-74.5 5.5t-33 8t-16.5 14q-35 34 -38 74.5t15 75.5q60 104 89 175t38 149q0 43 4.5 73.5 t-4.5 30.5q-47 11 -81 11q-35 9 -59.5 10.5t-33.5 1.5zM12 670q0 9 7 15t16 -3q9 0 24.5 -6t33.5 -6q26 0 30.5 -1t4.5 -10q0 -18 -4.5 -21t-30.5 -3q-52 9 -66.5 13t-14.5 22zM93.5 59.5q-1.5 4.5 17 5.5t63 -1t127.5 -6q42 0 83.5 -2t75 -4.5t56 -3.5t27.5 -1 q34 -9 54.5 16.5t38.5 86.5q0 43 7 56.5t16 13.5q17 -9 18.5 -25.5t-7.5 -67.5q0 -35 -7 -65t-16 -39q-5 -5 -16.5 -9t-39.5 -6.5t-78 -1.5t-131 6q-87 4 -138.5 7t-79.5 6t-40 8t-20 14q-9 8 -10.5 12.5zM295.5 310.5q1.5 9.5 28.5 70.5q17 51 31.5 135.5t14.5 153.5 q0 9 23 16t58 7q34 0 58.5 7t33.5 16q17 17 19 44.5t-7 36.5t-16 18.5t-7 27.5q-9 17 -9 24.5t9 -1.5q28 -46 46 -80q17 -39 22.5 -62.5t-3.5 -38t-33.5 -22.5t-66.5 -16q-31 -5 -47.5 -9t-25.5 -15t-12 -31.5t-7 -59.5q0 -31 -6 -68t-15 -70.5t-19 -59t-18 -33.5 q-18 -9 -35 0q-18 0 -16.5 9.5zM370 1063v106v55q9 26 37 33t55 -10q26 -18 52 -13.5t87 48.5q34 17 44.5 28.5t1.5 29.5q0 26 2.5 26t20.5 -26q34 -35 27 -58.5t-50 -57.5q-52 -35 -81 -38t-46 15q-27 17 -51 16t-41 -27q-18 -18 -20.5 -49.5t-2.5 -100.5t-3 -86.5 t-20 -17.5q-9 0 -10.5 20t-1.5 107z" />
<glyph unicode="&#xa5;" horiz-adv-x="848" d="M0 1354q0 9 16.5 24.5t45.5 25.5q18 18 35.5 28t27.5 10q4 0 34.5 -54.5t68 -126.5t73 -142.5t50.5 -103.5q9 -29 15 -24t35 62q28 56 62 122t63 141q9 27 15 42.5t15.5 22.5t25.5 9t45 2q28 -10 75 -13q4 -6 -4.5 -38t-26.5 -80t-42.5 -106t-51.5 -114 q-38 -66 -63 -124.5t-25 -76.5q-10 -29 -4 -33.5t54 -4.5q75 0 96.5 -16t3.5 -72q-6 -10 -10 -17t-13 -11.5t-26.5 -6.5t-50.5 -2q-38 0 -58.5 -1t-29 -7t-7.5 -19t7 -36q0 -29 1 -44.5t7.5 -22t22 -7.5t44.5 -1q56 -10 66 -18t10 -45q0 -38 -10 -44t-66 -6q-29 0 -44.5 -3 t-22 -19.5t-7.5 -52t-1 -101.5q0 -62 -1.5 -95t-8.5 -48t-22.5 -17.5t-42.5 -2.5q-29 0 -44.5 2t-22 14.5t-7.5 41t-1 80.5q-6 79 -8 120.5t-9 59.5t-22.5 19.5t-48.5 1.5q-57 9 -65 17t2 46q0 37 7.5 43.5t55.5 6.5q23 4 36 7.5t19 10t7 20t1 37.5q0 56 -10 64t-66 -1 q-57 -10 -66 -4t-9 54q0 56 7.5 65.5t55.5 9.5h63q-21 48 -35.5 83.5t-29 74.5t-23.5 68q-10 18 -35 73t-53 103q-29 56 -52 98t-23 52zM150 627h50q28 0 39.5 -3.5t11.5 -21.5q0 -10 -10 -18t-28 -8q-19 0 -41 16t-22 35zM163.5 374q7.5 2 36.5 2q18 0 34.5 -2t16.5 -11 q0 -10 -10 -11t-28 -1q-10 0 -24 1t-14 11q-19 9 -11.5 11zM200 1429q0 9 8.5 -4t23.5 -41t36 -68.5t45 -86.5q18 -48 34 -88.5t16 -49.5q0 -10 -1.5 -8.5t-10.5 20.5q-10 18 -35 74.5t-53 113.5q-29 56 -63 138zM313 25q0 9 12.5 17t50.5 8q42 0 66.5 2t37.5 18.5t17 52.5 t4 102q0 56 0.5 86.5t5.5 45t15.5 17t29.5 2.5q56 0 78 20t22 68q0 28 1 43.5t11 6.5q9 0 11 -20.5t2 -67.5q0 -33 -1 -51t-7 -26.5t-19 -9.5t-36 -1q-24 -6 -37 -10.5t-19 -18.5t-6 -42v-79q0 -75 -8.5 -119t-17.5 -44q-10 -10 -43 -14.5t-69 -4.5t-66.5 4.5t-34.5 14.5z M501 614q0 18 7.5 28t55.5 10q75 0 94 15.5t19 72.5q0 28 7.5 37t17.5 0q18 0 21.5 -14t3.5 -61q0 -33 -4.5 -53t-19 -32t-41.5 -18t-73 -10q-66 0 -77 3t-11 22zM526 852q47 94 76 151q37 66 70 139.5t43 111.5q18 47 50 100q18 9 26 -21t-1 -67q-10 -29 -29.5 -75t-42 -95 t-44 -95t-35.5 -73q-29 -48 -43 -62t-32 -14h-38z" />
<glyph unicode="&#xad;" d="M5 665q0 22 3.5 34.5t26 18.5t72 8t140.5 5q97 0 179 2t100 2h28.5h22.5q6 0 12.5 -0.5t6.5 -3.5q3 -3 6 -20t6 -38t5 -38.5t2 -20.5q-7 -8 -14 -9q-15 -4 -108 -7t-199.5 -4t-193.5 -1t-90 3q-4 3 -4.5 18.5t-0.5 50.5zM16 542.5q-3 5.5 10.5 8.5t48.5 3.5t102 3.5 h107.5h93.5t88.5 1t92.5 4q48 3 58 6.5t21 17.5q13 13 15 19.5t-1 31.5q0 18 -2.5 33.5t-2.5 26.5q-4 18 -3 21t8 3q13 -4 25.5 -19t16.5 -33q3 -32 5 -71.5t-1 -49.5q-6 -13 -12 -20t-24.5 -10t-56.5 -4.5t-107 -2.5h-80.5h-85.5h-80.5h-65.5q-54 0 -83.5 -0.5t-44.5 0.5 t-20 4t-10 9q-9 12 -12 17.5z" />
<glyph unicode="&#xc0;" horiz-adv-x="818" d="M11 132q-9 12 1.5 92t29.5 184t42 210t41 170q21 55 39.5 123t35.5 142.5t32 151.5t28 149q9 42 21.5 56t46.5 23q42 17 57.5 17t33.5 -17q8 -9 26.5 -79.5t39 -158.5t37.5 -172.5t22 -121.5q0 -18 7 -68.5t16 -101.5q33 -162 54.5 -272.5t32 -180.5t11 -104t-7.5 -42 q-5 -9 -18.5 -19.5t-29.5 -19.5t-31 -14t-23 -5q-25 9 -38 45t-30 138q0 51 -7 109.5t-16 92.5q-9 33 -21 70t-12 55q-9 17 -20 25.5t-71 8.5q-51 0 -70.5 -7t-19.5 -16q-9 -9 -21 -64t-22.5 -121t-17.5 -125t-7 -75q0 -42 -26 -65.5t-77 -23.5q-25 9 -68 11zM34 73 q6 4 57 13t87.5 33t36.5 58q0 12 7 68t16 121t19 120t15 64q4 8 24 11.5t42 2.5t40 -7t18 -18q9 -9 0 -10.5t-33 -1.5q-18 0 -31.5 -6.5t-13.5 -15.5q-5 -13 -13 -58.5t-17 -99.5t-16.5 -105.5t-11.5 -76.5q-9 -69 -32.5 -92t-91.5 -32q-34 0 -53.5 1t-36.5 10 q-18 17 -12 21zM125 1784q0 9 8 22.5t26 22.5q17 17 45 34q8 0 42.5 -36t73 -81t69 -84.5t30.5 -47.5q4 -9 -1 -21t-13.5 -22.5t-17.5 -17.5t-13 -7q-9 0 -30 16t-38 41q-25 17 -62.5 52.5t-61.5 60.5q-25 17 -41 38t-16 30zM215 1614v22q12 -13 12 -22h-12zM238 1603 q0 9 8 3t26 -15q9 -18 7 -19t-19 8q-9 9 -22 23zM289 813.5q-1 -18.5 5 -27t22.5 -9.5t46.5 -1q12 -5 18 -2.5t7 21.5t-2.5 60.5t-11.5 113.5q-9 51 -11.5 93.5t-11.5 42.5q0 4 -6 -13.5t-14.5 -50.5t-18 -78t-17.5 -96q-5 -35 -6 -53.5zM340 829.5v14.5v24.5t0 -1.5v-34 q0 -9 0 -3.5zM343.5 1515.5q1.5 5.5 19.5 -3.5q16 -5 35.5 6t35.5 29t25 39.5t5 39.5q0 9 1.5 9t10.5 -9q24 -25 24 -58.5t-24 -66.5q-9 -18 -21 -20.5t-36 -2.5q-18 0 -38.5 7t-29.5 16t-7.5 14.5zM351 1761q0 9 8 3.5t26 -14.5q9 -18 7.5 -19t-18.5 8q-9 9 -23 22z M487 1399q0 17 6.5 14.5t15.5 -26.5q12 -30 29 -99t34.5 -152t31.5 -167.5t19 -147.5q4 -21 10 -53.5t13.5 -69.5t16 -76t17.5 -72q21 -81 35.5 -163t23.5 -150t11 -114.5t-2 -58.5q-18 -25 -66.5 -46.5t-81.5 -21.5q-18 0 -43 6.5t-25 15.5t21.5 17t46.5 17q24 9 48.5 22.5 t42.5 22.5q9 24 14.5 44.5t-3.5 80.5q-5 37 -10.5 74.5t-14.5 91t-24.5 129.5t-40.5 191q-9 51 -22 110.5t-13 93.5q-5 25 -16.5 85.5t-23.5 128.5t-23 129t-15 87q-9 17 -12 57z" />
<glyph unicode="&#xc1;" horiz-adv-x="818" d="M18 144q-9 12 3 104.5t33 204.5t45 213t41 131q4 8 15 53t25.5 108t30 135.5t28.5 135.5q12 74 21.5 114.5t19.5 60.5t24 25.5t35 10.5q49 16 60.5 16t28.5 -16q8 -13 23 -73t31.5 -141t31.5 -170t24 -159q9 -42 24 -129t32 -170q21 -80 35 -155t22.5 -136t10.5 -104 t-2 -59q-5 -17 -24.5 -29t-42 -17.5t-42 -2.5t-23.5 16q-9 16 -17 61.5t-17 104.5q-5 24 -10.5 55.5t-11.5 64t-12 62.5t-10 51q-9 37 -15 57.5t-16.5 29.5t-28.5 11t-51 2q-33 4 -51.5 4t-29 -10.5t-16 -35.5t-13.5 -70q-9 -50 -22.5 -114.5t-22.5 -106.5 q-9 -92 -25.5 -117t-74.5 -16h-66zM38 91q3 9 36 9q41 0 67 5.5t43 25.5t26.5 57.5t18.5 100.5q9 42 16 99.5t16 99.5q8 29 13 44.5t12.5 23t19.5 9t33 1.5q33 0 45 -4t21 -20q0 -9 -4 -15.5t-29 -6.5q-17 0 -27 -1.5t-16 -10t-11 -26t-13 -50.5q-9 -42 -16 -102t-16 -109 q-17 -92 -28.5 -119t-27.5 -36q-13 -9 -39 -13t-53 -4t-48 4t-25 13q-17 16 -14 25zM259.5 1608q-4.5 8 4 23.5t33 46.5t75.5 94q83 99 100 99q8 0 22.5 -9.5t29 -22.5t25.5 -28.5t11 -27.5q0 -9 -35.5 -45t-80.5 -75t-86 -70t-53 -31q-9 -9 -16 -2t-16 24zM290.5 818 q-4.5 -21 4.5 -21q27 -10 44 -10q33 -9 39.5 -3.5t15.5 47.5q0 16 -6.5 66t-15.5 100q0 49 -6.5 85t-15.5 36q-22 -112 -55 -253q0 -26 -4.5 -47zM307 1502q-12 7 21 16q9 0 30 18.5t47 35.5q16 16 50.5 51t60.5 61q33 33 55.5 57.5t22.5 41.5q9 25 12.5 25t20.5 -25 q9 -17 10 -31.5t1 -23.5q9 -9 -36 -56t-120 -122q-25 -21 -41.5 -32.5t-28.5 -17t-23.5 -5.5h-27.5q-42 0 -54 7zM339 831v22v12v-34zM482 1418q-9 25 4 13.5t30 -36.5q8 -21 26 -94.5t36.5 -158t33.5 -161.5t15 -106q0 -17 5.5 -57t16 -96.5t25 -125t31.5 -142.5 q4 -21 10 -51t12 -62.5t11.5 -64t10.5 -55.5q4 -59 2.5 -94.5t-10.5 -56.5t-28.5 -33.5t-52.5 -24.5q-42 -16 -57 -16t-31 16q-26 16 -26 19.5t26 12.5q66 25 95 43t38 35q4 16 2 56.5t-8 93.5t-16.5 112.5t-22.5 113.5q-42 165 -60 282.5t-18 150.5q-5 16 -18.5 81.5 t-28.5 144.5t-30 153.5t-23 107.5z" />
<glyph unicode="&#xc2;" horiz-adv-x="804" d="M17 153q-9 16 2 94t32 180.5t48 212t52 189.5q8 28 17.5 71.5t21 92.5t24 99t25.5 92q8 45 16 87t15 74.5t13.5 52t11.5 19.5q0 8 19 15t36 7q33 16 47 16t31 -16q8 -9 25 -70t35.5 -144.5t35.5 -173.5t26 -156q8 -58 24.5 -153.5t41.5 -212.5q24 -75 36 -161t21 -160 q0 -30 -1.5 -46t-7.5 -25t-17 -14.5t-31 -13.5q-17 -17 -37.5 -20t-28.5 -3q-17 8 -26.5 53.5t-17.5 145.5q-9 41 -17 93t-16 85q-9 41 -21 73t-12 49q-9 24 -22 27t-79 -5q-33 0 -52 -1t-28 -6.5t-13 -16.5t-7 -31q-9 -33 -18.5 -95t-25.5 -128q-9 -67 -17 -106.5t-20 -59 t-31.5 -23t-52.5 1.5q-25 0 -41 1t-16 10zM39 64q-18 33 46 33q41 -9 56 -1.5t32 24.5q12 12 20.5 21.5t14.5 24t10.5 37t9.5 60.5q8 49 16.5 109t17.5 102q8 36 13 56.5t12 29.5t19 11.5t33 2.5q24 0 56 -11q11 -14 11 -22q16 -14 -33 -12q-17 0 -45 -11q0 -9 -14 -70 t-30 -152q-13 -92 -23.5 -141.5t-26 -73.5t-40 -30t-65.5 -9q-42 0 -62 6.5t-28 15.5zM107 1573q0 12 17 33t47 47t70.5 54t86.5 53q24 16 41 14.5t59 -25.5q33 -17 69.5 -44t67.5 -54.5t52 -52t21 -36.5q0 -25 -16.5 -41t-49.5 -16q-17 0 -35 16t-42 41q-25 16 -49 42 t-40 35q-33 24 -42 25.5t-25 -14.5q-83 -66 -126 -93.5t-51 -27.5q-17 0 -36 17.5t-19 26.5zM126 1481.5q3 1.5 36 1.5q16 0 34 8t43 25q8 16 34.5 33.5t43.5 34.5q41 24 56.5 25.5t32.5 -14.5q16 -17 6.5 -25t-50.5 -41q-25 -17 -54.5 -38.5t-45.5 -29.5 q-33 -25 -65.5 -23.5t-56.5 34.5q-17 8 -14 9.5zM295 796q27 -3 44 -11q41 0 48.5 8t7.5 58q0 24 -5.5 68t-5.5 77q-9 74 -17.5 97.5t-16.5 -9.5q0 -17 -7 -39t-15 -38q-5 -17 -10.5 -52t-11 -71t-11.5 -88zM339 862q8 8 11 22v-22v-44q-9 0 -10 13.5t-1 30.5zM484 1417 q0 8 12 2.5t21 -13.5q12 -17 30.5 -90.5t37 -166.5t33.5 -185t20 -146q0 -33 7.5 -77.5t16.5 -77.5q16 -54 30 -117t25.5 -124.5t19.5 -117t13 -96.5q8 -75 8 -101.5t-8 -42.5q-9 -17 -28.5 -29.5t-43.5 -20t-49.5 -9.5t-45.5 3q-25 8 -30.5 21t19.5 13q49 16 66 33 q49 16 68 44t11 78q0 16 -7 53t-15 79q0 49 -12.5 109.5t-20.5 102.5q-33 125 -50.5 207.5t-17.5 157.5q-5 36 -15 88t-22 109t-25.5 115.5t-25.5 109.5q-9 33 -22 89zM538.5 1469q2.5 3 44.5 3q24 0 36.5 8t29.5 25q8 8 21.5 28t13.5 29q0 16 2.5 16t19.5 -16 q16 -33 14.5 -60.5t-25.5 -51.5q-25 -25 -63 -25t-71 25q-25 16 -22.5 19z" />
<glyph unicode="&#xc3;" horiz-adv-x="825" d="M0 234q0 33 10.5 106.5t26 156t33.5 158.5t31 115q33 75 58 174t42 183q24 108 38 169t22.5 91t14 38.5t14.5 13.5q33 16 79 16t55 -16q8 -9 24.5 -73.5t34.5 -148.5t33 -171.5t20 -141.5q9 -42 25 -131.5t42 -181.5q16 -76 30.5 -150.5t23.5 -136.5t13 -105t0 -55 q-5 -9 -20.5 -18.5t-34 -17t-37.5 -10.5t-31 2q-17 0 -28 31.5t-27 124.5q-5 37 -13.5 89t-17.5 102.5t-19 90.5t-18 53q0 16 -15.5 20t-74.5 13q-39 0 -59.5 -1t-30.5 -6.5t-13.5 -16t-7.5 -31.5q-9 -26 -19 -92t-26 -132q-9 -76 -16 -122.5t-16 -55.5t-31.5 -16t-47.5 -7 q-26 0 -39.5 1t-19.5 9.5t-7 27t-1 52.5zM15 96.5q10 3.5 52 3.5q37 4 60.5 11.5t38.5 23t22.5 42t12.5 68.5q8 37 17.5 89t18.5 101.5t17.5 87t13.5 46.5q-1 20 66 22q42 0 54.5 -6.5t12.5 -15.5q0 -17 -9.5 -19.5t-34.5 -2.5q-26 0 -35.5 -10t-9.5 -35q-17 -51 -28 -118 t-27 -150q-9 -67 -13.5 -98t-20.5 -47q-26 -17 -44 -25.5t-68 -8.5q-51 0 -65.5 2.5t-23.5 19.5q-17 16 -7 19.5zM109 1601q0 10 11 45.5t22 53.5q7 17 17.5 23.5t31.5 10.5q39 7 88.5 -10t105.5 -53q12 -11 28.5 -21t27.5 -17q17 -11 24 -12.5t34 -1.5q26 0 32 1t11 9 q10 9 12 29q3 7 5.5 13t6.5 6q4 3 23 -2t23 -9t-0.5 -33t-11.5 -42q-12 -21 -36 -38.5t-55 -24.5q-18 -4 -36 0.5t-60 16.5q-27 7 -43.5 15.5t-52.5 35.5q-27 17 -44 28t-37 22q-18 10 -22 10t-11 -7q-11 -7 -27 -34q-11 -21 -16 -22.5t-26 -1.5t-23 2.5t-2 7.5zM117 1564 q0 3 1.5 4.5t9.5 -1.5q10 -4 25 -0.5t23 11.5q10 9 20 25q12 24 16.5 25t25.5 -9q10 -8 29.5 -18.5t33.5 -20.5q39 -27 62 -39t50 -19q42 -12 61 -15.5t40 0.5q46 10 79 37.5t41 74.5q3 10 4 19.5t1 13.5q3 10 9.5 6t14.5 -16q4 -14 -3.5 -51.5t-20.5 -57.5 q-18 -21 -45.5 -36.5t-60.5 -19.5q-11 -3 -33 1t-46.5 11t-47 16.5t-34.5 18.5q-69 43 -97 61.5t-32 15.5q-7 -1 -14 -23q-12 -27 -26 -34t-50 -3q-18 0 -22.5 2.5t-8.5 7.5q-6 7 -5 13zM268 803q40 -2 66 -11q42 0 48 5.5t-3 39.5q0 16 -0.5 65.5t-9.5 100.5 q-9 50 -11.5 87t-11.5 37q-25 -96 -40 -154.5t-26.5 -110t-11.5 -59.5zM334 847q0 -19 0 12v22v-34zM480 1439q0 8 7 0t16 -21.5t18.5 -27.5t14.5 -18q0 -9 7 -53t16 -103q16 -60 31 -134.5t24 -133.5q8 -59 16.5 -111t18.5 -105.5t23 -111.5t31 -129q16 -67 25 -126t9 -75 q0 -17 6.5 -52t15.5 -60q9 -76 -13 -108t-88 -48q-34 -9 -53.5 -14.5t-35.5 3.5q-26 16 -26.5 29.5t16.5 4.5q12 0 34.5 10t45 25t41 30t23.5 24q8 16 8 57.5t-7 101.5t-21 133.5t-35 153.5q-9 33 -17.5 74.5t-17 84t-16.5 83t-16 70.5q-9 63 -21 134.5t-24.5 138t-24 122 t-19.5 85.5q-9 25 -10.5 41.5t-1.5 25.5z" />
<glyph unicode="&#xc4;" horiz-adv-x="783" d="M4 199q2 23 10.5 71t26.5 138q16 118 37 224.5t64 216.5q4 16 12 50t17.5 77.5t20 92.5t19.5 96q12 51 22 97.5t18.5 82.5t15 57.5t11.5 21.5q0 9 12.5 16t21.5 7q50 9 77 5.5t36 -28.5q8 -26 23 -95t31 -153t29.5 -167.5t18.5 -137.5q0 -26 12 -76.5t21 -92.5 q9 -43 23 -110.5t23 -126.5q9 -51 21.5 -117t12.5 -108q0 -39 -1 -60t-7 -33t-17 -17.5t-32 -13.5q-34 -17 -46.5 -17t-21.5 17q-17 16 -34 101q-5 37 -13.5 90.5t-17.5 107.5t-18.5 101.5t-17.5 73.5q-5 16 -8.5 25t-12.5 13t-25 5t-45 1q-51 0 -66 -6.5t-24 -15.5 q-5 -13 -12.5 -46.5t-16 -78.5t-16 -95t-11.5 -96q-9 -43 -16 -79.5t-7 -45.5q-9 -9 -28 -14.5t-40 -7.5t-40 0.5t-27 11.5q-9 4 -13 9.5t-2 28.5zM30 104q19 9 45 0q42 0 73 20.5t40 46.5q9 16 16.5 61.5t16.5 96.5q9 50 17.5 108t17.5 84q9 50 16.5 59.5t50.5 9.5 q42 0 55 -7.5t13 -16.5q0 -17 -9 -19.5t-25 -2.5q-17 0 -45 -11q-5 -9 -12.5 -48.5t-16 -90.5t-16 -103.5t-11.5 -85.5q-9 -51 -14.5 -69.5t-30.5 -43.5q-17 -17 -33 -19.5t-58 -2.5q-51 0 -70.5 8.5t-19.5 25.5zM161 1637.5q1 18.5 27 35.5q12 16 34.5 21t44.5 -0.5 t39 -19.5t17 -35q-9 -34 -24.5 -45.5t-65.5 -11.5q-26 0 -41 1.5t-15 10.5q-17 25 -16 43.5zM188 1526q0 9 11 10.5t45 1.5q33 -9 47.5 -2t31.5 24q25 25 31 25t15 -25q16 -17 9 -38t-32 -30q-51 -9 -100 -0.5t-58 34.5zM278 804q31 -12 57 -12q33 -9 38 3t-4 88 q0 42 -6 92.5t-6 76.5q0 33 -11 79q-5 0 -18 -50t-25.5 -110t-21 -111.5t-3.5 -55.5zM323 849v11v23v-34zM399 1669.5q6 17.5 15 26.5t36.5 9t53.5 -9q25 -9 33.5 -37.5t-0.5 -53.5q-9 -17 -23 -24.5t-56 1.5q-43 0 -49.5 5.5t-6.5 39.5q-9 25 -3 42.5zM411.5 1531 q3.5 7 46.5 7q25 0 47.5 0.5t31.5 9.5q25 16 40 56t6 57l11 -11q33 -26 33 -64t-33 -71q-13 -13 -36.5 -21.5t-49 -9.5t-48.5 6t-35 25q-17 9 -13.5 16zM458 1424h23q8 -9 25 -67.5t35 -139t33 -168.5t20 -155q4 -39 9.5 -67.5t14.5 -70t25 -106t42 -174.5q16 -85 25 -149 t9 -132q0 -47 -2 -72.5t-8 -40.5t-20 -24t-38 -21q-43 -26 -59 -27.5t-32 15.5q-34 16 -34 26t34 19q42 9 83.5 38t41.5 63q0 24 -4.5 64.5t-12 89.5t-18 103t-22.5 105q-13 54 -24.5 108.5t-22 116t-21.5 133t-23 161.5q-5 24 -10.5 56.5t-11.5 66.5t-12 67t-10 59 q-9 50 -35 123z" />
<glyph unicode="&#xc5;" horiz-adv-x="811" d="M9 145q-5 9 0.5 58t15.5 116t23 142t22 135q9 31 19.5 70.5t22.5 81t23.5 81t20.5 72.5q9 27 18 66t18 82.5t18 87.5t18 81q13 72 23 114t20 63.5t23 29.5t32 13q36 18 57 18t30 -18q9 -9 21.5 -56t26 -113t26.5 -144.5t22 -150.5q9 -33 18 -78.5t18 -96t19 -100.5 t19 -91q18 -74 31.5 -147t22.5 -136t14 -110.5t5 -69.5q-5 -9 -23.5 -20t-40 -19t-41.5 -11.5t-29 1.5q-5 9 -11.5 33.5t-12.5 57t-9.5 67t-3.5 62.5q0 18 -8 57.5t-17 76.5q-9 36 -22.5 76t-13.5 58q-9 18 -22 21t-76 3q-33 0 -50.5 -1.5t-26.5 -4.5t-13 -10.5t-8 -20.5 q0 -18 -7 -58t-16 -76q-9 -37 -16.5 -85.5t-7.5 -84.5q-9 -55 -19 -78.5t-19 -32.5t-30 -14t-42.5 -6t-39.5 1.5t-22 7.5zM22 96q43 3 61 12q54 0 94 27.5t40 82.5q0 13 4 52t10.5 88t16 100.5t18.5 88.5q9 18 16 25.5t44 -1.5q36 0 49 -3t13 -21q9 -9 -0.5 -10.5 t-36.5 -1.5q-14 0 -22 -2t-14 -14t-11 -36.5t-14 -69.5q-9 -55 -18.5 -115t-18.5 -105q-9 -55 -13.5 -79.5t-22.5 -42.5q-19 -14 -52 -18.5t-65 -1.5t-55 14.5t-23 30.5zM277 791q9 0 26.5 -6t35.5 -6q27 0 31.5 11t4.5 38q0 36 -4 86t-10 93t-12 70.5t-10 18.5 q-5 -19 -10 -33t-9.5 -32t-9 -45.5t-8.5 -72.5q-9 -46 -25 -122zM282.5 1611.5q-1.5 30.5 7.5 57.5q4 9 22 13.5t39.5 4.5t42.5 -4.5t30 -13.5q18 -18 18 -31.5t-18 -40.5t-52 -30.5t-70 5.5q-18 9 -19.5 39.5zM312 1509q-12 14 52 14q36 0 51.5 9.5t33.5 27.5 q9 18 16.5 36.5t7.5 36.5q9 27 13.5 25.5t22.5 -37.5q9 -18 9 -32t-9 -41q-9 -46 -33.5 -58.5t-87.5 -3.5q-64 9 -76 23zM315 840q0 9 7.5 10.5t16.5 1.5v-12v-12q-9 0 -16.5 1.5t-7.5 10.5zM465.5 1432q1.5 0 19.5 -18q9 -14 25.5 -69t34.5 -132t35.5 -166t26.5 -170 q4 -28 10.5 -69.5t14.5 -88.5t17.5 -95t18.5 -89q22 -87 36 -165.5t21 -140.5t8 -103.5t-3 -54.5q-9 -14 -30.5 -27t-45.5 -22t-47 -13t-36 1q-27 9 -33.5 23t20.5 14q13 4 32 12.5t37.5 18.5t33.5 21.5t20 20.5q9 13 7 60.5t-9 109.5t-17 128t-19 117q-27 91 -45 191.5 t-27 174.5q-5 31 -12 75t-16 93t-20.5 100.5t-24.5 97.5q-9 45 -17 87t-8 60q-9 18 -7.5 18z" />
<glyph unicode="&#xc7;" horiz-adv-x="837" d="M18 660q-16 138 2 277t74 255q50 111 115.5 164t165.5 63q80 20 149 21.5t79 -7.5q4 -11 0 -31.5t-11.5 -41.5t-16 -38.5t-12.5 -21.5h-81q-100 -10 -159 -59t-109 -169q-21 -40 -30.5 -87t-9.5 -127q-10 -130 9 -227t59 -187q30 -70 56.5 -113.5t57.5 -64.5t70.5 -22 t95.5 14q30 20 63.5 23t43.5 3q9 4 22.5 -6.5t25 -26.5t17.5 -34t2 -27q-6 -11 -35 -26.5t-65 -30.5t-72.5 -25.5t-55.5 -10.5q-60 0 -80 -40q-21 -30 -21 -43.5t21 -23.5q39 0 72 -26t51 -65t16 -83t-32 -80q-11 -15 -37 -31t-61 -29.5t-75.5 -23t-79.5 -9.5q-30 0 -81 13 q18 37 28 67q4 15 8 23.5t13 14t25.5 8.5t46.5 7q30 0 57.5 10t48.5 30q20 10 20 15t-20 25q-21 21 -39 26.5t-27 14.5q-60 0 -78.5 58t11.5 128q9 15 13 24t0.5 18.5t-17 24t-37.5 40.5q-81 84 -130.5 208t-65.5 262zM196.5 -398.5q5.5 1.5 45.5 1.5q30 0 65.5 7t70.5 18.5 t65.5 25.5t51.5 29q39 30 58 85.5t10 115.5q-10 40 -9 43.5t22 -17.5q20 -30 28 -89.5t-1 -110.5q-41 -80 -161 -120q-30 -9 -70 -14.5t-76.5 -5.5t-63.5 5.5t-31 14.5q-10 10 -4.5 11.5zM210.5 739.5q-3.5 70.5 2.5 138t20.5 128.5t35.5 106q19 39 36 65t38 41t50.5 21 t74.5 6q34 4 55.5 7.5t35.5 9t23.5 14.5t20.5 24q9 9 24.5 33.5t15.5 45.5q9 39 12.5 43t13.5 -16q20 -21 20 -38.5t-20 -67.5q-6 -26 -12.5 -42.5t-20.5 -26.5t-38 -16t-63 -10q-45 0 -76.5 -6t-55.5 -20t-43 -37t-38 -57q-30 -56 -48 -124.5t-24 -142.5t-1 -149.5 t20 -144.5q20 -40 31.5 -83.5t21.5 -63.5q9 -21 9 -23.5t-9 -2.5q-11 4 -25 33t-28 68t-25 81t-15 72q-15 64 -18.5 134.5zM275.5 -134.5q3.5 0.5 33.5 -9.5q30 -9 38 -18t-12 -9q-10 0 -27 3t-26 12q-10 21 -6.5 21.5zM426.5 40.5q1.5 3.5 41.5 3.5q30 0 70 16t91 37 q80 39 103.5 65t3.5 56q-10 20 -14 40q0 9 8 1.5t18 -22.5t19 -33t9 -27q9 -40 -9 -65t-98 -55q-81 -40 -132.5 -50t-81.5 10t-28.5 23.5z" />
<glyph unicode="&#xc8;" horiz-adv-x="649" d="M0 748q0 231 0.5 358.5t6 192.5t17.5 87t36 40q9 4 20.5 8t35.5 7t65 2.5t110 -4.5q72 0 111.5 -1t58.5 -7t24.5 -18.5t11.5 -34.5q4 -33 3.5 -52t-16.5 -29t-52.5 -12.5t-104.5 -2.5q-73 0 -111 -1.5t-47 -10.5q-10 0 -17 -34t-7 -88q0 -42 1.5 -64t11.5 -32t32 -11.5 t64 -1.5q90 0 116.5 -15t17.5 -69q0 -24 -4 -38t-16.5 -23t-36.5 -14.5t-64 -9.5q-42 0 -64 -5t-32 -32t-11.5 -86.5t-1.5 -167.5q0 -137 0.5 -226t10.5 -89q9 -10 44 -10.5t126 -0.5q99 9 135.5 7t46.5 -20q4 -9 6 -27.5t0.5 -37.5t-6 -35t-13.5 -20q0 -6 -19 -11t-49.5 -8 t-69.5 -5t-79 -2q-114 -6 -172 -6.5t-83 55.5t-28.5 194t-7.5 411zM55.5 56q-0.5 3 17.5 3q18 -10 67.5 -10t113.5 10h120.5h85.5q54 9 76 32.5t22 87.5q2 71 24 50q13 -15 19.5 -44t5 -59t-10.5 -56t-27 -35q-10 -10 -67.5 -17.5t-174.5 -7.5q-78 -6 -120.5 -8t-65.5 1 t-33.5 10t-23.5 22q-28 18 -28.5 21zM73 1765q0 9 9.5 20.5t27.5 29.5q9 9 35 24q18 0 45.5 -26.5t63.5 -71.5q18 -28 34.5 -51.5t26.5 -32.5q18 -15 25 -34t4.5 -34.5t-13 -25t-28.5 -3.5q-9 0 -46.5 30t-78.5 67t-73 69.5t-32 38.5zM169 1596v25q13 -16 13 -25h-13z M195 403.5v151.5q0 104 1 160t10 82.5t28.5 31t56.5 4.5q63 9 80.5 14t27.5 23q18 18 27.5 37.5t9.5 47.5q0 36 1.5 45t11.5 -9q9 0 10 -24t1 -60q0 -37 -6 -58.5t-22 -33t-44 -14.5t-73 -3q-27 0 -42 -4.5t-21.5 -29.5t-7.5 -79.5t-1 -153.5q0 -87 -2.5 -137.5t-5.5 -76.5 t-7.5 -33t-8.5 -7q-9 0 -14 7.5t-7.5 35.5t-2.5 83.5zM195 1161q0 36 1.5 55.5t15 28.5t43 10.5t84.5 1.5h80t50.5 2.5t31 8t20.5 14.5t15 29t-3 56q0 18 1 38.5t11 20.5q9 0 23 -37.5t14 -82.5q0 -37 -7.5 -56.5t-29 -28.5t-62 -10.5t-108.5 -1.5q-51 0 -78 -1.5t-39 -8 t-13.5 -21t-1.5 -41.5q0 -46 -7.5 -60t-16.5 -14q-18 0 -21 17t-3 81zM271 1519q2 1 20 -8q9 -6 23 1.5t29 21t27 30.5t18 32q9 9 11.5 9t12.5 -9q18 -10 18 -34t-18 -51q-18 -28 -62 -33.5t-71 22.5q-10 18 -8 19zM291 1741v24q12 -15 12 -24h-12z" />
<glyph unicode="&#xc9;" horiz-adv-x="748" d="M10 1299.5q1 32.5 5.5 47.5t13.5 33q9 24 24.5 41t32.5 26q16 8 83 12t143.5 4t142 -4t78.5 -12q8 -5 14 -21.5t9 -36.5t3.5 -38t-3.5 -26q-9 -17 -44 -20t-136 -3q-72 4 -112.5 3t-60.5 -10t-24.5 -29t-4.5 -53q-9 -34 -4.5 -70.5t4.5 -52.5q4 -22 8 -33.5t14.5 -15.5 t31 -2.5t58.5 6.5h78.5h45.5q8 -5 12 -25.5t4 -44.5t-4 -46t-12 -30q0 -9 -31 -10t-81 -1q-42 0 -65 -5t-33.5 -35t-12 -93.5t-1.5 -180.5v-120.5t1 -100.5t3.5 -68t7.5 -25q0 -9 57.5 -10t132.5 -1q71 0 109.5 -1.5t56.5 -7.5t21 -20t3 -38q0 -25 -1 -46t-10 -21 q0 -9 -72.5 -16t-173.5 -7q-84 -5 -131 -6.5t-71 1.5t-34 11.5t-22 26.5q-17 9 -45 45v96.5v205.5v133v153v152.5v134.5q-5 105 -7 163.5t-1 91zM71 61.5q0 1.5 25 -14.5q12 -5 53 -6t98 1.5t123.5 6.5t129.5 9q75 9 99 31t24 81q0 24 12 68q13 -14 22 -23q8 -9 12 -30 t5 -45t-0.5 -47t-5.5 -35q-9 -18 -25.5 -27t-49.5 -14t-85.5 -7.5t-131.5 -6.5q-97 0 -148.5 0.5t-76.5 3.5t-34 9.5t-21 19.5q-25 24 -25 25.5zM220 1235q0 12 1.5 18.5t16.5 9.5t46.5 4t91.5 1h85.5t50.5 3t30.5 7.5t24.5 13.5q16 9 24.5 23t8.5 65q0 42 1.5 51.5 t10.5 -6.5q9 0 16 -21.5t7 -45.5q8 -47 5 -74t-25 -40.5t-68.5 -17t-125.5 -3.5q-60 0 -91.5 -1.5t-46.5 -7.5t-16.5 -19.5t-1.5 -37.5q0 -43 -6.5 -55t-15.5 -12t-16 43t-7 102zM231 409v153v175.5t10.5 82t36.5 23.5h77q33 0 52 8t36 25q16 9 19.5 24t3.5 66 q0 50 6.5 55.5t15.5 -10.5q16 -9 19.5 -28.5t3.5 -61.5q0 -38 -2.5 -60.5t-15 -35t-40 -18t-77.5 -9.5q-42 -5 -65 -9.5t-32 -17t-8.5 -37.5t5.5 -70v-133.5v-124.5q0 -75 -7 -99.5t-16 -24.5t-13.5 7t-6.5 35.5t-2 84.5zM249.5 1632q1.5 26 26.5 51q16 9 31 22.5t24 22.5 q0 9 22 35t47 43q16 24 36.5 46t29.5 22q8 0 23 -11t30 -26t26 -30t11 -23q0 -9 -22 -26t-46 -41q-25 -17 -56.5 -47t-55.5 -54q-51 -43 -69 -47t-42 13q-17 24 -15.5 50zM285 1530.5q8 6.5 25 6.5q16 0 63 33.5t97.5 76.5t90 83.5t39.5 53.5q0 16 3 12.5t20 -12.5 q16 -18 19 -34.5t-12.5 -39.5t-52 -56t-99.5 -83q-51 -51 -75 -65t-48 -14q-25 0 -42.5 7t-26.5 16t-1 15.5z" />
<glyph unicode="&#xca;" horiz-adv-x="734" d="M6.5 1288.5q0.5 32.5 5 47.5t13.5 33q9 24 24.5 41t32.5 26q16 8 83.5 12t144 4t142 -4t78.5 -12q8 -5 14 -21.5t9 -36.5t3.5 -38t-3.5 -26q-9 -17 -44 -20t-136 -3q-60 0 -94 -0.5t-53 -3t-27.5 -6.5t-16.5 -12q-9 -9 -14 -24.5t4 -65.5v-60.5v-51.5q0 -18 1.5 -26.5 t12 -11.5t33.5 -1.5t65 6.5h77.5h44.5q8 -5 12 -25.5t4 -44.5t-4 -46t-12 -30q0 -9 -31 -10t-81 -1q-42 0 -65 -5t-33.5 -35t-12 -93.5t-1.5 -180.5v-120.5t1 -100.5t3.5 -68t7.5 -25q0 -9 57.5 -10t132.5 -1q71 0 109.5 -1.5t56.5 -7.5t21.5 -20t3.5 -38q0 -25 -1.5 -46 t-10.5 -21q0 -9 -72.5 -16t-173.5 -7q-84 -5 -131 -6.5t-71 1.5t-34 11.5t-22 26.5q-17 9 -44 45v98.5v215.5v131v148.5v148.5v133q-5 105 -7 163.5t-1.5 91zM33 1610q-1 11 16 28q8 8 37 28.5t63.5 44t66.5 44.5t45 30q16 8 26 11.5t20.5 2t25 -7.5t40.5 -18 q21 -13 54.5 -41.5t66.5 -58.5t57 -56t24 -34q-3 -14 -12 -23q-17 -17 -52.5 -15.5t-59.5 26.5l-31.5 31.5t-46.5 47.5q-22 16 -35 24t-25 7t-28.5 -11.5t-45.5 -31.5q-34 -17 -63.5 -37.5t-38.5 -29.5q-17 -17 -39.5 -15t-38.5 27q-25 16 -26 27zM70 1504q-17 20 34 22 q16 0 30.5 1.5t14.5 10.5q53 38 78 55q33 16 79 45q9 0 16.5 -0.5t16.5 -9.5q16 -17 13.5 -25t-35.5 -32q-17 -9 -39.5 -24.5t-38.5 -31.5q-25 -17 -41 -25.5t-49 -8.5q-25 0 -47.5 7t-31.5 16zM94 25q-50 31 0 11q16 -5 88.5 -4t155.5 5.5t153.5 10.5t83.5 11 q24 16 34.5 44t10.5 79q0 33 8 35.5t25 -13.5q8 -9 12.5 -30t5.5 -45t-0.5 -47t-5.5 -35q-9 -18 -25.5 -27t-49.5 -14t-85.5 -7t-131.5 -7q-97 0 -148.5 0.5t-76.5 3.5t-33.5 9.5t-20.5 19.5zM216 1167q0 33 2 51t17 27t46.5 10.5t91.5 1.5h85.5t50.5 3t30 7.5t24 13.5 q16 9 25.5 23t9.5 65q0 42 0.5 51.5t9.5 -6.5q8 -5 15.5 -25.5t13 -46t7 -49.5t-2.5 -36q-9 -25 -57.5 -35t-165.5 -10q-60 0 -91.5 -1.5t-46.5 -7.5t-17 -19.5t-2 -37.5q0 -51 -6.5 -59t-15.5 -8q-17 0 -20 10t-3 78zM227 400v151v175.5t10.5 82t36.5 23.5h77q33 0 53 8 t37 25q24 16 28.5 31.5t4.5 58.5v56q13 -2 22 -11q8 -9 12 -33.5t4 -53.5t-4 -55t-12 -38q-9 -17 -32.5 -20.5t-90.5 -12.5q-42 -5 -65 -11t-33.5 -30t-12 -74t-1.5 -142q0 -89 -0.5 -140.5t-1.5 -76.5t-3 -30t-6 0q-9 0 -13.5 5t-7 31.5t-2.5 80.5zM475.5 1503 q7.5 1 32.5 1q16 -9 33 -2t34 24q16 16 30.5 32t14.5 25q0 24 2 25t19 -15q16 -25 15 -60.5t-25 -51.5q-34 -17 -48 -18t-30 8q0 9 -12.5 15.5t-21.5 6.5h-34q-17 9 -9.5 10z" />
<glyph unicode="&#xcb;" horiz-adv-x="700" d="M0.5 1288q0.5 39 5 55t13.5 34q9 24 24.5 41t32.5 26q16 8 86.5 12t148.5 4t142.5 -4t69.5 -12q8 -9 14.5 -27.5t9.5 -38t3.5 -36t-3.5 -20.5q-9 -17 -44 -20t-136 -3q-68 0 -115.5 -0.5t-63.5 -9.5q-9 0 -15.5 -25.5t-6.5 -109.5q0 -47 1.5 -72t12 -35.5t33.5 -10 t65 5.5q101 9 127.5 -4t17.5 -63q0 -34 -2.5 -52.5t-15 -27t-40 -9.5t-77.5 -1q-42 -5 -65 -12t-33.5 -37t-12 -91t-1.5 -174v-120.5t1 -100.5t3.5 -68t7.5 -25q0 -9 57.5 -10t132.5 -1q71 0 109.5 -1.5t56.5 -7.5t21 -20t3 -38q0 -25 -1 -46t-10 -21q0 -9 -69 -16t-177 -7 q-84 -5 -130.5 -6.5t-72 1.5t-38 11.5t-28.5 26.5q-18 21 -26.5 35.5t-11.5 40t-1.5 69.5t6.5 125v109.5v147.5v165v161q-5 129 -7 201.5t-1.5 111.5zM87 33q-50 31 0 11q16 -5 88.5 -4t155.5 5.5t153.5 10.5t83.5 11q24 16 34.5 44t10.5 79q0 33 6.5 35.5t15.5 -13.5 q12 -9 18 -28t7.5 -42.5t-2 -47t-11.5 -39.5q-5 -18 -18 -27t-43 -14t-82.5 -7.5l-136.5 -6.5q-97 0 -148.5 0.5t-76.5 3.5t-34 9.5t-21 19.5zM96.5 1610.5q-7.5 10.5 1.5 35.5q0 16 7 26t16 19q8 4 26 5.5t38 0.5t37 -5t22 -12q16 -9 16 -41t-16 -48q-17 -17 -58 -17 t-65 17q-17 9 -24.5 19.5zM154 1501q-67 33 34 33q33 0 51 7t27 16q16 24 24 24t33 -24q16 -17 16 -23t-16 -22q-13 -9 -35 -13.5t-46 -5.5t-48 1t-40 7zM210 1175q0 33 2 51t17 27t46.5 10.5t91.5 1.5h97.5t53 3t28 7.5t22.5 13.5q16 24 20 40.5t4 59.5q-9 42 -8 45.5 t18 -12.5q12 -9 18 -33.5t7 -52.5t-2.5 -54t-11.5 -38q-5 -9 -13.5 -13.5t-28.5 -7.5t-55 -3h-93q-63 -5 -97.5 -8.5t-50 -11t-18 -21t-2.5 -37.5q9 -43 5.5 -49t-27.5 -6q-17 0 -20 10t-3 78zM221 406v153v175.5t12 82t40 23.5h83q67 0 84 27.5t17 95.5q0 50 4 55.5 t29 -10.5q16 -17 19.5 -38t3.5 -63q0 -34 -6 -54t-23 -32t-47.5 -17t-80.5 -9q-38 -5 -58.5 -9.5t-29.5 -17t-8 -37.5t6 -70v-133.5v-124.5q-9 -75 -11 -99.5t-11 -24.5t-13.5 7t-7 35.5t-2.5 84.5zM345 1624q0 16 1 31.5t10 24.5t21 14.5t46 -3.5q42 0 54.5 -15.5 t12.5 -39.5q9 -34 -15 -50t-74 -7q-43 0 -49.5 5.5t-6.5 39.5zM367 1534h45q58 0 80 16.5t31 50.5q9 16 10.5 32t1.5 25q-9 0 -3 4.5t15 -4.5q16 0 29 -33t4 -57q-9 -43 -37 -61t-86 -18q-51 0 -70.5 14t-19.5 31z" />
<glyph unicode="&#xcc;" horiz-adv-x="610" d="M14 1817q3 9 41 37q18 18 35 28t26 10q44 -31 63 -49q18 -28 50 -62.5t60 -61.5q37 -46 47.5 -63t1.5 -35q-19 -46 -55.5 -36t-128.5 85q-38 37 -76.5 69.5t-47.5 41.5q-19 27 -16 36zM104 1646v24q12 -15 12 -24h-12zM129 1632q0 9 9 3.5t28 -14.5q9 -19 7.5 -20.5 t-19.5 7.5q-9 9 -25 24zM215 243.5v119.5v104t1 102.5t3.5 92t7.5 70.5q0 27 1.5 73t4 103t5 120t2.5 124q4 87 6.5 144.5t5.5 92t8.5 50.5t15.5 21q9 4 29.5 6t42.5 0.5t40.5 -6t23.5 -13.5q18 -19 12 -192.5t-24 -459.5q-5 -47 -9.5 -98.5t-7.5 -100t-5 -90.5t-2 -69 q0 -51 -5 -106t-12 -103t-15.5 -81.5t-17.5 -42.5q-19 -9 -50 -8t-49 20q-5 9 -7.5 20.5t-3.5 37t-1 70zM248.5 40.5q2.5 1.5 40.5 1.5q18 0 35.5 9.5t26.5 28.5q22 18 36.5 46t23.5 77.5t15 126.5t11 193q0 60 1.5 126t4 129t4.5 115.5t2 85.5q9 74 11 165t2 156 q0 102 10.5 129t38.5 -18q4 -10 4 -84.5t-2.5 -177.5t-6.5 -216.5t-8 -200.5q-5 -24 -10 -61t-8 -81t-5 -90.5t-2 -87.5q-5 -102 -10.5 -173.5t-15.5 -119t-27 -74.5t-44 -40q-28 -9 -56 -1.5t-55 26.5q-19 9 -16.5 10.5zM265 1510q0 9 1 10.5t10 1.5t25 6.5t25 6.5 q9 4 19.5 20t19.5 34.5t15.5 35t6.5 21.5q-9 9 -1.5 9t26.5 -9q18 -28 18 -60.5t-18 -50.5q-10 -10 -32.5 -17t-46.5 -10t-44 -3t-24 5zM265 1793v25q11 -16 11 -25h-11zM289 1768h12v-25q-12 16 -12 25z" />
<glyph unicode="&#xcd;" horiz-adv-x="534" d="M11 284q2 85 12 238q4 249 10.5 423t13.5 285t14 165t12 64q13 4 36 6t46 0.5t41.5 -6t23.5 -13.5q4 -10 4 -49t-3.5 -141t-10 -286t-15.5 -484q-9 -158 -21.5 -246t-39.5 -125q0 -9 -11.5 -15t-38.5 3q-28 0 -45 8t-23.5 48t-4.5 125zM55 37.5q1 3.5 29 3.5 q37 9 58.5 21.5t40.5 40.5q9 18 15.5 53.5t11.5 80.5t7.5 96.5t2.5 102.5q0 22 2 59.5t5 82.5t8 94.5t10 96.5q4 45 8.5 103t7.5 118t6 118t3 105q4 78 6.5 122.5t5 65.5t5 23.5t7.5 -1.5q18 -19 18 -150.5t-18 -417.5q0 -51 -2.5 -111.5t-5 -123t-4 -122.5t-1.5 -111 q-5 -93 -12 -158t-17.5 -107.5t-24.5 -67.5t-32 -38q-28 -19 -61.5 -19t-60.5 19q-19 18 -18 21.5zM73 1645q64 79 110 135q45 45 79.5 78t43.5 33q4 0 18.5 -10.5t29.5 -23t27.5 -24.5t12.5 -16q0 -15 -37.5 -55.5t-84 -83t-88 -75.5t-50.5 -33q-28 0 -49 28t-12 47z M118 1517q-9 8 29 17q9 0 31.5 14.5t41.5 33.5q18 18 52 50.5t72 60.5q45 37 71.5 64.5t26.5 46.5q0 18 9.5 16.5t28.5 -28.5q9 -38 -5.5 -70t-69.5 -77q-28 -19 -60.5 -44.5t-50.5 -43.5q-28 -38 -47 -43t-64 -5q-56 0 -65 8z" />
<glyph unicode="&#xce;" horiz-adv-x="693" d="M10.5 1559.5q-15.5 18.5 3.5 56.5q4 9 36 35t72.5 55t80 53t58.5 29h36q18 -5 46.5 -20t59.5 -36t61.5 -45t54.5 -46q37 -46 48 -62.5t2 -25.5t-25 -16t-25 -7q-28 -9 -48 -0.5t-38 36.5q-19 18 -50 37t-49 38q-15 13 -24 19.5t-21.5 3.5t-33.5 -14.5t-57 -33.5 q-38 -28 -68 -47t-30 -28q1 0 -36 0q-38 0 -53.5 18.5zM21.5 1488.5q1.5 3.5 29.5 3.5q18 -9 36.5 -1.5t37.5 26.5q18 9 44 25.5t54 35.5q27 18 63 38q9 0 19 -8t29 -17q18 -9 25 -25q-9 0 -34.5 -8t-52.5 -17q-19 -19 -61 -49q-9 0 -18 -3.5t-18 -21.5q-19 -19 -64 -19 t-72 19q-19 18 -17.5 21.5zM129 177q-1 27 1 80t7 150q0 54 1.5 114t4 116t5 103t2.5 75q4 27 8.5 70.5t7.5 94.5t6 104t3 100q9 138 11.5 193.5t11.5 64.5t29.5 15.5t58.5 -2.5q22 0 34.5 -4t18.5 -27.5t7 -73t1 -141.5q0 -51 -2.5 -109.5t-5 -114t-4 -104t-1.5 -80.5 q-5 -33 -10 -77t-8 -91.5t-5 -93.5t-2 -82q0 -139 -15 -233.5t-33 -112.5q-9 -19 -46.5 -17t-64.5 30q-10 9 -15 17.5t-6 35.5zM167 46.5q0 3.5 19 3.5q55 -19 87.5 9.5t60.5 112.5q0 18 6.5 84.5t6.5 150.5q13 207 22.5 358t15.5 257.5t8.5 175t2.5 110.5q4 51 7 78t6 37 t8.5 7.5t15.5 -11.5q4 -15 8 -27.5t6.5 -34.5t2 -59.5t-4.5 -101.5q0 -42 -2.5 -91.5t-5.5 -98t-7.5 -92.5t-8.5 -76q0 -33 -3 -83.5t-6 -110t-7.5 -121.5t-8.5 -116q-5 -107 -8 -173t-9 -106.5t-16.5 -62.5t-28.5 -40q-19 -19 -32.5 -26.5t-40.5 1.5q-19 0 -42.5 8 t-32.5 17q-19 18 -19 21.5zM477 1463.5q2 3.5 30 3.5q45 9 82.5 41t28.5 70q0 18 3 18t22 -18q22 -38 15 -74.5t-31 -59.5t-60.5 -26.5t-72.5 24.5q-19 18 -17 21.5z" />
<glyph unicode="&#xcf;" horiz-adv-x="589" d="M15.5 1668.5q7.5 29.5 26.5 38.5q37 9 76 2.5t48 -15.5q18 -9 19.5 -38.5t-7.5 -47.5q-10 -10 -33 -13t-48.5 -0.5t-48 9.5t-31.5 17q-9 18 -1.5 47.5zM55 1531.5q3 3.5 49 3.5q45 9 62 13t36 23q9 18 17 26t8 -1q9 -9 12.5 -19t12.5 -19q18 -19 -2 -35.5t-84 -25.5 q-38 0 -53 2t-33 11q-28 18 -25 21.5zM91 242.5v145.5q0 51 2 106.5t5 108.5t8 99.5t10 79.5q0 27 1.5 71.5t4 98t4.5 111.5t2 114q9 129 17 195t8 75q9 9 31.5 13.5t46.5 4.5t44.5 -4.5t25.5 -13.5q4 -10 4 -89.5t-2.5 -185.5t-6.5 -217.5t-8 -184.5q-5 -28 -9.5 -64 t-7.5 -72t-5 -69t-2 -55q0 -61 -2.5 -121t-7.5 -111t-11.5 -87.5t-15.5 -49.5q-9 -28 -46.5 -36t-64.5 11q-10 4 -15 12t-7.5 35t-2.5 79.5zM140 40.5q0 5.5 38 14.5q41 4 67.5 29.5t42.5 100.5t24.5 214.5t13.5 370.5q4 64 8.5 135t7.5 138t6 124.5t3 95.5q4 64 7 100.5 t6 53t8.5 16.5t15.5 -9q9 -10 13.5 -21t5 -36.5t-1.5 -72.5t-6 -130q0 -47 -2.5 -106.5t-5.5 -121t-7.5 -118.5t-8.5 -98q-5 -47 -9.5 -96.5t-7.5 -95.5t-5 -86t-2 -67q0 -121 -10 -208.5t-28 -124.5q-28 -28 -63 -36t-72 11q-38 18 -38 23.5zM273.5 1672q5.5 13 14.5 22 q27 18 67.5 18t68.5 -18q18 -19 20 -31.5t-7 -30.5q-9 -28 -20 -32t-66 -4q-56 0 -65 4t-9 32q-9 27 -3.5 40zM299.5 1541.5q5.5 4.5 51.5 4.5q45 0 62 3t36 22q9 18 17 37t8 38q0 27 13.5 28t22.5 -17q18 -28 18 -68t-18 -67q-19 -9 -36 -17t-62 -8q-46 -9 -63.5 -2.5 t-35.5 15.5q-19 27 -13.5 31.5z" />
<glyph unicode="&#xd1;" horiz-adv-x="908" d="M0.5 327q-0.5 62 0 167.5t0.5 271.5q0 242 1.5 368t10.5 180.5t28.5 60t56.5 5.5q24 3 39 2t26 -12.5t20.5 -34.5t21.5 -63q16 -57 44.5 -113.5t85.5 -145.5q24 -37 41 -63t32 -49.5t30.5 -47t36.5 -55.5q8 -21 24 -57.5t32 -72.5t28.5 -64.5t12.5 -31.5q8 -9 10 -15.5 t11 -6.5q0 -9 0 95v347v175v143.5v134.5q0 8 21.5 9t54.5 1q40 0 53 -2.5t22 -18.5q0 -5 1 -32t3.5 -69t4.5 -97t2 -115v-134.5v-161.5v-167v-151q3 -105 5.5 -173t2.5 -108.5t-2.5 -59t-5.5 -26.5q-9 -12 -27 -22t-38.5 -16t-38 -8t-25.5 3q-24 16 -66.5 109t-106.5 247 q-29 68 -52.5 119t-46.5 96t-48 88t-57 96q-29 44 -46.5 69.5t-27.5 37.5t-15 13t-8 -2v-112.5v-120v-144.5q8 -202 8 -291t-8 -97q-5 -9 -24.5 -13t-43 -4t-44.5 4t-29 13q-5 8 -7.5 34t-3 88zM43.5 138.5q5.5 3.5 54.5 12.5q32 0 50.5 6.5t35.5 15.5q8 12 12 22t5 53.5 t-1 137.5t-5 272q-5 81 -7 123.5t-1.5 60t5 14.5t13.5 -15q8 -12 12.5 -30t7.5 -55.5t5.5 -101.5t7.5 -169q8 -118 10 -183.5t1 -98.5t-4.5 -44t-6.5 -19q-17 -24 -33 -28t-64 -4q-41 -9 -59.5 -3.5t-26.5 14.5q-17 16 -11.5 19.5zM112 1556q-2 10 2.5 47t12.5 56 q4 18 12.5 26t29.5 16q36 14 88.5 6t113.5 -34q13 -9 31.5 -16t30.5 -12q18 -8 26 -8t34 5q25 4 31 6t9 11q9 10 7 31q2 8 3 14t5 7q3 4 23 2t25 -5t5.5 -32.5t-4.5 -43.5q-9 -23 -29 -44.5t-50 -33.5q-17 -7 -35 -6t-62 6q-27 3 -45.5 8t-58.5 25q-29 12 -48 20t-40 15 q-19 7 -23 6.5t-10 -9.5q-10 -9 -21 -38q-7 -22 -11.5 -25t-25.5 -6q-21 -4 -23.5 -1.5t-2.5 7.5zM126 1521q-4 9 10 5q11 -2 25.5 4t20.5 15q8 11 15 28q7 26 11.5 27.5t27.5 -4.5q12 -6 32.5 -12.5t35.5 -14.5q42 -19 68 -27t53 -11q44 -5 62.5 -5t39.5 8q44 18 71.5 50.5 t27.5 80.5q2 24 -1 34q1 11 8 7.5t17 -13.5q6 -13 5 -51t-10 -60q-14 -24 -38.5 -44t-55.5 -30q-11 -4 -33.5 -4.5t-47.5 2.5t-49 8t-37 12q-75 30 -106 43.5t-34 9.5q-8 -3 -10 -25q-8 -28 -20 -37.5t-48 -12.5q-18 -3 -23 -1t-10 6q-7 5 -7 12zM227 1358q0 8 1 3t10 -13 q16 -17 25 -46.5t18 -61.5q8 -33 21.5 -64t37.5 -73t61.5 -99t94.5 -141q24 -41 39 -76t15 -43q0 -9 -13.5 12.5t-29.5 62.5q-24 40 -59 91.5t-59 92.5q-37 56 -62 94.5t-42.5 68.5t-28 57t-18.5 60q-9 24 -11 75zM626 54q12 -5 35 0t48 15.5t47 24t31 25.5q8 12 12 24 t5 50.5t-1 115.5t-5 219q0 81 -2 172t-4.5 179t-3.5 165.5t-1 130.5q-9 129 0 259q12 0 18.5 -20.5t10.5 -86.5t7 -189t8 -329q8 -291 11.5 -441t2.5 -216t-7 -76t-18 -22q-33 -24 -81.5 -36.5t-80.5 4.5q-32 16 -32 32z" />
<glyph unicode="&#xd2;" horiz-adv-x="892" d="M2.5 756q-2.5 126 5 242.5t25.5 179.5q12 48 33 93.5t47 81.5t54.5 59t55.5 28q18 0 28.5 6t19.5 6q12 4 46 2.5t72 -7.5t72 -14t48 -17q71 -45 110.5 -104t66.5 -157q12 -36 19 -143t7 -228.5t-7 -230.5t-19 -148q-27 -125 -80 -187.5t-133 -97.5q-153 -45 -269 13.5 t-160 211.5q-18 57 -28.5 171t-13 240zM160 729q3 -105 12.5 -199.5t27.5 -147.5q0 -9 13 -37.5t22 -46.5q26 -27 44 -31t63 -4q44 0 67 7t41 16q35 26 60 86t34 141q9 53 13.5 133t4.5 161t-4.5 150.5t-13.5 101.5q-9 63 -38.5 124t-55.5 79l-44 22t-52 13q-36 9 -52.5 2 t-42.5 -25q-36 -27 -55.5 -67.5t-28.5 -111.5q-9 -63 -13.5 -162t-1.5 -204zM162 107q8 -2 26 -11q26 -18 54 -21t100 -3q48 0 83 3t63 12t52.5 25.5t51.5 43.5q44 39 74 81.5t48 106t25.5 157.5t7.5 238q4 106 5.5 167.5t-1 101.5t-9.5 71t-19 76q-9 44 -25.5 90t-34.5 64 q-36 50 0 12q12 -9 29 -34t34 -57.5t32 -68t24 -66.5q4 -32 6.5 -134t2.5 -219t-2.5 -221t-6.5 -139q-27 -125 -77 -204.5t-113 -105.5q-54 -27 -119 -41.5t-119 -5.5q-23 0 -54 8t-60 20t-51 27t-26 29q-9 0 -1 -2zM163 1797q0 9 15.5 19t33.5 28q9 9 23.5 22t23.5 13 t39.5 -37t102.5 -117q44 -54 51 -71.5t-2 -35.5q-9 -27 -36 -30t-36 6q0 9 -31.5 40t-75.5 67q-45 26 -76.5 56.5t-31.5 39.5zM199.5 941.5q-0.5 54.5 2 90.5t7.5 60t14 51q18 44 29.5 71t29.5 36q18 18 62.5 9.5t80.5 -34.5q26 -9 23 -10t-47 -1q-45 9 -56.5 4t-37.5 -40 q-36 -45 -48 -140t-12 -264q-5 -72 -4 -145t7 -134.5t14.5 -105t17.5 -55.5v-24q-9 0 -17.5 14.5t-17.5 32.5q-14 31 -23 66.5t-14.5 86t-7.5 120t-2 168.5q0 89 -0.5 143.5zM294 1618v24q13 -15 13 -24h-13zM390 1547q17 -9 39.5 -0.5t40.5 26.5t27 40.5t0 40.5 q0 18 1.5 18t10.5 -18q26 -18 35 -41.5t0 -41.5q-27 -54 -72 -63t-71 27q-9 9 -10 15t-1 -3zM401 1785h12v-24q-12 15 -12 24z" />
<glyph unicode="&#xd3;" horiz-adv-x="873" d="M9 745q-1 126 5.5 241.5t20.5 173.5q26 107 84 181.5t130 92.5q35 9 103.5 1.5t122.5 -25.5q89 -27 150 -126.5t88 -242.5q4 -54 4 -153.5t-3 -204.5t-9.5 -194.5t-15.5 -124.5q-27 -99 -79 -167.5t-123 -94.5q-18 0 -58.5 -5.5t-84.5 -5.5q-116 0 -189 57t-108 191 q-18 53 -27.5 166.5t-10.5 239.5zM175 1030q-24 -183 3 -477q9 -179 54.5 -248t135.5 -60q54 0 85 24.5t58 69.5q18 35 28.5 74t19.5 129q4 66 4.5 153t-2 171t-6.5 152t-8 95q-18 35 -44 75.5t-52 67.5q-18 9 -43.5 16t-51.5 7q-36 9 -56 3t-38 -15q-63 -54 -87 -237z M184.5 70q-1.5 14 52.5 -4q27 -14 64.5 -18.5t79 -1t82 15t72.5 29.5q71 35 112.5 92t77.5 156q9 39 17 124.5t14 184.5t7.5 193.5t-2.5 152.5q-5 39 -13.5 82t-20 83t-24.5 74.5t-25 57.5q-18 18 -18 19.5t18 -7.5q18 -18 47.5 -79t47.5 -124q9 -23 13.5 -47t7 -65.5 t3 -107.5t0.5 -172q0 -90 -2.5 -152.5t-5.5 -106t-7.5 -72.5t-8.5 -50q-45 -161 -131 -240.5t-238 -79.5q-63 0 -91.5 2.5t-63.5 20.5q-63 26 -64.5 40zM202 768q0 204 17.5 309.5t53.5 141.5q18 18 31 21.5t40 3.5q35 -9 71 -24t36 -24h-47q-54 9 -79.5 -12t-51.5 -84 q-9 -27 -14 -48.5t-7.5 -57.5t-2.5 -99v-174q0 -94 2 -157t5 -103t7.5 -62.5t9.5 -34.5q18 -54 12.5 -63.5t-23.5 26.5q-27 44 -43.5 148.5t-16.5 292.5zM332 1624q0 9 7.5 25t16.5 34l49 49l58 58q18 26 40.5 48.5t31.5 22.5t22.5 -10t26.5 -23t23 -26.5t10 -22.5 q0 -5 -32.5 -37.5t-74.5 -69.5t-80.5 -66.5t-50.5 -29.5q-18 -9 -32.5 6t-14.5 42zM372 1517q2 3 20 12t40 25t31 34q18 18 49 42t58 42q44 35 68.5 72t15.5 46q18 0 26.5 -21t8.5 -39t-18.5 -43t-53.5 -51q-36 -27 -68.5 -58t-50.5 -49q-36 -36 -68.5 -43.5t-50.5 19.5 q-9 9 -7 12z" />
<glyph unicode="&#xd4;" horiz-adv-x="859" d="M3 795q0 107 2 201.5t7 135.5q26 115 83.5 192.5t129.5 104.5q17 9 46 11.5t62.5 0t68 -8.5t61.5 -15q21 -5 47 -21.5t50.5 -40t46 -50.5t35.5 -54q21 -50 33 -90.5t18 -89.5t7 -115.5t1 -168.5q0 -144 -5.5 -241.5t-19 -166t-36.5 -114.5t-58 -85q-45 -41 -104.5 -63 t-122 -24.5t-121.5 16t-103 59.5q-36 35 -68.5 114t-50.5 160q-5 48 -7 147t-2 206zM90.5 1625q1.5 9 13.5 23.5t38 35.5t71 53q44 26 83 43t48 17q35 0 99 -41.5t127 -112.5q35 -27 38.5 -34.5t-14.5 -25.5t-28 -20.5t-19 -2.5t-35 16.5t-61 43.5q-36 35 -95 70 q-5 4 -30 -9t-54 -32t-53.5 -38t-28.5 -28q-9 -9 -43.5 -6t-52.5 30q-5 9 -3.5 18zM114.5 1533q1.5 3 28.5 3q18 0 35 7.5t35 16.5q9 9 31.5 23.5t40.5 23.5q44 35 62.5 37t45.5 -24q18 -9 23 -13q-5 4 -26.5 -5.5t-47 -25t-48.5 -34t-32 -30.5q-18 -18 -61.5 -18t-69.5 18 q-18 18 -16.5 21zM155 798q0 -165 9.5 -275t33.5 -173t65.5 -85t104.5 -13q44 9 74 29t57 65q9 17 15.5 34t12.5 40.5t10.5 56.5t9.5 83q4 66 4.5 152t-2 167t-6.5 147.5t-8 93.5q-18 35 -43.5 75.5t-51.5 67.5q-18 9 -44 16t-52 7q-45 9 -63 4.5t-44 -39.5q-23 -27 -39 -63 t-25.5 -89t-13.5 -126t-4 -175zM180 77q-3 14 33 -4q21 -9 52.5 -13.5t66.5 -4.5t69.5 4.5t61.5 13.5q89 26 156 95.5t94 177.5q9 35 16.5 116t13.5 174.5t7.5 184t-2.5 144.5q-5 44 -13.5 91t-20 89t-24 76.5t-24.5 52.5q-9 26 -9 34t9 -10q9 -5 23 -27.5t29.5 -53.5 t30.5 -66.5t24 -66.5q4 -32 6.5 -136.5t2.5 -225t-2.5 -229t-6.5 -147.5q-27 -108 -86.5 -186.5t-139.5 -122.5q-32 -14 -74.5 -20.5t-86 -6.5t-83 6.5t-66.5 20.5q-54 26 -57 40zM188 894.5q7 119.5 25 200.5q9 54 31.5 100.5t40.5 55.5q9 4 34 0.5t52 -11.5t48 -18t21 -19 h-60q-36 0 -50.5 -5t-32.5 -31q-18 -27 -30 -59t-18.5 -80t-9 -117t-2.5 -171q0 -179 9.5 -276t27.5 -141q9 -18 7.5 -19.5t-19.5 7.5q-27 26 -45 101.5t-27 219.5q-9 143 -2 262.5zM515.5 1521.5q1.5 2.5 19.5 2.5q26 -9 39.5 -1.5t31.5 25.5t33 34t15 25q0 18 3 16t21 -28 q18 -27 10 -56t-34 -38q-36 -18 -74.5 -18t-56.5 18q-9 18 -7.5 20.5z" />
<glyph unicode="&#xd5;" horiz-adv-x="873" d="M6 702q-9 241 19 405.5t100 236.5q35 44 60.5 61t70.5 35q21 4 54.5 3.5t69.5 -5t69.5 -13.5t56.5 -21q62 -32 104.5 -87.5t68.5 -140t35.5 -201.5t5.5 -273q-5 -152 -19.5 -257.5t-43.5 -174.5t-74.5 -107t-111.5 -55q-153 -45 -263.5 11.5t-154.5 190.5q-9 39 -16 78.5 t-13 85t-10 101t-8 127.5zM57 1567q-6 69 9 108t47 56q45 27 124.5 20t184.5 -44q66 -21 99.5 -25t58.5 2q33 7 46.5 26.5t8.5 44.5q-3 9 5.5 11.5t25.5 6.5q33 7 44 1t14 -57q0 -43 -24.5 -83.5t-69.5 -67.5q-25 -6 -50 -8t-78 4q-36 1 -75 7.5t-59 19.5q-29 11 -64 21 t-63 22q-47 15 -66.5 3.5t-28.5 -48.5q-12 -29 -17 -41t-29 -17q-34 -8 -40 1.5t-3 36.5zM86.5 1480.5q-9.5 10.5 29.5 28.5q24 5 36 13.5t21 46.5q9 37 19 39.5t59 -21.5q27 -3 57.5 -11t41.5 -14q12 -15 3.5 -14.5t-74.5 21.5q-29 11 -37 8t-27 -33q-9 -38 -18.5 -45.5 t-50.5 -16.5q-50 -12 -59.5 -1.5zM157.5 800q1.5 -78 7.5 -158t14.5 -149t17.5 -100q9 -27 23.5 -58t23.5 -49q26 -27 44.5 -31t63.5 -4q80 0 125.5 39.5t63.5 138.5q9 44 13.5 139.5t5.5 199.5t-1 193.5t-6 121.5q-18 63 -43 101.5t-51 65.5q-14 12 -37 21t-49 13.5 t-51 4.5t-42 -4q-45 -18 -77.5 -116t-41.5 -241q-5 -50 -3.5 -128zM197 72q-52 50 0 12q18 -18 50.5 -21t104.5 -3q98 0 152.5 20.5t108.5 74.5q39 35 65 76t41.5 101t23.5 146t13 212q4 106 4 186t-6 141t-17 108t-28 88q-9 35 -25 84q9 0 21 -20.5t25.5 -50.5t26.5 -65.5 t22 -66.5q9 -36 13.5 -64.5t7 -66t3 -92.5t0.5 -144q-5 -135 -10.5 -227.5t-16.5 -158.5t-29.5 -112t-49.5 -85q-41 -54 -105.5 -87.5t-136.5 -43.5t-141 4t-117 55zM206 718.5q-2 84.5 3 174.5q0 160 17.5 234.5t53.5 110.5q18 9 34.5 10.5t25.5 1.5h23.5h23.5t19.5 -8 t28.5 -17q18 -18 14 -20.5t-39 -2.5h-39.5h-30.5q-27 -18 -52.5 -98.5t-43.5 -187.5q-5 -54 -3.5 -138.5t7.5 -168.5t14.5 -154t17.5 -97q18 -54 6 -54t-30 54q-14 27 -25 80t-17 124.5t-8 156zM377 1545l11 3q2 -9 5 -23q-14 11 -16 20zM427.5 1528q10.5 1 48.5 -8 q133 -13 209 49t70 167q1 36 14.5 36.5t22.5 -40.5q24 -66 -4.5 -123t-97.5 -99q-16 -9 -28 -13.5t-27 -5.5t-37 1t-58 8q-36 1 -73 6.5t-39 14.5q-11 6 -0.5 7zM660 1321h12v-24q-12 15 -12 24z" />
<glyph unicode="&#xd6;" horiz-adv-x="880" d="M6 702q-9 241 19 405.5t100 236.5q35 44 60.5 61t70.5 35q21 4 54.5 3.5t69.5 -5t69.5 -13.5t56.5 -21q62 -32 104.5 -87.5t68.5 -140t35.5 -201.5t5.5 -273q-5 -152 -19.5 -257.5t-43.5 -174.5t-74.5 -107t-111.5 -55q-153 -45 -263.5 11.5t-154.5 190.5q-9 39 -16 78.5 t-13 85t-10 101t-8 127.5zM157.5 800q1.5 -78 7.5 -158t14.5 -149t17.5 -100q9 -27 23.5 -58t23.5 -49q26 -27 44.5 -31t63.5 -4q80 0 125.5 39.5t63.5 138.5q9 44 13.5 139.5t5.5 199.5t-1 193.5t-6 121.5q-18 63 -43 101.5t-51 65.5q-14 12 -37 21t-49 13.5t-51 4.5 t-42 -4q-45 -18 -77.5 -116t-41.5 -241q-5 -50 -3.5 -128zM172 1619v28v19q9 18 24 25t60 -2q44 0 52 -6t8 -41q0 -36 -8 -42t-52 -6q-45 -9 -60 -1t-24 26zM192.5 1554.5q1.5 1.5 28.5 -7.5q35 -9 74 -0.5t57 35.5q9 26 11.5 26t11.5 -26q18 -45 4.5 -58t-76.5 -13 q-45 0 -65 3t-29 21q-18 18 -16.5 19.5zM197 72q-52 50 0 12q18 -18 50.5 -21t104.5 -3q98 0 152.5 20.5t108.5 74.5q39 35 65 76t41.5 101t23.5 146t13 212q4 106 4 186t-6 141t-17 108t-28 88q-9 35 -25 84q9 0 21 -20.5t25.5 -50.5t26.5 -65.5t22 -66.5q9 -36 13.5 -64.5 t7 -66t3 -92.5t0.5 -144q-5 -135 -10.5 -227.5t-16.5 -158.5t-29.5 -112t-49.5 -85q-41 -54 -105.5 -87.5t-136.5 -43.5t-141 4t-117 55zM206 718.5q-2 84.5 3 174.5q0 160 17.5 234.5t53.5 110.5q18 9 34.5 10.5t25.5 1.5h23.5h23.5t19.5 -8t28.5 -17q18 -18 14 -20.5 t-39 -2.5h-39.5h-30.5q-27 -18 -52.5 -98.5t-43.5 -187.5q-5 -54 -3.5 -138.5t7.5 -168.5t14.5 -154t17.5 -97q18 -54 6 -54t-30 54q-14 27 -25 80t-17 124.5t-8 156zM410 1630v34v25h72q44 0 51.5 -6t7.5 -41q0 -36 -8 -42t-62 -6q-45 -9 -53 -4.5t-8 40.5zM431.5 1544 q5.5 3 50.5 3q35 0 50.5 4t33.5 31q9 9 22 30t13 30t1.5 15t10.5 -3q18 -18 18 -55.5t-18 -63.5q-9 -18 -30 -21t-65 -3q-45 0 -64 1.5t-19 10.5q-9 18 -3.5 21zM660 1321h12v-24q-12 15 -12 24z" />
<glyph unicode="&#xd7;" horiz-adv-x="818" d="M28 222.5q2 10.5 20 0.5q64 -46 92 -60t40 -17q11 -3 39 11t91 72q38 34 58.5 52t34.5 22.5t25.5 -2.5t30.5 -22q19 -21 49 -54.5t43 -47.5q43 -39 71 -44t67 30q16 15 44 40q19 -21 12.5 -43.5t-44.5 -56.5q-47 -42 -69.5 -39t-67.5 54q-20 21 -54 53t-53 53 q-19 15 -30.5 22.5t-24.5 2t-32.5 -25t-53.5 -57.5q-55 -50 -83 -73.5t-39 -20.5q-12 3 -37 16.5t-79 56.5q-18 10 -29.5 23.5t-13.5 25.5q-9 18 -7 28.5zM50 730q1 15 21 -7t83 -108q40 -54 50.5 -68.5t2.5 -21.5q-9 -8 -16.5 -2t-41.5 54q-48 61 -74.5 99.5t-24.5 53.5z M57 282q8 7 40.5 45t74.5 77q36 39 56.5 62t29.5 35t8 18.5t-7 14.5q-7 7 -31 40.5t-45 66.5q-44 51 -67 79.5t-31 42.5t-3 18.5t17 9.5q8 7 21.5 15t35.5 2q13 6 22 7t21 -8t30.5 -31t52.5 -63q33 -42 54 -64t42 -24.5t48.5 16t72.5 59.5q50 45 84.5 77t39.5 36 q6 -8 15.5 -13t35.5 -33q25 -29 37 -46t7 -35t-29 -41.5t-70 -65.5q-48 -43 -71.5 -67.5t-26.5 -43.5t13.5 -39t52.5 -53q35 -40 55.5 -64.5t28 -41t2 -28.5t-21.5 -27q-18 -16 -31 -20.5t-29 4t-39 30.5t-60 60q-36 33 -56.5 49.5t-39 16.5t-42 -18t-62.5 -54 q-48 -43 -68 -69t-33 -33.5t-28.5 3.5t-54.5 41q-42 28 -47.5 35t-3.5 22zM561 442q-1 6 8.5 18t32 33t63.5 58q42 38 101 92q9 -13 12 -24q2 -12 -14.5 -37t-75.5 -79q-36 -33 -58.5 -50.5t-34.5 -23.5t-17.5 -4.5t-8.5 5.5q-7 6 -8 12z" />
<glyph unicode="&#xd9;" horiz-adv-x="922" d="M10 868q0 255 7.5 395.5t17.5 159.5q0 9 18.5 10.5t56.5 1.5q48 0 57 -4t19 -22q0 -6 1.5 -50t2.5 -116t0.5 -165.5t-4.5 -196.5v-283.5t2.5 -159t7.5 -76.5t15 -35q39 -57 151 -76q48 -10 91.5 9t72.5 67q9 14 13.5 31.5t7.5 71.5t3.5 161.5t0.5 301.5v312t6 161t19 60 t37 9q37 0 58 -4t31 -22q4 -10 10.5 -93.5t12.5 -197.5t10 -237.5t4 -213.5q-6 -39 -8.5 -80t-5 -77t-5 -65t-6.5 -43q-10 -95 -44 -160.5t-82 -102.5q-19 -15 -33.5 -23t-33.5 -11t-47 -3.5t-75 -0.5q-48 0 -77 0.5t-51 3.5t-43.5 11t-54.5 23q-29 14 -45 24.5t-26.5 23.5 t-19 31t-22.5 47q-19 27 -29.5 50.5t-15 80.5t-5 165.5t-0.5 306.5zM122 1813q0 9 16 26t35 36q28 28 55 20.5t84 -82.5q18 -29 47.5 -56.5t39.5 -45.5q28 -29 37.5 -43t0.5 -32q-19 -48 -48 -41.5t-77 54.5q-29 18 -63.5 50t-62.5 51q-19 18 -41.5 35.5t-22.5 27.5z M152 90.5q-8 12.5 59 -15.5q37 -10 84 -17.5t104 -7.5q37 0 60.5 0.5t41.5 4t34.5 11.5t40.5 23q75 37 116 104t60 172q9 33 13.5 67.5t5.5 86t-1 128.5t-6 196q0 80 -2 157.5t-4.5 142.5t-4 112.5t-1.5 66.5q-10 75 -8.5 84.5t20.5 -8.5q9 -10 14 -23t8.5 -42.5t7 -82 l9.5 -142.5q14 -208 18 -362t-2 -266t-23 -188.5t-44 -127.5q-19 -48 -69.5 -90.5t-106.5 -60.5q-29 -6 -75 -6t-96 4.5t-96 14t-73 24.5q-76 28 -84 40.5zM229.5 653.5q0.5 102.5 6.5 253.5q0 103 -0.5 194t0.5 159.5t3.5 108.5t8.5 40q9 4 15.5 -13t10 -77t3.5 -174 t-4 -302q0 -109 -0.5 -203.5t-1.5 -164t-3.5 -109t-6.5 -39.5q-13 15 -13 25q-6 9 -10 40t-6.5 95t-2 166.5zM361.5 1544.5q6.5 3.5 25.5 3.5q37 0 64 36t37 65q0 28 3 29t22 -17q18 -29 17 -63.5t-29 -62.5q-19 -29 -59 -30t-68 18q-19 18 -12.5 21.5zM387 1788h12v-25 q-12 15 -12 25z" />
<glyph unicode="&#xda;" horiz-adv-x="942" d="M12 577q0 167 3 351t10.5 332t17.5 154q0 9 23 10.5t52 1.5q24 0 36.5 -9t19.5 -60t10.5 -161t9.5 -312q0 -208 0.5 -321t5 -168.5t15 -71.5t29.5 -30q27 -29 64.5 -41.5t76.5 -9.5t75 19t60 45q9 9 14 21.5t8.5 39.5t7 75t9.5 129q0 47 -0.5 112t-2 135.5t-4 141 t-6.5 127.5v117.5v101.5v73.5v34.5q9 9 21.5 10.5t41.5 1.5q28 0 53.5 -1.5t35.5 -10.5q9 -15 17 -170t11.5 -344t0.5 -358t-17 -211q-19 -76 -48.5 -124.5t-77.5 -76.5q-19 -15 -33.5 -23t-33.5 -11t-47 -3.5t-75 -0.5q-48 0 -76.5 0.5t-49.5 3.5t-40.5 11t-46.5 23 q-48 18 -72 40.5t-42 60.5q-19 37 -34.5 72.5t-15.5 64.5q-6 42 -6 209zM128 109q0 1 29 -17q18 -10 52.5 -19.5t72.5 -18.5q141 -38 262.5 5.5t178.5 157.5q37 75 46 316.5t-9 628.5q-6 75 -8 121.5t-1 71t6.5 31.5t15.5 3q15 -33 25 -51q4 -29 8 -130.5t6.5 -229t2 -257.5 t-4.5 -214q0 -100 -5.5 -167t-18 -114t-34 -80t-54.5 -66q-57 -48 -115.5 -66.5t-162.5 -9.5q-188 0 -263 76q-29 28 -29 29zM223 480.5q-1 56.5 1 157t8 271.5q4 165 6.5 264t5 150t5 63t8.5 3q4 -6 8.5 -29t8 -82.5t6 -162.5t2.5 -268q-6 -109 -8.5 -205.5t-3.5 -168.5 t-1 -155q0 -10 -8 4.5t-17 33.5q-10 18 -15 43t-6 81.5zM333 1624q-8 34 11 53q9 0 36 32t65 70q28 48 53.5 75t35.5 37q9 0 25.5 -8.5t33 -20.5t29 -24.5t12.5 -21.5q4 -15 -31.5 -54t-82.5 -79t-91.5 -69.5t-58.5 -23.5q-29 0 -37 34zM371 1520q-14 19 24 19q14 4 61 41 t98 82t91 86t40 56q0 18 3 19.5t22 -7.5q59 -56 -51 -151q-66 -57 -106.5 -90t-64.5 -49.5t-35 -20.5t-20 -4q-48 0 -62 19z" />
<glyph unicode="&#xdb;" horiz-adv-x="894" d="M-5 878q5 108 7 204.5t4.5 169.5t5 117.5t8.5 50.5q0 9 18.5 10.5t56.5 1.5q48 0 57 -4t19 -22q0 -6 1.5 -50t2.5 -116t0.5 -165.5t-4.5 -196.5v-283.5t2.5 -159t7.5 -76.5t15 -35q40 -76 176 -76q48 0 64.5 5t35.5 34q27 24 42.5 49t21.5 87.5t5 180t-5 325.5v290 t6 149.5t19 55.5t37 8q37 0 58 -4t31 -22q4 -6 10 -94t11 -208t6.5 -246t-2.5 -206q0 -114 -8 -198.5t-24.5 -146t-43 -103t-63.5 -68.5q-19 -15 -33.5 -23t-33 -11t-46.5 -3.5t-75 -0.5q-48 0 -78.5 0.5t-52.5 3.5t-40.5 11t-42.5 23q-75 38 -114 75q-24 37 -37 68 t-18 94.5t-6 180t-1 324.5zM77 1639q1 13 30 32q9 14 40 39t68 51t71 47t49 27q18 9 53.5 -2t83.5 -48q75 -57 124 -108t40 -69q0 -18 -38 -37q-19 -10 -39.5 2t-86.5 60q-38 37 -100 75q-10 0 -43 -16t-70 -34q-39 -29 -64 -44t-43 -19.5t-30.5 -0.5t-26.5 14 q-19 18 -18 31zM114.5 1549q1.5 8 30.5 8q18 0 43.5 7.5t44.5 17.5q18 18 43.5 36t44.5 28l27 21t16.5 7t17 -7l28.5 -21q18 -19 25 -25q-10 9 -59 -21.5t-105 -67.5q-29 -29 -75 -29t-64 29q-19 9 -17.5 17zM137 87.5q-8 12.5 59 -15.5q37 -10 84.5 -17.5t104.5 -7.5 q37 0 60 0.5t41 4t34.5 11.5t40.5 23q75 37 116 104t60 172q4 33 8 69t6.5 87.5t2 126t-4.5 183.5q0 75 -2 149.5t-4.5 139.5t-4 115t-1.5 74q-10 85 -8.5 96t20.5 -7q14 -10 21.5 -35.5t12 -91.5t7.5 -185.5t9 -317.5q4 -128 4 -218.5t-6 -156.5t-18 -114t-30 -90 q-29 -57 -80.5 -107.5t-107.5 -68.5q-29 -6 -75 -6t-96 4.5t-96 14t-73 24.5q-76 28 -84 40.5zM214.5 660.5q0.5 101.5 6.5 243.5v194v159.5v148.5q18 0 28 -14.5t13.5 -69.5t2 -165.5t-5.5 -303.5q0 -114 -0.5 -211t-2 -168t-4 -110.5t-6.5 -39.5q-13 15 -13 25 q-6 9 -10 43.5t-6.5 100.5t-2 167.5zM548 1518q0 14 38 14q37 0 69 23.5t32 52.5q0 18 3 20t22 -7q24 -24 21 -54t-23.5 -52.5t-53.5 -30.5t-70 11q-38 9 -38 23z" />
<glyph unicode="&#xdc;" horiz-adv-x="901" d="M14.5 1055.5q-0.5 102.5 0.5 181.5t3.5 128t8.5 55q0 9 17 10.5t46 1.5q28 0 52 -1.5t24 -10.5q4 0 6.5 -44t4 -119t2 -173t0.5 -206v-294t2.5 -158.5t7.5 -70.5t15 -31q28 -38 68.5 -57t107.5 -19q56 0 82.5 20.5t55.5 68.5q9 14 13.5 33.5t7.5 58.5t3.5 103.5 t0.5 169.5q0 66 -0.5 140t-1.5 145t-3.5 131.5t-6.5 99.5q0 104 1 148t11 54q4 9 24 13.5t44 4.5t44.5 -4.5t26.5 -13.5q4 -6 8.5 -36.5t8 -96t6 -169t2.5 -253.5q0 -198 -0.5 -308.5t-3.5 -168t-7.5 -80t-13.5 -46.5q-29 -57 -72.5 -101.5t-91.5 -62.5q-19 0 -63 -5t-100 5 q-114 0 -190 36t-113 103q-15 24 -23 44.5t-11 77t-3 167v314.5q0 113 -0.5 215.5zM127.5 99q-12.5 15 63.5 -13q132 -48 248 -39t192 76q48 48 71.5 94t42.5 132q4 27 8 59.5t6.5 86t2 135.5t-4.5 210q0 84 -2 164.5t-4.5 146.5t-4 113.5t-1.5 66.5q-10 66 -8.5 74 t20.5 -10q9 -10 16 -19t12 -24t8 -40.5t3 -67.5v-60.5v-76.5v-80v-73q4 -39 6.5 -91t3 -109.5t1 -117t0.5 -110.5q-6 -95 -9 -151t-7.5 -90t-12 -54.5t-21.5 -44.5q-29 -67 -81 -112.5t-108 -63.5q-34 -6 -81 -6t-96 4.5t-95.5 14t-79.5 24.5q-76 37 -88.5 52zM160 1658 q0 28 19 38q0 9 23 10.5t52 1.5q48 0 55 -6.5t7 -43.5q0 -38 -7 -44t-55 -6q-29 0 -47.5 1.5t-27.5 11.5q-19 9 -19 37zM200 1553.5q6 3.5 54 3.5q37 -10 53 -2t35 27q9 9 25 26q15 -17 25 -26q18 -29 18 -35t-18 -15q-15 -10 -42.5 -14.5t-57.5 -4.5t-54.5 4.5t-33.5 14.5 q-10 18 -4 21.5zM209.5 647q0.5 102 6.5 268q4 183 7 284.5t6.5 148t9 51.5t15.5 -4q9 -10 13.5 -27.5t5.5 -72t-1 -161t-6 -294.5q0 -109 -0.5 -203.5t-1.5 -164t-3.5 -109t-6.5 -39.5q-16 19 -25 38q-6 14 -10.5 40t-7 84.5t-2 160.5zM412 1670.5q5 15.5 5 25.5 q0 9 17.5 10.5t46.5 1.5q56 0 76 -7t11 -55q0 -29 -10 -33.5t-66 -4.5q-57 0 -66 4.5t-9 33.5q-10 9 -5 24.5zM442 1532q-10 9 0 17t39 8q28 0 48 2t39 12q9 4 19.5 17t19 28t12 30t-0.5 25q-10 28 9.5 15.5t29.5 -40.5q18 -29 10 -57.5t-36 -56.5q-10 -10 -37.5 -14.5 t-58 -4.5t-57.5 4.5t-36 14.5z" />
<glyph unicode="&#xe0;" horiz-adv-x="811" />
<glyph unicode="&#xe1;" horiz-adv-x="831" />
<glyph unicode="&#xe2;" horiz-adv-x="797" />
<glyph unicode="&#xe3;" horiz-adv-x="812" />
<glyph unicode="&#xe4;" horiz-adv-x="804" />
<glyph unicode="&#xe5;" horiz-adv-x="797" />
<glyph unicode="&#xe7;" horiz-adv-x="790" />
<glyph unicode="&#xe8;" horiz-adv-x="658" />
<glyph unicode="&#xe9;" horiz-adv-x="672" />
<glyph unicode="&#xea;" horiz-adv-x="672" />
<glyph unicode="&#xeb;" horiz-adv-x="658" />
<glyph unicode="&#xec;" horiz-adv-x="541" />
<glyph unicode="&#xed;" horiz-adv-x="443" />
<glyph unicode="&#xee;" horiz-adv-x="499" />
<glyph unicode="&#xef;" horiz-adv-x="433" />
<glyph unicode="&#xf1;" horiz-adv-x="909" />
<glyph unicode="&#xf2;" horiz-adv-x="844" />
<glyph unicode="&#xf3;" horiz-adv-x="823" />
<glyph unicode="&#xf4;" horiz-adv-x="844" />
<glyph unicode="&#xf5;" horiz-adv-x="844" />
<glyph unicode="&#xf6;" horiz-adv-x="877" />
</font>
</defs>
</svg>
